{
.appVersion = "998";
copyright = "Copyright 2017 Google Inc. All Rights Reserved.";
customParameters = (
{
name = glyphOrder;
value = (
.notdef,
NULL,
CR,
space,
nbspace,
uni25CC,
uni200C,
uni200D,
comma.cham,
period.cham,
hyphentwo,
softhyphen,
hyphen.cham,
zero_cham,
one_cham,
two_cham,
three_cham,
four_cham,
five_cham,
six_cham,
seven_cham,
eight_cham,
nine_cham,
ka_cham,
kha_cham,
ga_cham,
gha_cham,
ngue_cham,
nga_cham,
cha_cham,
chha_cham,
ja_cham,
jha_cham,
nhue_cham,
nha_cham,
nhja_cham,
ta_cham,
tha_cham,
da_cham,
dha_cham,
nue_cham,
na_cham,
dda_cham,
pa_cham,
ppa_cham,
pha_cham,
ba_cham,
bha_cham,
mue_cham,
ma_cham,
bba_cham,
ya_cham,
ra_cham,
la_cham,
va_cham,
ssa_cham,
sa_cham,
ha_cham,
kFinal_cham,
gFinal_cham,
ngFinal_cham,
chFinal_cham,
tFinal_cham,
nFinal_cham,
pFinal_cham,
yFinal_cham,
rFinal_cham,
lFinal_cham,
ssFinal_cham,
hSignFinal_cham,
a_cham,
i_cham,
u_cham,
e_cham,
ai_cham,
o_cham,
yaMedial_cham,
raMedial_cham,
laMedial_cham,
laMedial_cham.narrow,
waMedial_cham,
waMedial_cham.narrow,
laMedial_waMedial_cham,
laMedial_uSign_cham,
laMedial_ueSign_cham,
waMedial_uSign_cham,
waMedial_ueSign_cham,
ngSignFinal_cham,
mSignFinal_cham,
oSign_cham,
aiSign_cham,
aaSign_cham,
aaSign_oeSign_cham,
iSign_cham,
iiSign_cham,
eiSign_cham,
auSign_cham,
uSign_cham,
uSign_cham.narrow,
uSign_cham.narrow_alt,
oeSign_cham,
ueSign_cham,
oeSign_auSign_cham,
auSign_mSignFinal_cham,
oeSign_ngSignFinal_cham,
oeSign_mSignFinal_cham,
iSign_mSignFinal_cham,
danda_cham,
doubleDanda_cham,
tripleDanda_cham,
spiral_cham,
dha_withcrossstroke,
na_cham.calt,
ma_cham.calt,
bba_cham.calt,
va_cham.calt,
exclam,
quotedbl,
quotesingle,
parenleft,
parenright,
comma,
hyphen,
period,
slash,
colon,
semicolon,
question
);
},
{
name = description;
value = "Designed by Monotype design team.";
},
{
name = trademark;
value = "Noto is a trademark of Google Inc.";
},
{
name = vendorID;
value = GOOG;
},
{
name = fsType;
value = (
);
},
{
name = licenseURL;
value = "http://scripts.sil.org/OFL";

glyphs = (
{
glyphname = .notdef;
lastChange = "2017-04-21 12:40:23 +0000";
layers = (
{
layerId = "0A718E2F-231D-484E-9433-16A5230D2CE8";
paths = (
{
closed = 1;
nodes = (
"94 0 LINE",
"505 0 LINE",
"505 714 LINE",
"94 714 LINE"
);
},
{
closed = 1;
nodes = (
"145 51 LINE",
"145 663 LINE",
"454 663 LINE",
"454 51 LINE"
);
}
);
width = 600;
},
{
layerId = "9FF96064-8718-4A86-A5C8-73C592101F67";
paths = (
{
closed = 1;
nodes = (
"94 0 LINE",
"505 0 LINE",
"505 714 LINE",
"94 714 LINE"
);
},
{
closed = 1;
nodes = (
"145 51 LINE",
"145 663 LINE",
"454 663 LINE",
"454 51 LINE"
);
}
);
width = 600;
},
{
layerId = "134B12F2-BF5D-48E3-8003-C7502B438C7E";
paths = (
{
closed = 1;
nodes = (
"94 0 LINE",
"505 0 LINE",
"505 714 LINE",
"94 714 LINE"
);
},
{
closed = 1;
nodes = (
"145 51 LINE",
"145 663 LINE",
"454 663 LINE",
"454 51 LINE"
);
}
);
width = 600;
},
{
layerId = "AB666A95-3AF9-4DE8-B258-097FFCFE8A59";
paths = (
{
closed = 1;
nodes = (
"94 0 LINE",
"505 0 LINE",
"505 714 LINE",
"94 714 LINE"
);
},
{
closed = 1;
nodes = (
"145 51 LINE",
"145 663 LINE",
"454 663 LINE",
"454 51 LINE"
);
}
);
width = 600;
}
);
},
{
glyphname = uni25CC;
lastChange = "2017-04-21 12:56:16 +0000";
layers = (
{
layerId = "0A718E2F-231D-484E-9433-16A5230D2CE8";
paths = (
{
closed = 1;
nodes = (
"199 543 OFFCURVE",
"187 531 OFFCURVE",
"187 517 CURVE SMOOTH",
"187 503 OFFCURVE",
"199 491 OFFCURVE",
"213 491 CURVE SMOOTH",
"227 491 OFFCURVE",
"239 503 OFFCURVE",
"239 517 CURVE SMOOTH",
"239 531 OFFCURVE",
"227 543 OFFCURVE",
"213 543 CURVE SMOOTH"
);
},
{
closed = 1;
nodes = (
"367 543 OFFCURVE",
"355 531 OFFCURVE",
"355 517 CURVE SMOOTH",
"355 503 OFFCURVE",
"367 491 OFFCURVE",
"381 491 CURVE SMOOTH",
"395 491 OFFCURVE",
"407 503 OFFCURVE",
"407 517 CURVE SMOOTH",
"407 531 OFFCURVE",
"395 543 OFFCURVE",
"381 543 CURVE SMOOTH"
);
},
{
closed = 1;
nodes = (
"199 133 OFFCURVE",
"187 121 OFFCURVE",
"187 107 CURVE SMOOTH",
"187 93 OFFCURVE",
"199 81 OFFCURVE",
"213 81 CURVE SMOOTH",
"227 81 OFFCURVE",
"239 93 OFFCURVE",
"239 107 CURVE SMOOTH",
"239 121 OFFCURVE",
"227 133 OFFCURVE",
"213 133 CURVE SMOOTH"
);
},
{
closed = 1;
nodes = (
"367 133 OFFCURVE",
"355 121 OFFCURVE",
"355 107 CURVE SMOOTH",
"355 93 OFFCURVE",
"367 81 OFFCURVE",
"381 81 CURVE SMOOTH",
"395 81 OFFCURVE",
"407 93 OFFCURVE",
"407 107 CURVE SMOOTH",
"407 121 OFFCURVE",
"395 133 OFFCURVE",
"381 133 CURVE SMOOTH"
);
},
{
closed = 1;
nodes = (
"283 561 OFFCURVE",
"271 549 OFFCURVE",
"271 535 CURVE SMOOTH",
"271 521 OFFCURVE",
"283 509 OFFCURVE",
"297 509 CURVE SMOOTH",
"311 509 OFFCURVE",
"323 521 OFFCURVE",
"323 535 CURVE SMOOTH",
"323 549 OFFCURVE",
"311 561 OFFCURVE",
"297 561 CURVE SMOOTH"
);
},
{
closed = 1;
nodes = (
"283 115 OFFCURVE",
"271 103 OFFCURVE",
"271 89 CURVE SMOOTH",
"271 75 OFFCURVE",
"283 63 OFFCURVE",
"297 63 CURVE SMOOTH",
"311 63 OFFCURVE",
"323 75 OFFCURVE",
"323 89 CURVE SMOOTH",
"323 103 OFFCURVE",
"311 115 OFFCURVE",
"297 115 CURVE SMOOTH"
);
},
{
closed = 1;
nodes = (
"48 298 OFFCURVE",
"60 286 OFFCURVE",
"74 286 CURVE SMOOTH",
"88 286 OFFCURVE",
"100 298 OFFCURVE",
"100 312 CURVE SMOOTH",
"100 326 OFFCURVE",
"88 338 OFFCURVE",
"74 338 CURVE SMOOTH",
"60 338 OFFCURVE",
"48 326 OFFCURVE",
"48 312 CURVE SMOOTH"
);
},
{
closed = 1;
nodes = (
"494 298 OFFCURVE",
"506 286 OFFCURVE",
"520 286 CURVE SMOOTH",
"534 286 OFFCURVE",
"546 298 OFFCURVE",
"546 312 CURVE SMOOTH",
"546 326 OFFCURVE",
"534 338 OFFCURVE",
"520 338 CURVE SMOOTH",
"506 338 OFFCURVE",
"494 326 OFFCURVE",
"494 312 CURVE SMOOTH"
);
},
{
closed = 1;
nodes = (
"113 140 OFFCURVE",
"125 128 OFFCURVE",
"139 128 CURVE SMOOTH",
"153 128 OFFCURVE",
"165 140 OFFCURVE",
"165 154 CURVE SMOOTH",
"165 168 OFFCURVE",
"153 180 OFFCURVE",
"139 180 CURVE SMOOTH",
"125 180 OFFCURVE",
"113 168 OFFCURVE",
"113 154 CURVE SMOOTH"
);
},
{
closed = 1;
nodes = (
"113 456 OFFCURVE",
"125 444 OFFCURVE",
"139 444 CURVE SMOOTH",
"153 444 OFFCURVE",
"165 456 OFFCURVE",
"165 470 CURVE SMOOTH",
"165 484 OFFCURVE",
"153 496 OFFCURVE",
"139 496 CURVE SMOOTH",
"125 496 OFFCURVE",
"113 484 OFFCURVE",
"113 470 CURVE SMOOTH"
);
},
{
closed = 1;
nodes = (
"429 140 OFFCURVE",
"441 128 OFFCURVE",
"455 128 CURVE SMOOTH",
"469 128 OFFCURVE",
"481 140 OFFCURVE",
"481 154 CURVE SMOOTH",
"481 168 OFFCURVE",
"469 180 OFFCURVE",
"455 180 CURVE SMOOTH",
"441 180 OFFCURVE",
"429 168 OFFCURVE",
"429 154 CURVE SMOOTH"
);
},
{
closed = 1;
nodes = (
"429 456 OFFCURVE",
"441 444 OFFCURVE",
"455 444 CURVE SMOOTH",
"469 444 OFFCURVE",
"481 456 OFFCURVE",
"481 470 CURVE SMOOTH",
"481 484 OFFCURVE",
"469 496 OFFCURVE",
"455 496 CURVE SMOOTH",
"441 496 OFFCURVE",
"429 484 OFFCURVE",
"429 470 CURVE SMOOTH"
);
},
{
closed = 1;
nodes = (
"66 214 OFFCURVE",
"78 202 OFFCURVE",
"92 202 CURVE SMOOTH",
"106 202 OFFCURVE",
"118 214 OFFCURVE",
"118 228 CURVE SMOOTH",
"118 242 OFFCURVE",
"106 254 OFFCURVE",
"92 254 CURVE SMOOTH",
"78 254 OFFCURVE",
"66 242 OFFCURVE",
"66 228 CURVE SMOOTH"
);
},
{
closed = 1;
nodes = (
"66 382 OFFCURVE",
"78 370 OFFCURVE",
"92 370 CURVE SMOOTH",
"106 370 OFFCURVE",
"118 382 OFFCURVE",
"118 396 CURVE SMOOTH",
"118 410 OFFCURVE",
"106 422 OFFCURVE",
"92 422 CURVE SMOOTH",
"78 422 OFFCURVE",
"66 410 OFFCURVE",
"66 396 CURVE SMOOTH"
);
},
{
closed = 1;
nodes = (
"476 214 OFFCURVE",
"488 202 OFFCURVE",
"502 202 CURVE SMOOTH",
"516 202 OFFCURVE",
"528 214 OFFCURVE",
"528 228 CURVE SMOOTH",
"528 242 OFFCURVE",
"516 254 OFFCURVE",
"502 254 CURVE SMOOTH",
"488 254 OFFCURVE",
"476 242 OFFCURVE",
"476 228 CURVE SMOOTH"
);
},
{
closed = 1;
nodes = (
"476 382 OFFCURVE",
"488 370 OFFCURVE",
"502 370 CURVE SMOOTH",
"516 370 OFFCURVE",
"528 382 OFFCURVE",
"528 396 CURVE SMOOTH",
"528 410 OFFCURVE",
"516 422 OFFCURVE",
"502 422 CURVE SMOOTH",
"488 422 OFFCURVE",
"476 410 OFFCURVE",
"476 396 CURVE SMOOTH"
);
}
);
width = 594;
},
{
layerId = "9FF96064-8718-4A86-A5C8-73C592101F67";
paths = (
{
closed = 1;
nodes = (
"199 519 OFFCURVE",
"187 507 OFFCURVE",
"187 493 CURVE SMOOTH",
"187 479 OFFCURVE",
"199 467 OFFCURVE",
"213 467 CURVE SMOOTH",
"227 467 OFFCURVE",
"239 479 OFFCURVE",
"239 493 CURVE SMOOTH",
"239 507 OFFCURVE",
"227 519 OFFCURVE",
"213 519 CURVE SMOOTH"
);
},
{
closed = 1;
nodes = (
"367 519 OFFCURVE",
"355 507 OFFCURVE",
"355 493 CURVE SMOOTH",
"355 479 OFFCURVE",
"367 467 OFFCURVE",
"381 467 CURVE SMOOTH",
"395 467 OFFCURVE",
"407 479 OFFCURVE",
"407 493 CURVE SMOOTH",
"407 507 OFFCURVE",
"395 519 OFFCURVE",
"381 519 CURVE SMOOTH"
);
},
{
closed = 1;
nodes = (
"199 109 OFFCURVE",
"187 97 OFFCURVE",
"187 83 CURVE SMOOTH",
"187 69 OFFCURVE",
"199 57 OFFCURVE",
"213 57 CURVE SMOOTH",
"227 57 OFFCURVE",
"239 69 OFFCURVE",
"239 83 CURVE SMOOTH",
"239 97 OFFCURVE",
"227 109 OFFCURVE",
"213 109 CURVE SMOOTH"
);
},
{
closed = 1;
nodes = (
"367 109 OFFCURVE",
"355 97 OFFCURVE",
"355 83 CURVE SMOOTH",
"355 69 OFFCURVE",
"367 57 OFFCURVE",
"381 57 CURVE SMOOTH",
"395 57 OFFCURVE",
"407 69 OFFCURVE",
"407 83 CURVE SMOOTH",
"407 97 OFFCURVE",
"395 109 OFFCURVE",
"381 109 CURVE SMOOTH"
);
},
{
closed = 1;
nodes = (
"283 537 OFFCURVE",
"271 525 OFFCURVE",
"271 511 CURVE SMOOTH",
"271 497 OFFCURVE",
"283 485 OFFCURVE",
"297 485 CURVE SMOOTH",
"311 485 OFFCURVE",
"323 497 OFFCURVE",
"323 511 CURVE SMOOTH",
"323 525 OFFCURVE",
"311 537 OFFCURVE",
"297 537 CURVE SMOOTH"
);
},
{
closed = 1;
nodes = (
"283 91 OFFCURVE",
"271 79 OFFCURVE",
"271 65 CURVE SMOOTH",
"271 51 OFFCURVE",
"283 39 OFFCURVE",
"297 39 CURVE SMOOTH",
"311 39 OFFCURVE",
"323 51 OFFCURVE",
"323 65 CURVE SMOOTH",
"323 79 OFFCURVE",
"311 91 OFFCURVE",
"297 91 CURVE SMOOTH"
);
},
{
closed = 1;
nodes = (
"48 274 OFFCURVE",
"60 262 OFFCURVE",
"74 262 CURVE SMOOTH",
"88 262 OFFCURVE",
"100 274 OFFCURVE",
"100 288 CURVE SMOOTH",
"100 302 OFFCURVE",
"88 314 OFFCURVE",
"74 314 CURVE SMOOTH",
"60 314 OFFCURVE",
"48 302 OFFCURVE",
"48 288 CURVE SMOOTH"
);
},
{
closed = 1;
nodes = (
"494 274 OFFCURVE",
"506 262 OFFCURVE",
"520 262 CURVE SMOOTH",
"534 262 OFFCURVE",
"546 274 OFFCURVE",
"546 288 CURVE SMOOTH",
"546 302 OFFCURVE",
"534 314 OFFCURVE",
"520 314 CURVE SMOOTH",
"506 314 OFFCURVE",
"494 302 OFFCURVE",
"494 288 CURVE SMOOTH"
);
},
{
closed = 1;
nodes = (
"113 116 OFFCURVE",
"125 104 OFFCURVE",
"139 104 CURVE SMOOTH",
"153 104 OFFCURVE",
"165 116 OFFCURVE",
"165 130 CURVE SMOOTH",
"165 144 OFFCURVE",
"153 156 OFFCURVE",
"139 156 CURVE SMOOTH",
"125 156 OFFCURVE",
"113 144 OFFCURVE",
"113 130 CURVE SMOOTH"
);
},
{
closed = 1;
nodes = (
"113 432 OFFCURVE",
"125 420 OFFCURVE",
"139 420 CURVE SMOOTH",
"153 420 OFFCURVE",
"165 432 OFFCURVE",
"165 446 CURVE SMOOTH",
"165 460 OFFCURVE",
"153 472 OFFCURVE",
"139 472 CURVE SMOOTH",
"125 472 OFFCURVE",
"113 460 OFFCURVE",
"113 446 CURVE SMOOTH"
);
},
{
closed = 1;
nodes = (
"429 116 OFFCURVE",
"441 104 OFFCURVE",
"455 104 CURVE SMOOTH",
"469 104 OFFCURVE",
"481 116 OFFCURVE",
"481 130 CURVE SMOOTH",
"481 144 OFFCURVE",
"469 156 OFFCURVE",
"455 156 CURVE SMOOTH",
"441 156 OFFCURVE",
"429 144 OFFCURVE",
"429 130 CURVE SMOOTH"
);
},
{
closed = 1;
nodes = (
"429 432 OFFCURVE",
"441 420 OFFCURVE",
"455 420 CURVE SMOOTH",
"469 420 OFFCURVE",
"481 432 OFFCURVE",
"481 446 CURVE SMOOTH",
"481 460 OFFCURVE",
"469 472 OFFCURVE",
"455 472 CURVE SMOOTH",
"441 472 OFFCURVE",
"429 460 OFFCURVE",
"429 446 CURVE SMOOTH"
);
},
{
closed = 1;
nodes = (
"66 190 OFFCURVE",
"78 178 OFFCURVE",
"92 178 CURVE SMOOTH",
"106 178 OFFCURVE",
"118 190 OFFCURVE",
"118 204 CURVE SMOOTH",
"118 218 OFFCURVE",
"106 230 OFFCURVE",
"92 230 CURVE SMOOTH",
"78 230 OFFCURVE",
"66 218 OFFCURVE",
"66 204 CURVE SMOOTH"
);
},
{
closed = 1;
nodes = (
"66 358 OFFCURVE",
"78 346 OFFCURVE",
"92 346 CURVE SMOOTH",
"106 346 OFFCURVE",
"118 358 OFFCURVE",
"118 372 CURVE SMOOTH",
"118 386 OFFCURVE",
"106 398 OFFCURVE",
"92 398 CURVE SMOOTH",
"78 398 OFFCURVE",
"66 386 OFFCURVE",
"66 372 CURVE SMOOTH"
);
},
{
closed = 1;
nodes = (
"476 190 OFFCURVE",
"488 178 OFFCURVE",
"502 178 CURVE SMOOTH",
"516 178 OFFCURVE",
"528 190 OFFCURVE",
"528 204 CURVE SMOOTH",
"528 218 OFFCURVE",
"516 230 OFFCURVE",
"502 230 CURVE SMOOTH",
"488 230 OFFCURVE",
"476 218 OFFCURVE",
"476 204 CURVE SMOOTH"
);
},
{
closed = 1;
nodes = (
"476 358 OFFCURVE",
"488 346 OFFCURVE",
"502 346 CURVE SMOOTH",
"516 346 OFFCURVE",
"528 358 OFFCURVE",
"528 372 CURVE SMOOTH",
"528 386 OFFCURVE",
"516 398 OFFCURVE",
"502 398 CURVE SMOOTH",
"488 398 OFFCURVE",
"476 386 OFFCURVE",
"476 372 CURVE SMOOTH"
);
}
);
width = 594;
},
{
layerId = "134B12F2-BF5D-48E3-8003-C7502B438C7E";
paths = (
{
closed = 1;
nodes = (
"199 533 OFFCURVE",
"187 521 OFFCURVE",
"187 507 CURVE SMOOTH",
"187 493 OFFCURVE",
"199 481 OFFCURVE",
"213 481 CURVE SMOOTH",
"227 481 OFFCURVE",
"239 493 OFFCURVE",
"239 507 CURVE SMOOTH",
"239 521 OFFCURVE",
"227 533 OFFCURVE",
"213 533 CURVE SMOOTH"
);
},
{
closed = 1;
nodes = (
"367 533 OFFCURVE",
"355 521 OFFCURVE",
"355 507 CURVE SMOOTH",
"355 493 OFFCURVE",
"367 481 OFFCURVE",
"381 481 CURVE SMOOTH",
"395 481 OFFCURVE",
"407 493 OFFCURVE",
"407 507 CURVE SMOOTH",
"407 521 OFFCURVE",
"395 533 OFFCURVE",
"381 533 CURVE SMOOTH"
);
},
{
closed = 1;
nodes = (
"199 123 OFFCURVE",
"187 111 OFFCURVE",
"187 97 CURVE SMOOTH",
"187 83 OFFCURVE",
"199 71 OFFCURVE",
"213 71 CURVE SMOOTH",
"227 71 OFFCURVE",
"239 83 OFFCURVE",
"239 97 CURVE SMOOTH",
"239 111 OFFCURVE",
"227 123 OFFCURVE",
"213 123 CURVE SMOOTH"
);
},
{
closed = 1;
nodes = (
"367 123 OFFCURVE",
"355 111 OFFCURVE",
"355 97 CURVE SMOOTH",
"355 83 OFFCURVE",
"367 71 OFFCURVE",
"381 71 CURVE SMOOTH",
"395 71 OFFCURVE",
"407 83 OFFCURVE",
"407 97 CURVE SMOOTH",
"407 111 OFFCURVE",
"395 123 OFFCURVE",
"381 123 CURVE SMOOTH"
);
},
{
closed = 1;
nodes = (
"283 551 OFFCURVE",
"271 539 OFFCURVE",
"271 525 CURVE SMOOTH",
"271 511 OFFCURVE",
"283 499 OFFCURVE",
"297 499 CURVE SMOOTH",
"311 499 OFFCURVE",
"323 511 OFFCURVE",
"323 525 CURVE SMOOTH",
"323 539 OFFCURVE",
"311 551 OFFCURVE",
"297 551 CURVE SMOOTH"
);
},
{
closed = 1;
nodes = (
"283 105 OFFCURVE",
"271 93 OFFCURVE",
"271 79 CURVE SMOOTH",
"271 65 OFFCURVE",
"283 53 OFFCURVE",
"297 53 CURVE SMOOTH",
"311 53 OFFCURVE",
"323 65 OFFCURVE",
"323 79 CURVE SMOOTH",
"323 93 OFFCURVE",
"311 105 OFFCURVE",
"297 105 CURVE SMOOTH"
);
},
{
closed = 1;
nodes = (
"48 288 OFFCURVE",
"60 276 OFFCURVE",
"74 276 CURVE SMOOTH",
"88 276 OFFCURVE",
"100 288 OFFCURVE",
"100 302 CURVE SMOOTH",
"100 316 OFFCURVE",
"88 328 OFFCURVE",
"74 328 CURVE SMOOTH",
"60 328 OFFCURVE",
"48 316 OFFCURVE",
"48 302 CURVE SMOOTH"
);
},
{
closed = 1;
nodes = (
"494 288 OFFCURVE",
"506 276 OFFCURVE",
"520 276 CURVE SMOOTH",
"534 276 OFFCURVE",
"546 288 OFFCURVE",
"546 302 CURVE SMOOTH",
"546 316 OFFCURVE",
"534 328 OFFCURVE",
"520 328 CURVE SMOOTH",
"506 328 OFFCURVE",
"494 316 OFFCURVE",
"494 302 CURVE SMOOTH"
);
},
{
closed = 1;
nodes = (
"113 130 OFFCURVE",
"125 118 OFFCURVE",
"139 118 CURVE SMOOTH",
"153 118 OFFCURVE",
"165 130 OFFCURVE",
"165 144 CURVE SMOOTH",
"165 158 OFFCURVE",
"153 170 OFFCURVE",
"139 170 CURVE SMOOTH",
"125 170 OFFCURVE",
"113 158 OFFCURVE",
"113 144 CURVE SMOOTH"
);
},
{
closed = 1;
nodes = (
"113 446 OFFCURVE",
"125 434 OFFCURVE",
"139 434 CURVE SMOOTH",
"153 434 OFFCURVE",
"165 446 OFFCURVE",
"165 460 CURVE SMOOTH",
"165 474 OFFCURVE",
"153 486 OFFCURVE",
"139 486 CURVE SMOOTH",
"125 486 OFFCURVE",
"113 474 OFFCURVE",
"113 460 CURVE SMOOTH"
);
},
{
closed = 1;
nodes = (
"429 130 OFFCURVE",
"441 118 OFFCURVE",
"455 118 CURVE SMOOTH",
"469 118 OFFCURVE",
"481 130 OFFCURVE",
"481 144 CURVE SMOOTH",
"481 158 OFFCURVE",
"469 170 OFFCURVE",
"455 170 CURVE SMOOTH",
"441 170 OFFCURVE",
"429 158 OFFCURVE",
"429 144 CURVE SMOOTH"
);
},
{
closed = 1;
nodes = (
"429 446 OFFCURVE",
"441 434 OFFCURVE",
"455 434 CURVE SMOOTH",
"469 434 OFFCURVE",
"481 446 OFFCURVE",
"481 460 CURVE SMOOTH",
"481 474 OFFCURVE",
"469 486 OFFCURVE",
"455 486 CURVE SMOOTH",
"441 486 OFFCURVE",
"429 474 OFFCURVE",
"429 460 CURVE SMOOTH"
);
},
{
closed = 1;
nodes = (
"66 204 OFFCURVE",
"78 192 OFFCURVE",
"92 192 CURVE SMOOTH",
"106 192 OFFCURVE",
"118 204 OFFCURVE",
"118 218 CURVE SMOOTH",
"118 232 OFFCURVE",
"106 244 OFFCURVE",
"92 244 CURVE SMOOTH",
"78 244 OFFCURVE",
"66 232 OFFCURVE",
"66 218 CURVE SMOOTH"
);
},
{
closed = 1;
nodes = (
"66 372 OFFCURVE",
"78 360 OFFCURVE",
"92 360 CURVE SMOOTH",
"106 360 OFFCURVE",
"118 372 OFFCURVE",
"118 386 CURVE SMOOTH",
"118 400 OFFCURVE",
"106 412 OFFCURVE",
"92 412 CURVE SMOOTH",
"78 412 OFFCURVE",
"66 400 OFFCURVE",
"66 386 CURVE SMOOTH"
);
},
{
closed = 1;
nodes = (
"476 204 OFFCURVE",
"488 192 OFFCURVE",
"502 192 CURVE SMOOTH",
"516 192 OFFCURVE",
"528 204 OFFCURVE",
"528 218 CURVE SMOOTH",
"528 232 OFFCURVE",
"516 244 OFFCURVE",
"502 244 CURVE SMOOTH",
"488 244 OFFCURVE",
"476 232 OFFCURVE",
"476 218 CURVE SMOOTH"
);
},
{
closed = 1;
nodes = (
"476 372 OFFCURVE",
"488 360 OFFCURVE",
"502 360 CURVE SMOOTH",
"516 360 OFFCURVE",
"528 372 OFFCURVE",
"528 386 CURVE SMOOTH",
"528 400 OFFCURVE",
"516 412 OFFCURVE",
"502 412 CURVE SMOOTH",
"488 412 OFFCURVE",
"476 400 OFFCURVE",
"476 386 CURVE SMOOTH"
);
}
);
width = 594;
},
{
layerId = "AB666A95-3AF9-4DE8-B258-097FFCFE8A59";
paths = (
{
closed = 1;
nodes = (
"199 504 OFFCURVE",
"187 492 OFFCURVE",
"187 478 CURVE SMOOTH",
"187 464 OFFCURVE",
"199 452 OFFCURVE",
"213 452 CURVE SMOOTH",
"227 452 OFFCURVE",
"239 464 OFFCURVE",
"239 478 CURVE SMOOTH",
"239 492 OFFCURVE",
"227 504 OFFCURVE",
"213 504 CURVE SMOOTH"
);
},
{
closed = 1;
nodes = (
"367 504 OFFCURVE",
"355 492 OFFCURVE",
"355 478 CURVE SMOOTH",
"355 464 OFFCURVE",
"367 452 OFFCURVE",
"381 452 CURVE SMOOTH",
"395 452 OFFCURVE",
"407 464 OFFCURVE",
"407 478 CURVE SMOOTH",
"407 492 OFFCURVE",
"395 504 OFFCURVE",
"381 504 CURVE SMOOTH"
);
},
{
closed = 1;
nodes = (
"199 94 OFFCURVE",
"187 82 OFFCURVE",
"187 68 CURVE SMOOTH",
"187 54 OFFCURVE",
"199 42 OFFCURVE",
"213 42 CURVE SMOOTH",
"227 42 OFFCURVE",
"239 54 OFFCURVE",
"239 68 CURVE SMOOTH",
"239 82 OFFCURVE",
"227 94 OFFCURVE",
"213 94 CURVE SMOOTH"
);
},
{
closed = 1;
nodes = (
"367 94 OFFCURVE",
"355 82 OFFCURVE",
"355 68 CURVE SMOOTH",
"355 54 OFFCURVE",
"367 42 OFFCURVE",
"381 42 CURVE SMOOTH",
"395 42 OFFCURVE",
"407 54 OFFCURVE",
"407 68 CURVE SMOOTH",
"407 82 OFFCURVE",
"395 94 OFFCURVE",
"381 94 CURVE SMOOTH"
);
},
{
closed = 1;
nodes = (
"283 522 OFFCURVE",
"271 510 OFFCURVE",
"271 496 CURVE SMOOTH",
"271 482 OFFCURVE",
"283 470 OFFCURVE",
"297 470 CURVE SMOOTH",
"311 470 OFFCURVE",
"323 482 OFFCURVE",
"323 496 CURVE SMOOTH",
"323 510 OFFCURVE",
"311 522 OFFCURVE",
"297 522 CURVE SMOOTH"
);
},
{
closed = 1;
nodes = (
"283 76 OFFCURVE",
"271 64 OFFCURVE",
"271 50 CURVE SMOOTH",
"271 36 OFFCURVE",
"283 24 OFFCURVE",
"297 24 CURVE SMOOTH",
"311 24 OFFCURVE",
"323 36 OFFCURVE",
"323 50 CURVE SMOOTH",
"323 64 OFFCURVE",
"311 76 OFFCURVE",
"297 76 CURVE SMOOTH"
);
},
{
closed = 1;
nodes = (
"48 259 OFFCURVE",
"60 247 OFFCURVE",
"74 247 CURVE SMOOTH",
"88 247 OFFCURVE",
"100 259 OFFCURVE",
"100 273 CURVE SMOOTH",
"100 287 OFFCURVE",
"88 299 OFFCURVE",
"74 299 CURVE SMOOTH",
"60 299 OFFCURVE",
"48 287 OFFCURVE",
"48 273 CURVE SMOOTH"
);
},
{
closed = 1;
nodes = (
"494 259 OFFCURVE",
"506 247 OFFCURVE",
"520 247 CURVE SMOOTH",
"534 247 OFFCURVE",
"546 259 OFFCURVE",
"546 273 CURVE SMOOTH",
"546 287 OFFCURVE",
"534 299 OFFCURVE",
"520 299 CURVE SMOOTH",
"506 299 OFFCURVE",
"494 287 OFFCURVE",
"494 273 CURVE SMOOTH"
);
},
{
closed = 1;
nodes = (
"113 101 OFFCURVE",
"125 89 OFFCURVE",
"139 89 CURVE SMOOTH",
"153 89 OFFCURVE",
"165 101 OFFCURVE",
"165 115 CURVE SMOOTH",
"165 129 OFFCURVE",
"153 141 OFFCURVE",
"139 141 CURVE SMOOTH",
"125 141 OFFCURVE",
"113 129 OFFCURVE",
"113 115 CURVE SMOOTH"
);
},
{
closed = 1;
nodes = (
"113 417 OFFCURVE",
"125 405 OFFCURVE",
"139 405 CURVE SMOOTH",
"153 405 OFFCURVE",
"165 417 OFFCURVE",
"165 431 CURVE SMOOTH",
"165 445 OFFCURVE",
"153 457 OFFCURVE",
"139 457 CURVE SMOOTH",
"125 457 OFFCURVE",
"113 445 OFFCURVE",
"113 431 CURVE SMOOTH"
);
},
{
closed = 1;
nodes = (
"429 101 OFFCURVE",
"441 89 OFFCURVE",
"455 89 CURVE SMOOTH",
"469 89 OFFCURVE",
"481 101 OFFCURVE",
"481 115 CURVE SMOOTH",
"481 129 OFFCURVE",
"469 141 OFFCURVE",
"455 141 CURVE SMOOTH",
"441 141 OFFCURVE",
"429 129 OFFCURVE",
"429 115 CURVE SMOOTH"
);
},
{
closed = 1;
nodes = (
"429 417 OFFCURVE",
"441 405 OFFCURVE",
"455 405 CURVE SMOOTH",
"469 405 OFFCURVE",
"481 417 OFFCURVE",
"481 431 CURVE SMOOTH",
"481 445 OFFCURVE",
"469 457 OFFCURVE",
"455 457 CURVE SMOOTH",
"441 457 OFFCURVE",
"429 445 OFFCURVE",
"429 431 CURVE SMOOTH"
);
},
{
closed = 1;
nodes = (
"66 175 OFFCURVE",
"78 163 OFFCURVE",
"92 163 CURVE SMOOTH",
"106 163 OFFCURVE",
"118 175 OFFCURVE",
"118 189 CURVE SMOOTH",
"118 203 OFFCURVE",
"106 215 OFFCURVE",
"92 215 CURVE SMOOTH",
"78 215 OFFCURVE",
"66 203 OFFCURVE",
"66 189 CURVE SMOOTH"
);
},
{
closed = 1;
nodes = (
"66 343 OFFCURVE",
"78 331 OFFCURVE",
"92 331 CURVE SMOOTH",
"106 331 OFFCURVE",
"118 343 OFFCURVE",
"118 357 CURVE SMOOTH",
"118 371 OFFCURVE",
"106 383 OFFCURVE",
"92 383 CURVE SMOOTH",
"78 383 OFFCURVE",
"66 371 OFFCURVE",
"66 357 CURVE SMOOTH"
);
},
{
closed = 1;
nodes = (
"476 175 OFFCURVE",
"488 163 OFFCURVE",
"502 163 CURVE SMOOTH",
"516 163 OFFCURVE",
"528 175 OFFCURVE",
"528 189 CURVE SMOOTH",
"528 203 OFFCURVE",
"516 215 OFFCURVE",
"502 215 CURVE SMOOTH",
"488 215 OFFCURVE",
"476 203 OFFCURVE",
"476 189 CURVE SMOOTH"
);
},
{
closed = 1;
nodes = (
"476 343 OFFCURVE",
"488 331 OFFCURVE",
"502 331 CURVE SMOOTH",
"516 331 OFFCURVE",
"528 343 OFFCURVE",
"528 357 CURVE SMOOTH",
"528 371 OFFCURVE",
"516 383 OFFCURVE",
"502 383 CURVE SMOOTH",
"488 383 OFFCURVE",
"476 371 OFFCURVE",
"476 357 CURVE SMOOTH"
);
}
);
width = 594;
}
);
unicode = 25CC;
category = Letter;
},
{
glyphname = uni200C;
lastChange = "2017-04-21 12:40:23 +0000";
layers = (
{
layerId = "0A718E2F-231D-484E-9433-16A5230D2CE8";
paths = (
{
closed = 1;
nodes = (
"-21 -133 LINE",
"21 -133 LINE",
"21 628 LINE",
"-21 628 LINE"
);
}
);
width = 0;
},
{
layerId = "9FF96064-8718-4A86-A5C8-73C592101F67";
paths = (
{
closed = 1;
nodes = (
"-21 -133 LINE",
"21 -133 LINE",
"21 628 LINE",
"-21 628 LINE"
);
}
);
width = 0;
},
{
layerId = "134B12F2-BF5D-48E3-8003-C7502B438C7E";
paths = (
{
closed = 1;
nodes = (
"-21 -133 LINE",
"21 -133 LINE",
"21 628 LINE",
"-21 628 LINE"
);
}
);
width = 0;
},
{
layerId = "AB666A95-3AF9-4DE8-B258-097FFCFE8A59";
paths = (
{
closed = 1;
nodes = (
"-21 -133 LINE",
"21 -133 LINE",
"21 628 LINE",
"-21 628 LINE"
);
}
);
width = 0;
}
);
unicode = 200C;
},
{
glyphname = uni200D;
lastChange = "2017-04-21 12:40:23 +0000";
layers = (
{
layerId = "0A718E2F-231D-484E-9433-16A5230D2CE8";
paths = (
{
closed = 1;
nodes = (
"-21 -133 LINE",
"21 -133 LINE",
"21 535 LINE",
"83 473 LINE",
"109 500 LINE",
"27 582 LINE",
"109 663 LINE",
"83 690 LINE",
"0 607 LINE",
"-83 690 LINE",
"-109 663 LINE",
"-27 582 LINE",
"-109 500 LINE",
"-83 473 LINE",
"-21 535 LINE"
);
}
);
width = 0;
},
{
layerId = "9FF96064-8718-4A86-A5C8-73C592101F67";
paths = (
{
closed = 1;
nodes = (
"-21 -133 LINE",
"21 -133 LINE",
"21 535 LINE",
"83 473 LINE",
"109 500 LINE",
"27 582 LINE",
"109 663 LINE",
"83 690 LINE",
"0 607 LINE",
"-83 690 LINE",
"-109 663 LINE",
"-27 582 LINE",
"-109 500 LINE",
"-83 473 LINE",
"-21 535 LINE"
);
}
);
width = 0;
},
{
layerId = "134B12F2-BF5D-48E3-8003-C7502B438C7E";
paths = (
{
closed = 1;
nodes = (
"-21 -133 LINE",
"21 -133 LINE",
"21 535 LINE",
"83 473 LINE",
"109 500 LINE",
"27 582 LINE",
"109 663 LINE",
"83 690 LINE",
"0 607 LINE",
"-83 690 LINE",
"-109 663 LINE",
"-27 582 LINE",
"-109 500 LINE",
"-83 473 LINE",
"-21 535 LINE"
);
}
);
width = 0;
},
{
layerId = "AB666A95-3AF9-4DE8-B258-097FFCFE8A59";
paths = (
{
closed = 1;
nodes = (
"-21 -133 LINE",
"21 -133 LINE",
"21 535 LINE",
"83 473 LINE",
"109 500 LINE",
"27 582 LINE",
"109 663 LINE",
"83 690 LINE",
"0 607 LINE",
"-83 690 LINE",
"-109 663 LINE",
"-27 582 LINE",
"-109 500 LINE",
"-83 473 LINE",
"-21 535 LINE"
);
}
);
width = 0;
}
);
unicode = 200D;
},
{
glyphname = zero_cham;
production = uniAA50;
lastChange = "2017-04-21 12:56:16 +0000";
layers = (
{
layerId = "9FF96064-8718-4A86-A5C8-73C592101F67";
paths = (
{
closed = 1;
nodes = (
"580 470 OFFCURVE",
"490 594 OFFCURVE",
"322 594 CURVE SMOOTH",
"155 594 OFFCURVE",
"55 480 OFFCURVE",
"55 288 CURVE SMOOTH",
"55 104 OFFCURVE",
"153 -18 OFFCURVE",
"317 -18 CURVE SMOOTH",
"490 -18 OFFCURVE",
"580 105 OFFCURVE",
"580 288 CURVE SMOOTH"
);
},
{
closed = 1;
nodes = (
"143 439 OFFCURVE",
"203 525 OFFCURVE",
"321 525 CURVE SMOOTH",
"445 525 OFFCURVE",
"492 428 OFFCURVE",
"492 288 CURVE SMOOTH",
"492 145 OFFCURVE",
"441 51 OFFCURVE",
"318 51 CURVE SMOOTH",
"198 51 OFFCURVE",
"143 144 OFFCURVE",
"143 288 CURVE SMOOTH"
);
}
);
width = 634;
},
{
layerId = "134B12F2-BF5D-48E3-8003-C7502B438C7E";
paths = (
{
closed = 1;
nodes = (
"635 507 OFFCURVE",
"520 630 OFFCURVE",
"343 630 CURVE SMOOTH",
"157 630 OFFCURVE",
"45 511 OFFCURVE",
"45 303 CURVE SMOOTH",
"45 97 OFFCURVE",
"164 -25 OFFCURVE",
"339 -25 CURVE SMOOTH",
"527 -25 OFFCURVE",
"635 98 OFFCURVE",
"635 303 CURVE SMOOTH"
);
},
{
closed = 1;
nodes = (
"194 441 OFFCURVE",
"240 516 OFFCURVE",
"341 516 CURVE SMOOTH",
"447 516 OFFCURVE",
"486 437 OFFCURVE",
"486 303 CURVE SMOOTH",
"486 168 OFFCURVE",
"446 89 OFFCURVE",
"341 89 CURVE SMOOTH",
"237 89 OFFCURVE",
"194 168 OFFCURVE",
"194 303 CURVE SMOOTH"
);
}
);
width = 680;
},
{
layerId = "0A718E2F-231D-484E-9433-16A5230D2CE8";
paths = (
{
closed = 1;
nodes = (
"674 531 OFFCURVE",
"542 653 OFFCURVE",
"360 653 CURVE SMOOTH",
"162 653 OFFCURVE",
"42 531 OFFCURVE",
"42 313 CURVE SMOOTH",
"42 93 OFFCURVE",
"174 -29 OFFCURVE",
"357 -29 CURVE SMOOTH",
"554 -29 OFFCURVE",
"674 93 OFFCURVE",
"674 313 CURVE SMOOTH"
);
},
{
closed = 1;
nodes = (
"230 443 OFFCURVE",
"267 511 OFFCURVE",
"358 511 CURVE SMOOTH",
"452 511 OFFCURVE",
"486 443 OFFCURVE",
"486 313 CURVE SMOOTH",
"486 183 OFFCURVE",
"452 113 OFFCURVE",
"359 113 CURVE SMOOTH",
"266 113 OFFCURVE",
"230 183 OFFCURVE",
"230 313 CURVE SMOOTH"
);
}
);
width = 717;
},
{
layerId = "AB666A95-3AF9-4DE8-B258-097FFCFE8A59";
paths = (
{
closed = 1;
nodes = (
"515 431 OFFCURVE",
"451 556 OFFCURVE",
"292 556 CURVE SMOOTH",
"145 556 OFFCURVE",
"59 447 OFFCURVE",
"59 273 CURVE SMOOTH",
"59 111 OFFCURVE",
"134 -10 OFFCURVE",
"286 -10 CURVE SMOOTH",
"443 -10 OFFCURVE",
"515 113 OFFCURVE",
"515 273 CURVE SMOOTH"
);
},
{
closed = 1;
nodes = (
"83 437 OFFCURVE",
"158 534 OFFCURVE",
"292 534 CURVE SMOOTH",
"435 534 OFFCURVE",
"491 418 OFFCURVE",
"491 273 CURVE SMOOTH",
"491 121 OFFCURVE",
"428 12 OFFCURVE",
"286 12 CURVE SMOOTH",
"149 12 OFFCURVE",
"83 119 OFFCURVE",
"83 273 CURVE SMOOTH"
);
}
);
width = 575;
}
);
note = uniAA50;
unicode = AA50;
script = cham;
category = Letter;
subCategory = Spacing;
},
{
glyphname = two_cham;
production = uniAA52;
lastChange = "2017-04-21 12:56:16 +0000";
layers = (
{
layerId = "9FF96064-8718-4A86-A5C8-73C592101F67";
paths = (
{
closed = 1;
nodes = (
"876 419 LINE SMOOTH",
"876 529 OFFCURVE",
"819 594 OFFCURVE",
"731 594 CURVE SMOOTH",
"688 594 OFFCURVE",
"661 580 OFFCURVE",
"633 557 CURVE SMOOTH",
"607 535 OFFCURVE",
"593 520 OFFCURVE",
"568 520 CURVE SMOOTH",
"544 520 OFFCURVE",
"529 536 OFFCURVE",
"503 557 CURVE SMOOTH",
"474 580 OFFCURVE",
"446 594 OFFCURVE",
"407 594 CURVE SMOOTH",
"315 594 OFFCURVE",
"263 519 OFFCURVE",
"263 409 CURVE SMOOTH",
"263 265 OFFCURVE",
"335 189 OFFCURVE",
"442 189 CURVE SMOOTH",
"501 189 OFFCURVE",
"548 228 OFFCURVE",
"548 284 CURVE SMOOTH",
"548 339 OFFCURVE",
"506 374 OFFCURVE",
"449 374 CURVE SMOOTH",
"385 374 OFFCURVE",
"341 324 OFFCURVE",
"332 245 CURVE",
"373 240 LINE",
"379 293 OFFCURVE",
"404 329 OFFCURVE",
"446 329 CURVE SMOOTH",
"475 329 OFFCURVE",
"497 313 OFFCURVE",
"497 282 CURVE SMOOTH",
"497 253 OFFCURVE",
"474 234 OFFCURVE",
"445 234 CURVE SMOOTH",
"384 234 OFFCURVE",
"345 278 OFFCURVE",
"345 392 CURVE SMOOTH",
"345 474 OFFCURVE",
"375 520 OFFCURVE",
"427 520 CURVE SMOOTH",
"456 520 OFFCURVE",
"473 503 OFFCURVE",
"497 483 CURVE SMOOTH",
"520 463 OFFCURVE",
"539 448 OFFCURVE",
"568 448 CURVE SMOOTH",
"597 448 OFFCURVE",
"615 461 OFFCURVE",
"639 483 CURVE SMOOTH",
"664 506 OFFCURVE",
"682 520 OFFCURVE",
"710 520 CURVE SMOOTH",
"762 520 OFFCURVE",
"791 483 OFFCURVE",
"791 411 CURVE SMOOTH",
"791 297 LINE SMOOTH",
"791 136 OFFCURVE",
"686 54 OFFCURVE",
"484 54 CURVE SMOOTH",
"289 54 OFFCURVE",
"165 123 OFFCURVE",
"165 276 CURVE SMOOTH",
"165 641 LINE SMOOTH",
"165 773 OFFCURVE",
"241 830 OFFCURVE",
"339 830 CURVE SMOOTH",
"440 830 OFFCURVE",
"507 765 OFFCURVE",
"612 765 CURVE SMOOTH",
"707 765 OFFCURVE",
"786 820 OFFCURVE",
"829 938 CURVE",
"757 968 LINE",
"722 875 OFFCURVE",
"669 843 OFFCURVE",
"603 843 CURVE SMOOTH",
"513 843 OFFCURVE",
"446 908 OFFCURVE",
"330 908 CURVE SMOOTH",
"185 908 OFFCURVE",
"80 816 OFFCURVE",
"80 647 CURVE SMOOTH",
"80 273 LINE SMOOTH",
"80 85 OFFCURVE",
"233 -17 OFFCURVE",
"483 -17 CURVE SMOOTH",
"736 -17 OFFCURVE",
"876 98 OFFCURVE",
"876 294 CURVE SMOOTH"
);
}
);
width = 956;
userData = {
RMXScaler = {
verticalShift = -124;
};
};
},
{
layerId = "134B12F2-BF5D-48E3-8003-C7502B438C7E";
paths = (
{
closed = 1;
nodes = (
"943 437 LINE SMOOTH",
"943 556 OFFCURVE",
"879 630 OFFCURVE",
"782 630 CURVE SMOOTH",
"733 630 OFFCURVE",
"710 617 OFFCURVE",
"681 595 CURVE SMOOTH",
"654 575 OFFCURVE",
"640 561 OFFCURVE",
"614 561 CURVE SMOOTH",
"589 561 OFFCURVE",
"573 575 OFFCURVE",
"546 595 CURVE SMOOTH",
"516 617 OFFCURVE",
"492 630 OFFCURVE",
"448 630 CURVE SMOOTH",
"344 630 OFFCURVE",
"290 543 OFFCURVE",
"290 425 CURVE SMOOTH",
"290 270 OFFCURVE",
"374 189 OFFCURVE",
"491 189 CURVE SMOOTH",
"564 189 OFFCURVE",
"618 237 OFFCURVE",
"618 304 CURVE SMOOTH",
"618 373 OFFCURVE",
"568 415 OFFCURVE",
"497 415 CURVE SMOOTH",
"419 415 OFFCURVE",
"363 353 OFFCURVE",
"353 261 CURVE",
"413 260 LINE",
"418 305 OFFCURVE",
"445 347 OFFCURVE",
"494 347 CURVE SMOOTH",
"518 347 OFFCURVE",
"541 334 OFFCURVE",
"541 300 CURVE SMOOTH",
"541 273 OFFCURVE",
"523 255 OFFCURVE",
"497 255 CURVE SMOOTH",
"455 255 OFFCURVE",
"427 286 OFFCURVE",
"427 393 CURVE SMOOTH",
"427 467 OFFCURVE",
"449 507 OFFCURVE",
"488 507 CURVE SMOOTH",
"508 507 OFFCURVE",
"523 495 OFFCURVE",
"544 479 CURVE SMOOTH",
"566 462 OFFCURVE",
"586 450 OFFCURVE",
"614 450 CURVE SMOOTH",
"642 450 OFFCURVE",
"662 461 OFFCURVE",
"684 479 CURVE SMOOTH",
"705 497 OFFCURVE",
"720 507 OFFCURVE",
"741 507 CURVE SMOOTH",
"782 507 OFFCURVE",
"801 479 OFFCURVE",
"801 421 CURVE SMOOTH",
"801 312 LINE SMOOTH",
"801 165 OFFCURVE",
"709 95 OFFCURVE",
"515 95 CURVE SMOOTH",
"334 95 OFFCURVE",
"213 152 OFFCURVE",
"213 285 CURVE SMOOTH",
"213 661 LINE SMOOTH",
"213 785 OFFCURVE",
"284 836 OFFCURVE",
"374 836 CURVE SMOOTH",
"472 836 OFFCURVE",
"536 773 OFFCURVE",
"649 773 CURVE SMOOTH",
"750 773 OFFCURVE",
"851 823 OFFCURVE",
"905 973 CURVE",
"784 1024 LINE",
"745 924 OFFCURVE",
"692 897 OFFCURVE",
"633 897 CURVE SMOOTH",
"545 897 OFFCURVE",
"483 960 OFFCURVE",
"356 960 CURVE SMOOTH",
"190 960 OFFCURVE",
"71 857 OFFCURVE",
"71 665 CURVE SMOOTH",
"71 282 LINE SMOOTH",
"71 88 OFFCURVE",
"240 -24 OFFCURVE",
"514 -24 CURVE SMOOTH",
"795 -24 OFFCURVE",
"943 101 OFFCURVE",
"943 308 CURVE SMOOTH"
);
}
);
width = 1014;
userData = {
RMXScaler = {
verticalShift = -98;
};
};
},
{
layerId = "0A718E2F-231D-484E-9433-16A5230D2CE8";
paths = (
{
closed = 1;
nodes = (
"986 448 LINE SMOOTH",
"986 573 OFFCURVE",
"917 653 OFFCURVE",
"815 653 CURVE SMOOTH",
"762 653 OFFCURVE",
"742 640 OFFCURVE",
"712 619 CURVE SMOOTH",
"684 600 OFFCURVE",
"670 588 OFFCURVE",
"643 588 CURVE SMOOTH",
"617 588 OFFCURVE",
"601 600 OFFCURVE",
"574 619 CURVE SMOOTH",
"543 641 OFFCURVE",
"521 653 OFFCURVE",
"474 653 CURVE SMOOTH",
"363 653 OFFCURVE",
"307 558 OFFCURVE",
"307 436 CURVE SMOOTH",
"307 274 OFFCURVE",
"399 189 OFFCURVE",
"522 189 CURVE SMOOTH",
"604 189 OFFCURVE",
"663 242 OFFCURVE",
"663 317 CURVE SMOOTH",
"663 394 OFFCURVE",
"607 442 OFFCURVE",
"528 442 CURVE SMOOTH",
"440 442 OFFCURVE",
"377 372 OFFCURVE",
"366 272 CURVE",
"438 272 LINE",
"443 312 OFFCURVE",
"471 359 OFFCURVE",
"524 359 CURVE SMOOTH",
"546 359 OFFCURVE",
"569 348 OFFCURVE",
"569 312 CURVE SMOOTH",
"569 286 OFFCURVE",
"554 269 OFFCURVE",
"530 269 CURVE SMOOTH",
"501 269 OFFCURVE",
"479 291 OFFCURVE",
"479 393 CURVE SMOOTH",
"479 463 OFFCURVE",
"496 498 OFFCURVE",
"527 498 CURVE SMOOTH",
"541 498 OFFCURVE",
"555 490 OFFCURVE",
"574 477 CURVE SMOOTH",
"596 462 OFFCURVE",
"616 451 OFFCURVE",
"644 451 CURVE SMOOTH",
"671 451 OFFCURVE",
"690 461 OFFCURVE",
"712 477 CURVE SMOOTH",
"731 491 OFFCURVE",
"745 498 OFFCURVE",
"761 498 CURVE SMOOTH",
"794 498 OFFCURVE",
"807 476 OFFCURVE",
"807 428 CURVE SMOOTH",
"807 321 LINE SMOOTH",
"807 184 OFFCURVE",
"724 122 OFFCURVE",
"535 122 CURVE SMOOTH",
"362 122 OFFCURVE",
"244 171 OFFCURVE",
"244 291 CURVE SMOOTH",
"244 673 LINE SMOOTH",
"244 792 OFFCURVE",
"312 840 OFFCURVE",
"396 840 CURVE SMOOTH",
"492 840 OFFCURVE",
"554 778 OFFCURVE",
"673 778 CURVE SMOOTH",
"777 778 OFFCURVE",
"893 825 OFFCURVE",
"953 996 CURVE",
"802 1060 LINE",
"759 956 OFFCURVE",
"707 931 OFFCURVE",
"652 931 CURVE SMOOTH",
"566 931 OFFCURVE",
"506 993 OFFCURVE",
"372 993 CURVE SMOOTH",
"194 993 OFFCURVE",
"65 884 OFFCURVE",
"65 677 CURVE SMOOTH",
"65 287 LINE SMOOTH",
"65 90 OFFCURVE",
"244 -29 OFFCURVE",
"533 -29 CURVE SMOOTH",
"832 -29 OFFCURVE",
"986 103 OFFCURVE",
"986 317 CURVE SMOOTH"
);
}
);
width = 1051;
userData = {
RMXScaler = {
verticalShift = -82;
};
};
},
{
layerId = "AB666A95-3AF9-4DE8-B258-097FFCFE8A59";
paths = (
{
closed = 1;
nodes = (
"805 401 LINE SMOOTH",
"805 500 OFFCURVE",
"757 556 OFFCURVE",
"678 556 CURVE SMOOTH",
"634 556 OFFCURVE",
"610 538 OFFCURVE",
"581 512 CURVE SMOOTH",
"558 491 OFFCURVE",
"543 477 OFFCURVE",
"520 477 CURVE SMOOTH",
"497 477 OFFCURVE",
"481 491 OFFCURVE",
"459 512 CURVE SMOOTH",
"430 539 OFFCURVE",
"406 556 OFFCURVE",
"363 556 CURVE SMOOTH",
"280 556 OFFCURVE",
"230 491 OFFCURVE",
"230 393 CURVE SMOOTH",
"230 257 OFFCURVE",
"290 190 OFFCURVE",
"386 190 CURVE SMOOTH",
"430 190 OFFCURVE",
"469 219 OFFCURVE",
"469 264 CURVE SMOOTH",
"469 304 OFFCURVE",
"437 332 OFFCURVE",
"393 332 CURVE SMOOTH",
"345 332 OFFCURVE",
"313 293 OFFCURVE",
"305 228 CURVE",
"326 220 LINE",
"333 281 OFFCURVE",
"356 311 OFFCURVE",
"392 311 CURVE SMOOTH",
"425 311 OFFCURVE",
"446 291 OFFCURVE",
"446 264 CURVE SMOOTH",
"446 232 OFFCURVE",
"418 212 OFFCURVE",
"386 212 CURVE SMOOTH",
"304 212 OFFCURVE",
"254 269 OFFCURVE",
"254 392 CURVE SMOOTH",
"254 479 OFFCURVE",
"295 534 OFFCURVE",
"364 534 CURVE SMOOTH",
"401 534 OFFCURVE",
"422 518 OFFCURVE",
"449 493 CURVE SMOOTH",
"473 471 OFFCURVE",
"489 455 OFFCURVE",
"520 455 CURVE SMOOTH",
"549 455 OFFCURVE",
"565 468 OFFCURVE",
"591 493 CURVE SMOOTH",
"620 521 OFFCURVE",
"643 534 OFFCURVE",
"677 534 CURVE SMOOTH",
"742 534 OFFCURVE",
"781 488 OFFCURVE",
"781 401 CURVE SMOOTH",
"781 288 LINE SMOOTH",
"781 114 OFFCURVE",
"661 12 OFFCURVE",
"462 12 CURVE SMOOTH",
"242 12 OFFCURVE",
"114 99 OFFCURVE",
"114 257 CURVE SMOOTH",
"114 630 LINE SMOOTH",
"114 767 OFFCURVE",
"181 832 OFFCURVE",
"292 832 CURVE SMOOTH",
"391 832 OFFCURVE",
"451 765 OFFCURVE",
"570 765 CURVE SMOOTH",
"644 765 OFFCURVE",
"710 817 OFFCURVE",
"741 901 CURVE",
"719 909 LINE",
"691 832 OFFCURVE",
"634 787 OFFCURVE",
"570 787 CURVE SMOOTH",
"461 787 OFFCURVE",
"401 854 OFFCURVE",
"292 854 CURVE SMOOTH",
"167 854 OFFCURVE",
"90 779 OFFCURVE",
"90 630 CURVE SMOOTH",
"90 257 LINE SMOOTH",
"90 88 OFFCURVE",
"227 -10 OFFCURVE",
"462 -10 CURVE SMOOTH",
"676 -10 OFFCURVE",
"805 103 OFFCURVE",
"805 288 CURVE SMOOTH"
);
}
);
width = 895;
userData = {
RMXScaler = {
verticalShift = -151;
};
};
}
);
leftMetricsKey = "=|pFinal_cham";
note = uniAA52;
rightMetricsKey = "=pFinal_cham";
unicode = AA52;
script = cham;
category = Letter;
subCategory = Spacing;
userData = {
RMXScaler = {
source = "two-cham";
};
};
},
{
glyphname = four_cham;
production = uniAA54;
lastChange = "2017-04-21 12:56:16 +0000";
layers = (
{
layerId = "9FF96064-8718-4A86-A5C8-73C592101F67";
paths = (
{
closed = 1;
nodes = (
"727 653 LINE",
"692 564 OFFCURVE",
"639 529 OFFCURVE",
"582 529 CURVE SMOOTH",
"482 529 OFFCURVE",
"422 594 OFFCURVE",
"312 594 CURVE SMOOTH",
"171 594 OFFCURVE",
"80 482 OFFCURVE",
"80 308 CURVE SMOOTH",
"80 107 OFFCURVE",
"175 -17 OFFCURVE",
"318 -17 CURVE SMOOTH",
"423 -17 OFFCURVE",
"488 47 OFFCURVE",
"488 141 CURVE SMOOTH",
"488 239 OFFCURVE",
"414 301 OFFCURVE",
"314 301 CURVE SMOOTH",
"237 301 OFFCURVE",
"174 265 OFFCURVE",
"130 203 CURVE",
"170 151 LINE",
"200 209 OFFCURVE",
"249 239 OFFCURVE",
"309 239 CURVE SMOOTH",
"369 239 OFFCURVE",
"412 206 OFFCURVE",
"412 140 CURVE SMOOTH",
"412 80 OFFCURVE",
"378 45 OFFCURVE",
"321 45 CURVE SMOOTH",
"222 45 OFFCURVE",
"166 139 OFFCURVE",
"166 310 CURVE SMOOTH",
"166 445 OFFCURVE",
"227 522 OFFCURVE",
"325 522 CURVE SMOOTH",
"417 522 OFFCURVE",
"479 457 OFFCURVE",
"593 457 CURVE SMOOTH",
"672 457 OFFCURVE",
"751 507 OFFCURVE",
"792 626 CURVE"
);
}
);
width = 841;
userData = {
RMXScaler = {
verticalShift = -124;
};
};
},
{
layerId = "134B12F2-BF5D-48E3-8003-C7502B438C7E";
paths = (
{
closed = 1;
nodes = (
"738 694 LINE",
"699 596 OFFCURVE",
"652 567 OFFCURVE",
"597 567 CURVE SMOOTH",
"506 567 OFFCURVE",
"443 630 OFFCURVE",
"329 630 CURVE SMOOTH",
"171 630 OFFCURVE",
"71 505 OFFCURVE",
"71 317 CURVE SMOOTH",
"71 101 OFFCURVE",
"179 -24 OFFCURVE",
"341 -24 CURVE SMOOTH",
"462 -24 OFFCURVE",
"534 48 OFFCURVE",
"534 149 CURVE SMOOTH",
"534 257 OFFCURVE",
"451 323 OFFCURVE",
"345 323 CURVE SMOOTH",
"263 323 OFFCURVE",
"197 283 OFFCURVE",
"151 215 CURVE",
"210 141 LINE",
"236 200 OFFCURVE",
"281 230 OFFCURVE",
"336 230 CURVE SMOOTH",
"380 230 OFFCURVE",
"419 207 OFFCURVE",
"419 147 CURVE SMOOTH",
"419 100 OFFCURVE",
"390 69 OFFCURVE",
"342 69 CURVE SMOOTH",
"261 69 OFFCURVE",
"215 157 OFFCURVE",
"215 325 CURVE SMOOTH",
"215 446 OFFCURVE",
"268 510 OFFCURVE",
"356 510 CURVE SMOOTH",
"439 510 OFFCURVE",
"506 447 OFFCURVE",
"619 447 CURVE SMOOTH",
"704 447 OFFCURVE",
"795 501 OFFCURVE",
"845 649 CURVE"
);
}
);
width = 884;
userData = {
RMXScaler = {
verticalShift = -98;
};
};
},
{
layerId = "0A718E2F-231D-484E-9433-16A5230D2CE8";
paths = (
{
closed = 1;
nodes = (
"745 720 LINE",
"704 616 OFFCURVE",
"660 592 OFFCURVE",
"606 592 CURVE SMOOTH",
"522 592 OFFCURVE",
"456 653 OFFCURVE",
"340 653 CURVE SMOOTH",
"171 653 OFFCURVE",
"65 519 OFFCURVE",
"65 322 CURVE SMOOTH",
"65 97 OFFCURVE",
"182 -29 OFFCURVE",
"355 -29 CURVE SMOOTH",
"487 -29 OFFCURVE",
"563 48 OFFCURVE",
"563 154 CURVE SMOOTH",
"563 268 OFFCURVE",
"475 337 OFFCURVE",
"365 337 CURVE SMOOTH",
"280 337 OFFCURVE",
"211 295 OFFCURVE",
"164 223 CURVE",
"235 134 LINE",
"259 195 OFFCURVE",
"301 225 OFFCURVE",
"354 225 CURVE SMOOTH",
"387 225 OFFCURVE",
"424 208 OFFCURVE",
"424 152 CURVE SMOOTH",
"424 112 OFFCURVE",
"398 85 OFFCURVE",
"356 85 CURVE SMOOTH",
"286 85 OFFCURVE",
"247 168 OFFCURVE",
"247 334 CURVE SMOOTH",
"247 446 OFFCURVE",
"295 502 OFFCURVE",
"376 502 CURVE SMOOTH",
"453 502 OFFCURVE",
"523 441 OFFCURVE",
"636 441 CURVE SMOOTH",
"724 441 OFFCURVE",
"823 497 OFFCURVE",
"879 664 CURVE"
);
}
);
width = 911;
userData = {
RMXScaler = {
verticalShift = -82;
};
};
},
{
layerId = "AB666A95-3AF9-4DE8-B258-097FFCFE8A59";
paths = (
{
closed = 1;
nodes = (
"715 611 LINE",
"684 531 OFFCURVE",
"626 489 OFFCURVE",
"567 489 CURVE SMOOTH",
"456 489 OFFCURVE",
"400 556 OFFCURVE",
"294 556 CURVE SMOOTH",
"170 556 OFFCURVE",
"90 457 OFFCURVE",
"90 294 CURVE SMOOTH",
"90 105 OFFCURVE",
"166 -10 OFFCURVE",
"291 -10 CURVE SMOOTH",
"376 -10 OFFCURVE",
"428 42 OFFCURVE",
"428 125 CURVE SMOOTH",
"428 215 OFFCURVE",
"368 272 OFFCURVE",
"272 272 CURVE SMOOTH",
"203 272 OFFCURVE",
"145 242 OFFCURVE",
"105 188 CURVE",
"120 172 LINE",
"157 223 OFFCURVE",
"210 251 OFFCURVE",
"272 251 CURVE SMOOTH",
"354 251 OFFCURVE",
"404 203 OFFCURVE",
"404 125 CURVE SMOOTH",
"404 54 OFFCURVE",
"361 12 OFFCURVE",
"291 12 CURVE SMOOTH",
"181 12 OFFCURVE",
"114 117 OFFCURVE",
"114 294 CURVE SMOOTH",
"114 444 OFFCURVE",
"184 534 OFFCURVE",
"293 534 CURVE SMOOTH",
"394 534 OFFCURVE",
"451 467 OFFCURVE",
"566 467 CURVE SMOOTH",
"639 467 OFFCURVE",
"705 514 OFFCURVE",
"737 602 CURVE"
);
}
);
width = 796;
userData = {
RMXScaler = {
verticalShift = -151;
};
};
}
);
leftKerningGroup = gFinal;
leftMetricsKey = "=gFinal_cham";
note = uniAA54;
unicode = AA54;
script = cham;
category = Letter;
subCategory = Spacing;
userData = {
RMXScaler = {
source = "four-cham";
};
};
},
{
glyphname = five_cham;
production = uniAA55;
lastChange = "2017-04-21 12:56:16 +0000";
layers = (
{
layerId = "9FF96064-8718-4A86-A5C8-73C592101F67";
paths = (
{
closed = 1;
nodes = (
"519 516 OFFCURVE",
"422 594 OFFCURVE",
"287 594 CURVE SMOOTH",
"148 594 OFFCURVE",
"54 512 OFFCURVE",
"54 388 CURVE SMOOTH",
"54 334 OFFCURVE",
"76 276 OFFCURVE",
"118 233 CURVE",
"184 277 LINE",
"157 304 OFFCURVE",
"138 346 OFFCURVE",
"138 390 CURVE SMOOTH",
"138 472 OFFCURVE",
"198 525 OFFCURVE",
"286 525 CURVE SMOOTH",
"378 525 OFFCURVE",
"434 470 OFFCURVE",
"434 388 CURVE SMOOTH",
"434 336 OFFCURVE",
"409 281 OFFCURVE",
"352 255 CURVE",
"352 220 LINE",
"408 196 OFFCURVE",
"438 158 OFFCURVE",
"438 112 CURVE SMOOTH",
"438 60 OFFCURVE",
"403 28 OFFCURVE",
"344 28 CURVE SMOOTH",
"288 28 OFFCURVE",
"264 42 OFFCURVE",
"264 64 CURVE SMOOTH",
"264 81 OFFCURVE",
"277 93 OFFCURVE",
"302 93 CURVE SMOOTH",
"334 93 OFFCURVE",
"351 74 OFFCURVE",
"351 41 CURVE SMOOTH",
"351 30 OFFCURVE",
"349 16 OFFCURVE",
"345 3 CURVE",
"393 11 LINE",
"395 21 OFFCURVE",
"396 32 OFFCURVE",
"396 40 CURVE SMOOTH",
"396 92 OFFCURVE",
"364 136 OFFCURVE",
"300 136 CURVE SMOOTH",
"248 136 OFFCURVE",
"214 107 OFFCURVE",
"214 66 CURVE SMOOTH",
"214 14 OFFCURVE",
"264 -18 OFFCURVE",
"344 -18 CURVE SMOOTH",
"453 -18 OFFCURVE",
"507 43 OFFCURVE",
"507 115 CURVE SMOOTH",
"507 167 OFFCURVE",
"478 220 OFFCURVE",
"399 251 CURVE",
"391 210 LINE",
"474 240 OFFCURVE",
"519 322 OFFCURVE",
"519 394 CURVE SMOOTH"
);
}
);
width = 588;
userData = {
RMXScaler = {
verticalShift = -124;
};
};
},
{
layerId = "134B12F2-BF5D-48E3-8003-C7502B438C7E";
paths = (
{
closed = 1;
nodes = (
"586 545 OFFCURVE",
"474 630 OFFCURVE",
"319 630 CURVE SMOOTH",
"159 630 OFFCURVE",
"51 539 OFFCURVE",
"51 401 CURVE SMOOTH",
"51 348 OFFCURVE",
"72 286 OFFCURVE",
"118 238 CURVE",
"231 309 LINE",
"208 333 OFFCURVE",
"192 367 OFFCURVE",
"192 404 CURVE SMOOTH",
"192 472 OFFCURVE",
"244 516 OFFCURVE",
"318 516 CURVE SMOOTH",
"398 516 OFFCURVE",
"442 466 OFFCURVE",
"442 401 CURVE SMOOTH",
"442 356 OFFCURVE",
"421 313 OFFCURVE",
"376 288 CURVE",
"376 231 LINE",
"433 209 OFFCURVE",
"466 173 OFFCURVE",
"466 126 CURVE SMOOTH",
"466 73 OFFCURVE",
"425 43 OFFCURVE",
"367 43 CURVE SMOOTH",
"296 43 OFFCURVE",
"273 58 OFFCURVE",
"273 80 CURVE SMOOTH",
"273 97 OFFCURVE",
"286 107 OFFCURVE",
"308 107 CURVE SMOOTH",
"340 107 OFFCURVE",
"359 86 OFFCURVE",
"359 51 CURVE SMOOTH",
"359 36 OFFCURVE",
"356 19 OFFCURVE",
"352 3 CURVE",
"423 13 LINE",
"425 25 OFFCURVE",
"426 39 OFFCURVE",
"426 48 CURVE SMOOTH",
"426 109 OFFCURVE",
"386 171 OFFCURVE",
"304 171 CURVE SMOOTH",
"243 171 OFFCURVE",
"197 135 OFFCURVE",
"197 84 CURVE SMOOTH",
"197 16 OFFCURVE",
"260 -25 OFFCURVE",
"367 -25 CURVE SMOOTH",
"512 -25 OFFCURVE",
"578 50 OFFCURVE",
"578 131 CURVE SMOOTH",
"578 187 OFFCURVE",
"548 251 OFFCURVE",
"447 283 CURVE",
"431 212 LINE",
"530 245 OFFCURVE",
"586 329 OFFCURVE",
"586 412 CURVE SMOOTH"
);
}
);
width = 647;
userData = {
RMXScaler = {
verticalShift = -98;
};
};
},
{
layerId = "AB666A95-3AF9-4DE8-B258-097FFCFE8A59";
paths = (
{
closed = 1;
nodes = (
"449 486 OFFCURVE",
"367 556 OFFCURVE",
"253 556 CURVE SMOOTH",
"137 556 OFFCURVE",
"57 483 OFFCURVE",
"57 375 CURVE SMOOTH",
"57 320 OFFCURVE",
"81 265 OFFCURVE",
"118 228 CURVE",
"135 243 LINE",
"103 274 OFFCURVE",
"81 324 OFFCURVE",
"81 375 CURVE SMOOTH",
"81 472 OFFCURVE",
"149 534 OFFCURVE",
"253 534 CURVE SMOOTH",
"356 534 OFFCURVE",
"425 475 OFFCURVE",
"425 374 CURVE SMOOTH",
"425 314 OFFCURVE",
"396 247 OFFCURVE",
"326 220 CURVE",
"326 208 LINE",
"382 182 OFFCURVE",
"409 142 OFFCURVE",
"409 98 CURVE SMOOTH",
"409 47 OFFCURVE",
"379 12 OFFCURVE",
"319 12 CURVE SMOOTH",
"280 12 OFFCURVE",
"254 25 OFFCURVE",
"254 47 CURVE SMOOTH",
"254 65 OFFCURVE",
"267 78 OFFCURVE",
"295 78 CURVE SMOOTH",
"327 78 OFFCURVE",
"343 61 OFFCURVE",
"343 31 CURVE SMOOTH",
"343 23 OFFCURVE",
"341 13 OFFCURVE",
"338 3 CURVE",
"361 8 LINE",
"363 16 OFFCURVE",
"364 24 OFFCURVE",
"364 32 CURVE SMOOTH",
"364 74 OFFCURVE",
"341 99 OFFCURVE",
"295 99 CURVE SMOOTH",
"254 99 OFFCURVE",
"231 77 OFFCURVE",
"231 47 CURVE SMOOTH",
"231 11 OFFCURVE",
"268 -10 OFFCURVE",
"319 -10 CURVE SMOOTH",
"392 -10 OFFCURVE",
"433 35 OFFCURVE",
"433 98 CURVE SMOOTH",
"433 145 OFFCURVE",
"404 187 OFFCURVE",
"348 218 CURVE",
"349 207 LINE",
"415 235 OFFCURVE",
"449 314 OFFCURVE",
"449 375 CURVE SMOOTH"
);
}
);
width = 526;
userData = {
RMXScaler = {
verticalShift = -151;
};
};
},
{
layerId = "0A718E2F-231D-484E-9433-16A5230D2CE8";
paths = (
{
closed = 1;
nodes = (
"629 563 OFFCURVE",
"508 653 OFFCURVE",
"340 653 CURVE SMOOTH",
"166 653 OFFCURVE",
"49 556 OFFCURVE",
"49 409 CURVE SMOOTH",
"49 357 OFFCURVE",
"70 293 OFFCURVE",
"118 241 CURVE",
"261 329 LINE",
"241 351 OFFCURVE",
"227 380 OFFCURVE",
"227 413 CURVE SMOOTH",
"227 472 OFFCURVE",
"273 511 OFFCURVE",
"338 511 CURVE SMOOTH",
"411 511 OFFCURVE",
"447 463 OFFCURVE",
"447 410 CURVE SMOOTH",
"447 368 OFFCURVE",
"428 334 OFFCURVE",
"392 309 CURVE",
"392 238 LINE",
"449 218 OFFCURVE",
"484 182 OFFCURVE",
"484 135 CURVE SMOOTH",
"484 81 OFFCURVE",
"439 53 OFFCURVE",
"381 53 CURVE SMOOTH",
"301 53 OFFCURVE",
"279 69 OFFCURVE",
"279 91 CURVE SMOOTH",
"279 107 OFFCURVE",
"292 116 OFFCURVE",
"312 116 CURVE SMOOTH",
"344 116 OFFCURVE",
"364 94 OFFCURVE",
"364 57 CURVE SMOOTH",
"364 40 OFFCURVE",
"361 21 OFFCURVE",
"356 3 CURVE",
"442 14 LINE",
"444 28 OFFCURVE",
"445 43 OFFCURVE",
"445 53 CURVE SMOOTH",
"445 120 OFFCURVE",
"400 193 OFFCURVE",
"307 193 CURVE SMOOTH",
"239 193 OFFCURVE",
"186 153 OFFCURVE",
"186 96 CURVE SMOOTH",
"186 18 OFFCURVE",
"258 -29 OFFCURVE",
"381 -29 CURVE SMOOTH",
"549 -29 OFFCURVE",
"623 54 OFFCURVE",
"623 142 CURVE SMOOTH",
"623 200 OFFCURVE",
"593 270 OFFCURVE",
"478 303 CURVE",
"456 213 LINE",
"566 248 OFFCURVE",
"629 334 OFFCURVE",
"629 423 CURVE SMOOTH"
);
}
);
width = 686;
userData = {
RMXScaler = {
verticalShift = -82;
};
};
}
);
leftKerningGroup = o;
leftMetricsKey = o_cham;
note = uniAA55;
rightKerningGroup = o;
rightMetricsKey = o_cham;
unicode = AA55;
script = cham;
category = Letter;
subCategory = Spacing;
userData = {
RMXScaler = {
source = "five-cham";
};
};
},
{
glyphname = seven_cham;
production = uniAA57;
lastChange = "2017-04-21 12:56:16 +0000";
layers = (
{
layerId = "9FF96064-8718-4A86-A5C8-73C592101F67";
paths = (
{
closed = 1;
nodes = (
"829 492 OFFCURVE",
"753 594 OFFCURVE",
"609 594 CURVE SMOOTH",
"494 594 OFFCURVE",
"415 526 OFFCURVE",
"415 424 CURVE SMOOTH",
"415 337 OFFCURVE",
"455 278 OFFCURVE",
"455 196 CURVE SMOOTH",
"455 100 OFFCURVE",
"395 48 OFFCURVE",
"292 48 CURVE SMOOTH",
"195 48 OFFCURVE",
"132 96 OFFCURVE",
"132 166 CURVE SMOOTH",
"132 216 OFFCURVE",
"164 251 OFFCURVE",
"217 251 CURVE SMOOTH",
"270 251 OFFCURVE",
"303 215 OFFCURVE",
"303 152 CURVE SMOOTH",
"303 116 OFFCURVE",
"290 71 OFFCURVE",
"276 43 CURVE",
"343 43 LINE",
"356 68 OFFCURVE",
"374 114 OFFCURVE",
"374 163 CURVE SMOOTH",
"374 258 OFFCURVE",
"308 317 OFFCURVE",
"214 317 CURVE SMOOTH",
"114 317 OFFCURVE",
"53 251 OFFCURVE",
"53 165 CURVE SMOOTH",
"53 57 OFFCURVE",
"151 -17 OFFCURVE",
"304 -17 CURVE SMOOTH",
"453 -17 OFFCURVE",
"540 65 OFFCURVE",
"540 191 CURVE SMOOTH",
"540 285 OFFCURVE",
"500 343 OFFCURVE",
"500 418 CURVE SMOOTH",
"500 482 OFFCURVE",
"542 525 OFFCURVE",
"611 525 CURVE SMOOTH",
"700 525 OFFCURVE",
"743 452 OFFCURVE",
"743 331 CURVE SMOOTH",
"743 169 OFFCURVE",
"696 95 OFFCURVE",
"574 21 CURVE SMOOTH",
"442 -59 OFFCURVE",
"410 -121 OFFCURVE",
"410 -184 CURVE SMOOTH",
"410 -251 OFFCURVE",
"464 -299 OFFCURVE",
"529 -299 CURVE SMOOTH",
"651 -299 OFFCURVE",
"669 -149 OFFCURVE",
"733 -149 CURVE SMOOTH",
"755 -149 OFFCURVE",
"768 -162 OFFCURVE",
"768 -183 CURVE SMOOTH",
"768 -195 OFFCURVE",
"763 -209 OFFCURVE",
"754 -222 CURVE",
"822 -253 LINE",
"840 -228 OFFCURVE",
"849 -195 OFFCURVE",
"849 -172 CURVE SMOOTH",
"849 -119 OFFCURVE",
"806 -76 OFFCURVE",
"748 -76 CURVE SMOOTH",
"626 -76 OFFCURVE",
"608 -224 OFFCURVE",
"540 -224 CURVE SMOOTH",
"511 -224 OFFCURVE",
"494 -203 OFFCURVE",
"494 -177 CURVE SMOOTH",
"494 -149 OFFCURVE",
"509 -98 OFFCURVE",
"629 -28 CURVE SMOOTH",
"784 62 OFFCURVE",
"829 167 OFFCURVE",
"829 333 CURVE SMOOTH"
);
}
);
width = 914;
userData = {
RMXScaler = {
verticalShift = -124;
};
};
},
{
layerId = "134B12F2-BF5D-48E3-8003-C7502B438C7E";
paths = (
{
closed = 1;
nodes = (
"917 519 OFFCURVE",
"831 630 OFFCURVE",
"658 630 CURVE SMOOTH",
"523 630 OFFCURVE",
"428 555 OFFCURVE",
"428 442 CURVE SMOOTH",
"428 354 OFFCURVE",
"470 293 OFFCURVE",
"470 213 CURVE SMOOTH",
"470 120 OFFCURVE",
"410 71 OFFCURVE",
"312 71 CURVE SMOOTH",
"219 71 OFFCURVE",
"162 117 OFFCURVE",
"162 179 CURVE SMOOTH",
"162 221 OFFCURVE",
"188 250 OFFCURVE",
"232 250 CURVE SMOOTH",
"276 250 OFFCURVE",
"303 218 OFFCURVE",
"303 164 CURVE SMOOTH",
"303 132 OFFCURVE",
"292 92 OFFCURVE",
"278 66 CURVE",
"374 66 LINE",
"387 89 OFFCURVE",
"406 133 OFFCURVE",
"406 183 CURVE SMOOTH",
"406 282 OFFCURVE",
"332 344 OFFCURVE",
"227 344 CURVE SMOOTH",
"113 344 OFFCURVE",
"46 271 OFFCURVE",
"46 177 CURVE SMOOTH",
"46 58 OFFCURVE",
"156 -24 OFFCURVE",
"336 -24 CURVE SMOOTH",
"509 -24 OFFCURVE",
"612 68 OFFCURVE",
"612 204 CURVE SMOOTH",
"612 301 OFFCURVE",
"572 361 OFFCURVE",
"572 430 CURVE SMOOTH",
"572 480 OFFCURVE",
"605 516 OFFCURVE",
"662 516 CURVE SMOOTH",
"740 516 OFFCURVE",
"772 453 OFFCURVE",
"772 339 CURVE SMOOTH",
"772 173 OFFCURVE",
"725 109 OFFCURVE",
"606 22 CURVE SMOOTH",
"484 -67 OFFCURVE",
"451 -129 OFFCURVE",
"451 -191 CURVE SMOOTH",
"451 -273 OFFCURVE",
"518 -328 OFFCURVE",
"595 -328 CURVE SMOOTH",
"724 -328 OFFCURVE",
"750 -190 OFFCURVE",
"802 -190 CURVE SMOOTH",
"820 -190 OFFCURVE",
"831 -200 OFFCURVE",
"831 -217 CURVE SMOOTH",
"831 -228 OFFCURVE",
"827 -240 OFFCURVE",
"819 -251 CURVE",
"920 -295 LINE",
"941 -265 OFFCURVE",
"950 -224 OFFCURVE",
"950 -199 CURVE SMOOTH",
"950 -135 OFFCURVE",
"897 -82 OFFCURVE",
"824 -82 CURVE SMOOTH",
"706 -82 OFFCURVE",
"663 -219 OFFCURVE",
"611 -219 CURVE SMOOTH",
"589 -219 OFFCURVE",
"575 -201 OFFCURVE",
"575 -180 CURVE SMOOTH",
"575 -153 OFFCURVE",
"593 -113 OFFCURVE",
"715 -29 CURVE SMOOTH",
"870 78 OFFCURVE",
"917 177 OFFCURVE",
"917 344 CURVE SMOOTH"
);
}
);
width = 980;
userData = {
RMXScaler = {
verticalShift = -98;
};
};
},
{
layerId = "0A718E2F-231D-484E-9433-16A5230D2CE8";
paths = (
{
closed = 1;
nodes = (
"973 537 OFFCURVE",
"881 653 OFFCURVE",
"690 653 CURVE SMOOTH",
"541 653 OFFCURVE",
"436 573 OFFCURVE",
"436 454 CURVE SMOOTH",
"436 365 OFFCURVE",
"480 302 OFFCURVE",
"480 224 CURVE SMOOTH",
"480 132 OFFCURVE",
"419 85 OFFCURVE",
"325 85 CURVE SMOOTH",
"235 85 OFFCURVE",
"181 130 OFFCURVE",
"181 187 CURVE SMOOTH",
"181 224 OFFCURVE",
"204 249 OFFCURVE",
"241 249 CURVE SMOOTH",
"280 249 OFFCURVE",
"303 220 OFFCURVE",
"303 171 CURVE SMOOTH",
"303 142 OFFCURVE",
"294 106 OFFCURVE",
"280 80 CURVE",
"393 80 LINE",
"407 102 OFFCURVE",
"426 145 OFFCURVE",
"426 196 CURVE SMOOTH",
"426 298 OFFCURVE",
"347 361 OFFCURVE",
"236 361 CURVE SMOOTH",
"112 361 OFFCURVE",
"42 284 OFFCURVE",
"42 184 CURVE SMOOTH",
"42 58 OFFCURVE",
"159 -29 OFFCURVE",
"357 -29 CURVE SMOOTH",
"545 -29 OFFCURVE",
"658 70 OFFCURVE",
"658 213 CURVE SMOOTH",
"658 312 OFFCURVE",
"618 373 OFFCURVE",
"618 438 CURVE SMOOTH",
"618 479 OFFCURVE",
"645 511 OFFCURVE",
"695 511 CURVE SMOOTH",
"766 511 OFFCURVE",
"791 453 OFFCURVE",
"791 344 CURVE SMOOTH",
"791 175 OFFCURVE",
"743 111 OFFCURVE",
"635 28 CURVE SMOOTH",
"512 -66 OFFCURVE",
"479 -131 OFFCURVE",
"479 -195 CURVE SMOOTH",
"479 -286 OFFCURVE",
"554 -346 OFFCURVE",
"638 -346 CURVE SMOOTH",
"772 -346 OFFCURVE",
"802 -215 OFFCURVE",
"847 -215 CURVE SMOOTH",
"863 -215 OFFCURVE",
"872 -223 OFFCURVE",
"872 -238 CURVE SMOOTH",
"872 -248 OFFCURVE",
"869 -258 OFFCURVE",
"862 -269 CURVE",
"983 -320 LINE",
"1007 -288 OFFCURVE",
"1015 -242 OFFCURVE",
"1015 -215 CURVE SMOOTH",
"1015 -144 OFFCURVE",
"957 -84 OFFCURVE",
"874 -84 CURVE SMOOTH",
"758 -84 OFFCURVE",
"700 -214 OFFCURVE",
"657 -214 CURVE SMOOTH",
"640 -214 OFFCURVE",
"627 -199 OFFCURVE",
"627 -181 CURVE SMOOTH",
"627 -152 OFFCURVE",
"645 -121 OFFCURVE",
"773 -33 CURVE SMOOTH",
"922 69 OFFCURVE",
"973 184 OFFCURVE",
"973 351 CURVE SMOOTH"
);
}
);
width = 1022;
userData = {
RMXScaler = {
verticalShift = -82;
};
};
},
{
layerId = "AB666A95-3AF9-4DE8-B258-097FFCFE8A59";
paths = (
{
closed = 1;
nodes = (
"733 463 OFFCURVE",
"668 556 OFFCURVE",
"554 556 CURVE SMOOTH",
"461 556 OFFCURVE",
"398 495 OFFCURVE",
"398 406 CURVE SMOOTH",
"398 319 OFFCURVE",
"437 263 OFFCURVE",
"437 178 CURVE SMOOTH",
"437 72 OFFCURVE",
"376 12 OFFCURVE",
"262 12 CURVE SMOOTH",
"157 12 OFFCURVE",
"84 64 OFFCURVE",
"84 147 CURVE SMOOTH",
"84 209 OFFCURVE",
"123 255 OFFCURVE",
"193 255 CURVE SMOOTH",
"257 255 OFFCURVE",
"300 210 OFFCURVE",
"300 134 CURVE SMOOTH",
"300 91 OFFCURVE",
"283 39 OFFCURVE",
"269 8 CURVE",
"293 8 LINE",
"306 37 OFFCURVE",
"324 85 OFFCURVE",
"324 134 CURVE SMOOTH",
"324 221 OFFCURVE",
"269 276 OFFCURVE",
"192 276 CURVE SMOOTH",
"111 276 OFFCURVE",
"60 220 OFFCURVE",
"60 147 CURVE SMOOTH",
"60 53 OFFCURVE",
"145 -10 OFFCURVE",
"261 -10 CURVE SMOOTH",
"388 -10 OFFCURVE",
"461 61 OFFCURVE",
"461 177 CURVE SMOOTH",
"461 268 OFFCURVE",
"422 324 OFFCURVE",
"422 405 CURVE SMOOTH",
"422 484 OFFCURVE",
"473 534 OFFCURVE",
"554 534 CURVE SMOOTH",
"655 534 OFFCURVE",
"709 451 OFFCURVE",
"709 322 CURVE SMOOTH",
"709 165 OFFCURVE",
"642 82 OFFCURVE",
"539 4 CURVE SMOOTH",
"427 -80 OFFCURVE",
"394 -123 OFFCURVE",
"394 -168 CURVE SMOOTH",
"394 -213 OFFCURVE",
"427 -248 OFFCURVE",
"479 -248 CURVE SMOOTH",
"586 -248 OFFCURVE",
"597 -82 OFFCURVE",
"676 -82 CURVE SMOOTH",
"701 -82 OFFCURVE",
"720 -100 OFFCURVE",
"720 -124 CURVE SMOOTH",
"720 -139 OFFCURVE",
"713 -157 OFFCURVE",
"702 -171 CURVE",
"720 -185 LINE",
"735 -166 OFFCURVE",
"744 -144 OFFCURVE",
"744 -124 CURVE SMOOTH",
"744 -87 OFFCURVE",
"714 -60 OFFCURVE",
"676 -60 CURVE SMOOTH",
"578 -60 OFFCURVE",
"567 -226 OFFCURVE",
"478 -226 CURVE SMOOTH",
"441 -226 OFFCURVE",
"418 -200 OFFCURVE",
"418 -167 CURVE SMOOTH",
"418 -129 OFFCURVE",
"445 -93 OFFCURVE",
"556 -10 CURVE SMOOTH",
"662 69 OFFCURVE",
"733 156 OFFCURVE",
"733 322 CURVE SMOOTH"
);
}
);
width = 841;
userData = {
RMXScaler = {
verticalShift = -151;
};
};
}
);
leftKerningGroup = ha;
leftMetricsKey = dha_cham;
note = uniAA57;
rightMetricsKey = nine_cham;
unicode = AA57;
script = cham;
category = Letter;
subCategory = Spacing;
userData = {
RMXScaler = {
source = "seven-cham";
};
};
},
{
glyphname = eight_cham;
production = uniAA58;
lastChange = "2017-04-21 12:56:16 +0000";
layers = (
{
layerId = "9FF96064-8718-4A86-A5C8-73C592101F67";
paths = (
{
closed = 1;
nodes = (
"938 510 OFFCURVE",
"863 594 OFFCURVE",
"742 594 CURVE SMOOTH",
"653 594 OFFCURVE",
"581 549 OFFCURVE",
"563 448 CURVE SMOOTH",
"544 344 OFFCURVE",
"506 330 OFFCURVE",
"396 312 CURVE SMOOTH",
"250 288 OFFCURVE",
"156 218 OFFCURVE",
"156 112 CURVE SMOOTH",
"156 31 OFFCURVE",
"208 -17 OFFCURVE",
"289 -17 CURVE SMOOTH",
"408 -17 OFFCURVE",
"487 103 OFFCURVE",
"487 286 CURVE SMOOTH",
"487 481 OFFCURVE",
"393 594 OFFCURVE",
"249 594 CURVE SMOOTH",
"132 594 OFFCURVE",
"61 527 OFFCURVE",
"61 435 CURVE SMOOTH",
"61 379 OFFCURVE",
"85 333 OFFCURVE",
"118 302 CURVE",
"174 347 LINE",
"156 367 OFFCURVE",
"143 395 OFFCURVE",
"143 429 CURVE SMOOTH",
"143 488 OFFCURVE",
"184 525 OFFCURVE",
"251 525 CURVE SMOOTH",
"344 525 OFFCURVE",
"403 442 OFFCURVE",
"403 290 CURVE SMOOTH",
"403 142 OFFCURVE",
"357 51 OFFCURVE",
"289 51 CURVE SMOOTH",
"256 51 OFFCURVE",
"239 78 OFFCURVE",
"239 115 CURVE SMOOTH",
"239 175 OFFCURVE",
"286 228 OFFCURVE",
"434 255 CURVE SMOOTH",
"569 280 OFFCURVE",
"615 307 OFFCURVE",
"634 418 CURVE SMOOTH",
"646 487 OFFCURVE",
"681 525 OFFCURVE",
"743 525 CURVE SMOOTH",
"811 525 OFFCURVE",
"852 472 OFFCURVE",
"852 362 CURVE SMOOTH",
"852 227 OFFCURVE",
"789 129 OFFCURVE",
"653 51 CURVE SMOOTH",
"484 -46 OFFCURVE",
"461 -124 OFFCURVE",
"461 -186 CURVE SMOOTH",
"461 -251 OFFCURVE",
"515 -299 OFFCURVE",
"580 -299 CURVE SMOOTH",
"702 -299 OFFCURVE",
"720 -149 OFFCURVE",
"784 -149 CURVE SMOOTH",
"806 -149 OFFCURVE",
"819 -162 OFFCURVE",
"819 -183 CURVE SMOOTH",
"819 -195 OFFCURVE",
"814 -209 OFFCURVE",
"805 -222 CURVE",
"873 -253 LINE",
"891 -228 OFFCURVE",
"900 -195 OFFCURVE",
"900 -172 CURVE SMOOTH",
"900 -119 OFFCURVE",
"857 -76 OFFCURVE",
"799 -76 CURVE SMOOTH",
"677 -76 OFFCURVE",
"659 -224 OFFCURVE",
"591 -224 CURVE SMOOTH",
"562 -224 OFFCURVE",
"545 -203 OFFCURVE",
"545 -178 CURVE SMOOTH",
"545 -135 OFFCURVE",
"582 -75 OFFCURVE",
"710 -2 CURVE SMOOTH",
"871 90 OFFCURVE",
"938 217 OFFCURVE",
"938 362 CURVE SMOOTH"
);
}
);
width = 1018;
userData = {
RMXScaler = {
verticalShift = -124;
};
};
},
{
layerId = "134B12F2-BF5D-48E3-8003-C7502B438C7E";
paths = (
{
closed = 1;
nodes = (
"1020 536 OFFCURVE",
"933 630 OFFCURVE",
"799 630 CURVE SMOOTH",
"696 630 OFFCURVE",
"613 585 OFFCURVE",
"590 468 CURVE SMOOTH",
"569 362 OFFCURVE",
"527 347 OFFCURVE",
"422 336 CURVE SMOOTH",
"263 319 OFFCURVE",
"151 248 OFFCURVE",
"151 131 CURVE SMOOTH",
"151 33 OFFCURVE",
"217 -24 OFFCURVE",
"314 -24 CURVE SMOOTH",
"449 -24 OFFCURVE",
"542 102 OFFCURVE",
"542 292 CURVE SMOOTH",
"542 507 OFFCURVE",
"436 630 OFFCURVE",
"272 630 CURVE SMOOTH",
"141 630 OFFCURVE",
"58 558 OFFCURVE",
"58 456 CURVE SMOOTH",
"58 389 OFFCURVE",
"89 337 OFFCURVE",
"130 306 CURVE",
"221 382 LINE",
"208 394 OFFCURVE",
"195 416 OFFCURVE",
"195 445 CURVE SMOOTH",
"195 492 OFFCURVE",
"230 516 OFFCURVE",
"275 516 CURVE SMOOTH",
"353 516 OFFCURVE",
"401 443 OFFCURVE",
"401 299 CURVE SMOOTH",
"401 165 OFFCURVE",
"364 86 OFFCURVE",
"316 86 CURVE SMOOTH",
"290 86 OFFCURVE",
"277 107 OFFCURVE",
"277 136 CURVE SMOOTH",
"277 182 OFFCURVE",
"315 228 OFFCURVE",
"482 255 CURVE SMOOTH",
"623 278 OFFCURVE",
"674 309 OFFCURVE",
"694 416 CURVE SMOOTH",
"706 482 OFFCURVE",
"733 516 OFFCURVE",
"789 516 CURVE SMOOTH",
"841 516 OFFCURVE",
"875 471 OFFCURVE",
"875 380 CURVE SMOOTH",
"875 247 OFFCURVE",
"827 161 OFFCURVE",
"682 72 CURVE SMOOTH",
"506 -36 OFFCURVE",
"477 -122 OFFCURVE",
"477 -190 CURVE SMOOTH",
"477 -272 OFFCURVE",
"544 -328 OFFCURVE",
"621 -328 CURVE SMOOTH",
"750 -328 OFFCURVE",
"775 -190 OFFCURVE",
"828 -190 CURVE SMOOTH",
"846 -190 OFFCURVE",
"857 -200 OFFCURVE",
"857 -217 CURVE SMOOTH",
"857 -228 OFFCURVE",
"853 -240 OFFCURVE",
"845 -251 CURVE",
"945 -295 LINE",
"967 -265 OFFCURVE",
"976 -224 OFFCURVE",
"976 -199 CURVE SMOOTH",
"976 -135 OFFCURVE",
"923 -82 OFFCURVE",
"850 -82 CURVE SMOOTH",
"732 -82 OFFCURVE",
"689 -219 OFFCURVE",
"637 -219 CURVE SMOOTH",
"615 -219 OFFCURVE",
"600 -201 OFFCURVE",
"600 -176 CURVE SMOOTH",
"600 -134 OFFCURVE",
"629 -92 OFFCURVE",
"770 -6 CURVE SMOOTH",
"932 93 OFFCURVE",
"1020 217 OFFCURVE",
"1020 379 CURVE SMOOTH"
);
}
);
width = 1091;
userData = {
RMXScaler = {
verticalShift = -98;
};
};
},
{
layerId = "0A718E2F-231D-484E-9433-16A5230D2CE8";
paths = (
{
closed = 1;
nodes = (
"1072 554 OFFCURVE",
"980 653 OFFCURVE",
"835 653 CURVE SMOOTH",
"723 653 OFFCURVE",
"636 607 OFFCURVE",
"610 488 CURVE SMOOTH",
"585 374 OFFCURVE",
"540 359 OFFCURVE",
"439 352 CURVE SMOOTH",
"271 340 OFFCURVE",
"147 267 OFFCURVE",
"147 143 CURVE SMOOTH",
"147 34 OFFCURVE",
"222 -29 OFFCURVE",
"330 -29 CURVE SMOOTH",
"475 -29 OFFCURVE",
"577 101 OFFCURVE",
"577 296 CURVE SMOOTH",
"577 524 OFFCURVE",
"463 653 OFFCURVE",
"286 653 CURVE SMOOTH",
"147 653 OFFCURVE",
"56 578 OFFCURVE",
"56 470 CURVE SMOOTH",
"56 395 OFFCURVE",
"91 339 OFFCURVE",
"137 309 CURVE",
"251 404 LINE",
"241 411 OFFCURVE",
"228 429 OFFCURVE",
"228 455 CURVE SMOOTH",
"228 494 OFFCURVE",
"259 511 OFFCURVE",
"290 511 CURVE SMOOTH",
"359 511 OFFCURVE",
"400 443 OFFCURVE",
"400 305 CURVE SMOOTH",
"400 179 OFFCURVE",
"369 109 OFFCURVE",
"333 109 CURVE SMOOTH",
"312 109 OFFCURVE",
"301 125 OFFCURVE",
"301 149 CURVE SMOOTH",
"301 187 OFFCURVE",
"333 228 OFFCURVE",
"512 255 CURVE SMOOTH",
"658 277 OFFCURVE",
"712 310 OFFCURVE",
"733 415 CURVE SMOOTH",
"746 479 OFFCURVE",
"767 511 OFFCURVE",
"817 511 CURVE SMOOTH",
"862 511 OFFCURVE",
"890 471 OFFCURVE",
"890 397 CURVE SMOOTH",
"890 238 OFFCURVE",
"850 159 OFFCURVE",
"702 69 CURVE SMOOTH",
"549 -24 OFFCURVE",
"514 -108 OFFCURVE",
"514 -190 CURVE SMOOTH",
"514 -282 OFFCURVE",
"589 -346 OFFCURVE",
"673 -346 CURVE SMOOTH",
"807 -346 OFFCURVE",
"837 -215 OFFCURVE",
"882 -215 CURVE SMOOTH",
"898 -215 OFFCURVE",
"907 -223 OFFCURVE",
"907 -238 CURVE SMOOTH",
"907 -248 OFFCURVE",
"904 -258 OFFCURVE",
"897 -269 CURVE",
"1018 -320 LINE",
"1042 -288 OFFCURVE",
"1050 -242 OFFCURVE",
"1050 -215 CURVE SMOOTH",
"1050 -144 OFFCURVE",
"992 -84 OFFCURVE",
"909 -84 CURVE SMOOTH",
"793 -84 OFFCURVE",
"735 -214 OFFCURVE",
"692 -214 CURVE SMOOTH",
"675 -214 OFFCURVE",
"662 -198 OFFCURVE",
"662 -175 CURVE SMOOTH",
"662 -131 OFFCURVE",
"708 -87 OFFCURVE",
"809 -27 CURVE SMOOTH",
"987 79 OFFCURVE",
"1072 196 OFFCURVE",
"1072 396 CURVE SMOOTH"
);
}
);
width = 1137;
userData = {
RMXScaler = {
verticalShift = -82;
};
};
},
{
layerId = "AB666A95-3AF9-4DE8-B258-097FFCFE8A59";
paths = (
{
closed = 1;
nodes = (
"852 479 OFFCURVE",
"787 556 OFFCURVE",
"686 556 CURVE SMOOTH",
"603 556 OFFCURVE",
"543 509 OFFCURVE",
"529 415 CURVE SMOOTH",
"514 316 OFFCURVE",
"485 304 OFFCURVE",
"367 274 CURVE SMOOTH",
"243 243 OFFCURVE",
"174 174 OFFCURVE",
"174 82 CURVE SMOOTH",
"174 26 OFFCURVE",
"206 -10 OFFCURVE",
"262 -10 CURVE SMOOTH",
"366 -10 OFFCURVE",
"430 104 OFFCURVE",
"430 280 CURVE SMOOTH",
"430 453 OFFCURVE",
"348 556 OFFCURVE",
"225 556 CURVE SMOOTH",
"122 556 OFFCURVE",
"64 495 OFFCURVE",
"64 412 CURVE SMOOTH",
"64 368 OFFCURVE",
"80 328 OFFCURVE",
"106 297 CURVE",
"124 311 LINE",
"102 338 OFFCURVE",
"88 373 OFFCURVE",
"88 412 CURVE SMOOTH",
"88 483 OFFCURVE",
"135 534 OFFCURVE",
"226 534 CURVE SMOOTH",
"334 534 OFFCURVE",
"406 441 OFFCURVE",
"406 280 CURVE SMOOTH",
"406 116 OFFCURVE",
"350 12 OFFCURVE",
"261 12 CURVE SMOOTH",
"221 12 OFFCURVE",
"198 43 OFFCURVE",
"198 83 CURVE SMOOTH",
"198 163 OFFCURVE",
"258 225 OFFCURVE",
"375 254 CURVE SMOOTH",
"499 285 OFFCURVE",
"537 304 OFFCURVE",
"552 411 CURVE SMOOTH",
"564 494 OFFCURVE",
"616 534 OFFCURVE",
"685 534 CURVE SMOOTH",
"776 534 OFFCURVE",
"828 469 OFFCURVE",
"828 365 CURVE SMOOTH",
"828 228 OFFCURVE",
"766 121 OFFCURVE",
"632 42 CURVE SMOOTH",
"476 -50 OFFCURVE",
"439 -120 OFFCURVE",
"439 -170 CURVE SMOOTH",
"439 -214 OFFCURVE",
"471 -248 OFFCURVE",
"523 -248 CURVE SMOOTH",
"630 -248 OFFCURVE",
"641 -82 OFFCURVE",
"720 -82 CURVE SMOOTH",
"745 -82 OFFCURVE",
"764 -100 OFFCURVE",
"764 -124 CURVE SMOOTH",
"764 -139 OFFCURVE",
"757 -157 OFFCURVE",
"746 -171 CURVE",
"764 -185 LINE",
"779 -166 OFFCURVE",
"788 -144 OFFCURVE",
"788 -124 CURVE SMOOTH",
"788 -87 OFFCURVE",
"758 -60 OFFCURVE",
"720 -60 CURVE SMOOTH",
"622 -60 OFFCURVE",
"611 -226 OFFCURVE",
"522 -226 CURVE SMOOTH",
"485 -226 OFFCURVE",
"463 -201 OFFCURVE",
"463 -170 CURVE SMOOTH",
"463 -131 OFFCURVE",
"490 -69 OFFCURVE",
"649 25 CURVE SMOOTH",
"789 108 OFFCURVE",
"852 221 OFFCURVE",
"852 365 CURVE SMOOTH"
);
}
);
width = 942;
userData = {
RMXScaler = {
verticalShift = -151;
};
};
}
);
leftKerningGroup = cha;
leftMetricsKey = cha_cham;
note = uniAA58;
rightMetricsKey = gFinal_cham;
unicode = AA58;
script = cham;
category = Letter;
subCategory = Spacing;
userData = {
RMXScaler = {
source = "eight-cham";
};
};
},
{
glyphname = nine_cham;
production = uniAA59;
lastChange = "2017-04-21 12:56:16 +0000";
layers = (
{
layerId = "9FF96064-8718-4A86-A5C8-73C592101F67";
paths = (
{
closed = 1;
nodes = (
"973 492 OFFCURVE",
"898 594 OFFCURVE",
"754 594 CURVE SMOOTH",
"641 594 OFFCURVE",
"565 526 OFFCURVE",
"565 422 CURVE SMOOTH",
"565 318 OFFCURVE",
"626 250 OFFCURVE",
"626 170 CURVE SMOOTH",
"626 100 OFFCURVE",
"580 51 OFFCURVE",
"501 51 CURVE SMOOTH",
"422 51 OFFCURVE",
"375 100 OFFCURVE",
"375 170 CURVE SMOOTH",
"375 250 OFFCURVE",
"438 318 OFFCURVE",
"438 422 CURVE SMOOTH",
"438 526 OFFCURVE",
"361 594 OFFCURVE",
"249 594 CURVE SMOOTH",
"131 594 OFFCURVE",
"53 525 OFFCURVE",
"53 418 CURVE SMOOTH",
"53 368 OFFCURVE",
"73 312 OFFCURVE",
"114 276 CURVE",
"176 325 LINE",
"154 348 OFFCURVE",
"137 384 OFFCURVE",
"137 420 CURVE SMOOTH",
"137 485 OFFCURVE",
"178 525 OFFCURVE",
"247 525 CURVE SMOOTH",
"313 525 OFFCURVE",
"352 483 OFFCURVE",
"352 415 CURVE SMOOTH",
"352 332 OFFCURVE",
"289 263 OFFCURVE",
"289 170 CURVE SMOOTH",
"289 59 OFFCURVE",
"371 -18 OFFCURVE",
"501 -18 CURVE SMOOTH",
"632 -18 OFFCURVE",
"711 61 OFFCURVE",
"711 170 CURVE SMOOTH",
"711 264 OFFCURVE",
"650 332 OFFCURVE",
"650 415 CURVE SMOOTH",
"650 483 OFFCURVE",
"689 525 OFFCURVE",
"756 525 CURVE SMOOTH",
"845 525 OFFCURVE",
"887 452 OFFCURVE",
"887 331 CURVE SMOOTH",
"887 169 OFFCURVE",
"841 95 OFFCURVE",
"718 21 CURVE SMOOTH",
"586 -58 OFFCURVE",
"554 -121 OFFCURVE",
"554 -184 CURVE SMOOTH",
"554 -251 OFFCURVE",
"608 -299 OFFCURVE",
"673 -299 CURVE SMOOTH",
"795 -299 OFFCURVE",
"813 -149 OFFCURVE",
"877 -149 CURVE SMOOTH",
"899 -149 OFFCURVE",
"912 -162 OFFCURVE",
"912 -183 CURVE SMOOTH",
"912 -195 OFFCURVE",
"907 -209 OFFCURVE",
"898 -222 CURVE",
"966 -253 LINE",
"984 -228 OFFCURVE",
"993 -195 OFFCURVE",
"993 -172 CURVE SMOOTH",
"993 -119 OFFCURVE",
"950 -76 OFFCURVE",
"892 -76 CURVE SMOOTH",
"770 -76 OFFCURVE",
"752 -224 OFFCURVE",
"684 -224 CURVE SMOOTH",
"655 -224 OFFCURVE",
"638 -203 OFFCURVE",
"638 -177 CURVE SMOOTH",
"638 -149 OFFCURVE",
"653 -98 OFFCURVE",
"773 -28 CURVE SMOOTH",
"928 62 OFFCURVE",
"973 167 OFFCURVE",
"973 333 CURVE SMOOTH"
);
}
);
width = 1058;
userData = {
RMXScaler = {
verticalShift = -124;
};
};
},
{
layerId = "134B12F2-BF5D-48E3-8003-C7502B438C7E";
paths = (
{
closed = 1;
nodes = (
"1073 519 OFFCURVE",
"988 630 OFFCURVE",
"815 630 CURVE SMOOTH",
"682 630 OFFCURVE",
"588 555 OFFCURVE",
"588 442 CURVE SMOOTH",
"588 330 OFFCURVE",
"647 259 OFFCURVE",
"647 185 CURVE SMOOTH",
"647 127 OFFCURVE",
"612 89 OFFCURVE",
"546 89 CURVE SMOOTH",
"481 89 OFFCURVE",
"445 127 OFFCURVE",
"445 185 CURVE SMOOTH",
"445 259 OFFCURVE",
"507 330 OFFCURVE",
"507 442 CURVE SMOOTH",
"507 555 OFFCURVE",
"413 630 OFFCURVE",
"280 630 CURVE SMOOTH",
"141 630 OFFCURVE",
"46 549 OFFCURVE",
"46 428 CURVE SMOOTH",
"46 373 OFFCURVE",
"68 309 OFFCURVE",
"118 270 CURVE",
"223 350 LINE",
"205 368 OFFCURVE",
"188 400 OFFCURVE",
"188 432 CURVE SMOOTH",
"188 483 OFFCURVE",
"221 516 OFFCURVE",
"276 516 CURVE SMOOTH",
"331 516 OFFCURVE",
"362 481 OFFCURVE",
"362 429 CURVE SMOOTH",
"362 352 OFFCURVE",
"300 279 OFFCURVE",
"300 181 CURVE SMOOTH",
"300 59 OFFCURVE",
"394 -25 OFFCURVE",
"546 -25 CURVE SMOOTH",
"702 -25 OFFCURVE",
"791 62 OFFCURVE",
"791 182 CURVE SMOOTH",
"791 282 OFFCURVE",
"732 352 OFFCURVE",
"732 429 CURVE SMOOTH",
"732 481 OFFCURVE",
"764 516 OFFCURVE",
"819 516 CURVE SMOOTH",
"897 516 OFFCURVE",
"928 453 OFFCURVE",
"928 339 CURVE SMOOTH",
"928 173 OFFCURVE",
"881 109 OFFCURVE",
"762 22 CURVE SMOOTH",
"640 -67 OFFCURVE",
"607 -129 OFFCURVE",
"607 -191 CURVE SMOOTH",
"607 -273 OFFCURVE",
"674 -328 OFFCURVE",
"751 -328 CURVE SMOOTH",
"880 -328 OFFCURVE",
"906 -190 OFFCURVE",
"958 -190 CURVE SMOOTH",
"976 -190 OFFCURVE",
"987 -200 OFFCURVE",
"987 -217 CURVE SMOOTH",
"987 -228 OFFCURVE",
"983 -240 OFFCURVE",
"975 -251 CURVE",
"1076 -295 LINE",
"1097 -265 OFFCURVE",
"1106 -224 OFFCURVE",
"1106 -199 CURVE SMOOTH",
"1106 -135 OFFCURVE",
"1053 -82 OFFCURVE",
"980 -82 CURVE SMOOTH",
"862 -82 OFFCURVE",
"819 -219 OFFCURVE",
"767 -219 CURVE SMOOTH",
"745 -219 OFFCURVE",
"731 -201 OFFCURVE",
"731 -180 CURVE SMOOTH",
"731 -153 OFFCURVE",
"749 -113 OFFCURVE",
"871 -29 CURVE SMOOTH",
"1026 78 OFFCURVE",
"1073 177 OFFCURVE",
"1073 344 CURVE SMOOTH"
);
}
);
width = 1136;
userData = {
RMXScaler = {
verticalShift = -98;
};
};
},
{
layerId = "0A718E2F-231D-484E-9433-16A5230D2CE8";
paths = (
{
closed = 1;
nodes = (
"1137 537 OFFCURVE",
"1045 653 OFFCURVE",
"854 653 CURVE SMOOTH",
"708 653 OFFCURVE",
"603 573 OFFCURVE",
"603 455 CURVE SMOOTH",
"603 338 OFFCURVE",
"660 265 OFFCURVE",
"660 195 CURVE SMOOTH",
"660 145 OFFCURVE",
"633 113 OFFCURVE",
"575 113 CURVE SMOOTH",
"519 113 OFFCURVE",
"489 145 OFFCURVE",
"489 195 CURVE SMOOTH",
"489 265 OFFCURVE",
"551 338 OFFCURVE",
"551 455 CURVE SMOOTH",
"551 573 OFFCURVE",
"446 653 OFFCURVE",
"300 653 CURVE SMOOTH",
"147 653 OFFCURVE",
"42 564 OFFCURVE",
"42 434 CURVE SMOOTH",
"42 377 OFFCURVE",
"64 307 OFFCURVE",
"120 266 CURVE",
"253 366 LINE",
"237 380 OFFCURVE",
"220 410 OFFCURVE",
"220 440 CURVE SMOOTH",
"220 481 OFFCURVE",
"249 511 OFFCURVE",
"295 511 CURVE SMOOTH",
"342 511 OFFCURVE",
"369 479 OFFCURVE",
"369 438 CURVE SMOOTH",
"369 364 OFFCURVE",
"307 289 OFFCURVE",
"307 188 CURVE SMOOTH",
"307 59 OFFCURVE",
"408 -29 OFFCURVE",
"575 -29 CURVE SMOOTH",
"747 -29 OFFCURVE",
"842 63 OFFCURVE",
"842 189 CURVE SMOOTH",
"842 293 OFFCURVE",
"785 364 OFFCURVE",
"785 438 CURVE SMOOTH",
"785 479 OFFCURVE",
"812 511 OFFCURVE",
"859 511 CURVE SMOOTH",
"930 511 OFFCURVE",
"955 453 OFFCURVE",
"955 344 CURVE SMOOTH",
"955 175 OFFCURVE",
"907 111 OFFCURVE",
"799 28 CURVE SMOOTH",
"676 -66 OFFCURVE",
"643 -131 OFFCURVE",
"643 -195 CURVE SMOOTH",
"643 -286 OFFCURVE",
"718 -346 OFFCURVE",
"802 -346 CURVE SMOOTH",
"936 -346 OFFCURVE",
"966 -215 OFFCURVE",
"1011 -215 CURVE SMOOTH",
"1027 -215 OFFCURVE",
"1036 -223 OFFCURVE",
"1036 -238 CURVE SMOOTH",
"1036 -248 OFFCURVE",
"1033 -258 OFFCURVE",
"1026 -269 CURVE",
"1147 -320 LINE",
"1171 -288 OFFCURVE",
"1179 -242 OFFCURVE",
"1179 -215 CURVE SMOOTH",
"1179 -144 OFFCURVE",
"1121 -84 OFFCURVE",
"1038 -84 CURVE SMOOTH",
"922 -84 OFFCURVE",
"864 -214 OFFCURVE",
"821 -214 CURVE SMOOTH",
"804 -214 OFFCURVE",
"791 -199 OFFCURVE",
"791 -181 CURVE SMOOTH",
"791 -152 OFFCURVE",
"809 -121 OFFCURVE",
"937 -33 CURVE SMOOTH",
"1086 69 OFFCURVE",
"1137 184 OFFCURVE",
"1137 351 CURVE SMOOTH"
);
}
);
width = 1186;
userData = {
RMXScaler = {
verticalShift = -82;
};
};
},
{
layerId = "AB666A95-3AF9-4DE8-B258-097FFCFE8A59";
paths = (
{
closed = 1;
nodes = (
"869 463 OFFCURVE",
"804 556 OFFCURVE",
"690 556 CURVE SMOOTH",
"599 556 OFFCURVE",
"540 496 OFFCURVE",
"540 400 CURVE SMOOTH",
"540 305 OFFCURVE",
"604 240 OFFCURVE",
"604 155 CURVE SMOOTH",
"604 71 OFFCURVE",
"546 12 OFFCURVE",
"453 12 CURVE SMOOTH",
"360 12 OFFCURVE",
"302 71 OFFCURVE",
"302 155 CURVE SMOOTH",
"302 240 OFFCURVE",
"366 305 OFFCURVE",
"366 400 CURVE SMOOTH",
"366 496 OFFCURVE",
"307 556 OFFCURVE",
"216 556 CURVE SMOOTH",
"121 556 OFFCURVE",
"60 499 OFFCURVE",
"60 407 CURVE SMOOTH",
"60 362 OFFCURVE",
"79 316 OFFCURVE",
"109 283 CURVE",
"126 298 LINE",
"101 326 OFFCURVE",
"84 367 OFFCURVE",
"84 407 CURVE SMOOTH",
"84 488 OFFCURVE",
"133 534 OFFCURVE",
"216 534 CURVE SMOOTH",
"295 534 OFFCURVE",
"342 485 OFFCURVE",
"342 400 CURVE SMOOTH",
"342 312 OFFCURVE",
"278 246 OFFCURVE",
"278 158 CURVE SMOOTH",
"278 59 OFFCURVE",
"347 -10 OFFCURVE",
"453 -10 CURVE SMOOTH",
"559 -10 OFFCURVE",
"628 59 OFFCURVE",
"628 158 CURVE SMOOTH",
"628 246 OFFCURVE",
"564 312 OFFCURVE",
"564 400 CURVE SMOOTH",
"564 485 OFFCURVE",
"611 534 OFFCURVE",
"690 534 CURVE SMOOTH",
"791 534 OFFCURVE",
"845 451 OFFCURVE",
"845 322 CURVE SMOOTH",
"845 165 OFFCURVE",
"778 82 OFFCURVE",
"675 4 CURVE SMOOTH",
"563 -81 OFFCURVE",
"530 -123 OFFCURVE",
"530 -168 CURVE SMOOTH",
"530 -213 OFFCURVE",
"563 -248 OFFCURVE",
"615 -248 CURVE SMOOTH",
"722 -248 OFFCURVE",
"733 -82 OFFCURVE",
"812 -82 CURVE SMOOTH",
"837 -82 OFFCURVE",
"856 -100 OFFCURVE",
"856 -124 CURVE SMOOTH",
"856 -139 OFFCURVE",
"849 -157 OFFCURVE",
"838 -171 CURVE",
"856 -185 LINE",
"871 -166 OFFCURVE",
"880 -144 OFFCURVE",
"880 -124 CURVE SMOOTH",
"880 -87 OFFCURVE",
"850 -60 OFFCURVE",
"812 -60 CURVE SMOOTH",
"714 -60 OFFCURVE",
"703 -226 OFFCURVE",
"614 -226 CURVE SMOOTH",
"577 -226 OFFCURVE",
"554 -200 OFFCURVE",
"554 -167 CURVE SMOOTH",
"554 -129 OFFCURVE",
"581 -93 OFFCURVE",
"692 -10 CURVE SMOOTH",
"797 69 OFFCURVE",
"869 156 OFFCURVE",
"869 322 CURVE SMOOTH"
);
}
);
width = 977;
userData = {
RMXScaler = {
verticalShift = -151;
};
};
}
);
leftKerningGroup = dha;
leftMetricsKey = dha_cham;
note = uniAA59;
unicode = AA59;
script = cham;
category = Letter;
subCategory = Spacing;
userData = {
RMXScaler = {
source = "nine-cham";
};
};
},
{
glyphname = ka_cham;
production = uniAA06;
lastChange = "2017-04-21 12:56:16 +0000";
layers = (
{
layerId = "9FF96064-8718-4A86-A5C8-73C592101F67";
paths = (
{
closed = 1;
nodes = (
"802 523 OFFCURVE",
"729 594 OFFCURVE",
"620 594 CURVE SMOOTH",
"507 594 OFFCURVE",
"427 518 OFFCURVE",
"427 390 CURVE",
"481 390 LINE",
"481 518 OFFCURVE",
"400 594 OFFCURVE",
"289 594 CURVE SMOOTH",
"182 594 OFFCURVE",
"108 524 OFFCURVE",
"108 424 CURVE SMOOTH",
"108 330 OFFCURVE",
"170 255 OFFCURVE",
"170 173 CURVE SMOOTH",
"170 93 OFFCURVE",
"123 42 OFFCURVE",
"48 27 CURVE",
"64 -45 LINE",
"183 -25 OFFCURVE",
"255 56 OFFCURVE",
"255 168 CURVE SMOOTH",
"255 267 OFFCURVE",
"193 344 OFFCURVE",
"193 420 CURVE SMOOTH",
"193 483 OFFCURVE",
"235 525 OFFCURVE",
"302 525 CURVE SMOOTH",
"371 525 OFFCURVE",
"420 477 OFFCURVE",
"417 379 CURVE",
"491 379 LINE",
"489 478 OFFCURVE",
"541 525 OFFCURVE",
"609 525 CURVE SMOOTH",
"677 525 OFFCURVE",
"718 484 OFFCURVE",
"718 418 CURVE SMOOTH",
"718 380 OFFCURVE",
"705 347 OFFCURVE",
"680 320 CURVE",
"743 274 LINE",
"785 318 OFFCURVE",
"802 363 OFFCURVE",
"802 417 CURVE SMOOTH"
);
}
);
width = 855;
},
{
layerId = "134B12F2-BF5D-48E3-8003-C7502B438C7E";
paths = (
{
closed = 1;
nodes = (
"869 550 OFFCURVE",
"785 630 OFFCURVE",
"662 630 CURVE SMOOTH",
"533 630 OFFCURVE",
"445 544 OFFCURVE",
"445 405 CURVE",
"532 405 LINE",
"532 544 OFFCURVE",
"440 630 OFFCURVE",
"312 630 CURVE SMOOTH",
"191 630 OFFCURVE",
"108 551 OFFCURVE",
"108 442 CURVE SMOOTH",
"108 344 OFFCURVE",
"170 265 OFFCURVE",
"170 194 CURVE SMOOTH",
"170 121 OFFCURVE",
"121 79 OFFCURVE",
"45 63 CURVE",
"71 -56 LINE",
"223 -32 OFFCURVE",
"314 58 OFFCURVE",
"314 184 CURVE SMOOTH",
"314 284 OFFCURVE",
"252 365 OFFCURVE",
"252 434 CURVE SMOOTH",
"252 482 OFFCURVE",
"284 516 OFFCURVE",
"337 516 CURVE SMOOTH",
"394 516 OFFCURVE",
"432 476 OFFCURVE",
"427 386 CURVE",
"550 386 LINE",
"545 478 OFFCURVE",
"587 516 OFFCURVE",
"643 516 CURVE SMOOTH",
"695 516 OFFCURVE",
"728 484 OFFCURVE",
"728 433 CURVE SMOOTH",
"728 400 OFFCURVE",
"716 373 OFFCURVE",
"692 349 CURVE",
"799 273 LINE",
"850 325 OFFCURVE",
"869 373 OFFCURVE",
"869 432 CURVE SMOOTH"
);
}
);
width = 915;
},
{
layerId = "0A718E2F-231D-484E-9433-16A5230D2CE8";
paths = (
{
closed = 1;
nodes = (
"912 567 OFFCURVE",
"821 653 OFFCURVE",
"689 653 CURVE SMOOTH",
"550 653 OFFCURVE",
"457 560 OFFCURVE",
"457 414 CURVE",
"564 414 LINE",
"564 560 OFFCURVE",
"466 653 OFFCURVE",
"327 653 CURVE SMOOTH",
"197 653 OFFCURVE",
"108 569 OFFCURVE",
"108 454 CURVE SMOOTH",
"108 353 OFFCURVE",
"170 272 OFFCURVE",
"170 207 CURVE SMOOTH",
"170 138 OFFCURVE",
"119 104 OFFCURVE",
"45 84 CURVE",
"76 -64 LINE",
"249 -36 OFFCURVE",
"352 60 OFFCURVE",
"352 195 CURVE SMOOTH",
"352 295 OFFCURVE",
"290 378 OFFCURVE",
"290 443 CURVE SMOOTH",
"290 481 OFFCURVE",
"316 511 OFFCURVE",
"359 511 CURVE SMOOTH",
"408 511 OFFCURVE",
"440 476 OFFCURVE",
"434 391 CURVE",
"587 391 LINE",
"581 478 OFFCURVE",
"617 511 OFFCURVE",
"665 511 CURVE SMOOTH",
"706 511 OFFCURVE",
"734 484 OFFCURVE",
"734 443 CURVE SMOOTH",
"734 412 OFFCURVE",
"723 390 OFFCURVE",
"699 367 CURVE",
"835 272 LINE",
"892 329 OFFCURVE",
"912 379 OFFCURVE",
"912 441 CURVE SMOOTH"
);
}
);
width = 954;
},
{
guideLines = (
{
position = "{-478, -33}";
}
);
layerId = "AB666A95-3AF9-4DE8-B258-097FFCFE8A59";
paths = (
{
closed = 1;
nodes = (
"732 494 OFFCURVE",
"671 556 OFFCURVE",
"575 556 CURVE SMOOTH",
"480 556 OFFCURVE",
"411 491 OFFCURVE",
"411 374 CURVE",
"426 374 LINE",
"427 490 OFFCURVE",
"359 556 OFFCURVE",
"264 556 CURVE SMOOTH",
"172 556 OFFCURVE",
"108 495 OFFCURVE",
"108 406 CURVE SMOOTH",
"108 316 OFFCURVE",
"170 244 OFFCURVE",
"170 151 CURVE SMOOTH",
"170 65 OFFCURVE",
"126 5 OFFCURVE",
"51 -11 CURVE",
"56 -33 LINE",
"141 -15 OFFCURVE",
"194 54 OFFCURVE",
"194 151 CURVE SMOOTH",
"194 250 OFFCURVE",
"132 322 OFFCURVE",
"132 406 CURVE SMOOTH",
"132 484 OFFCURVE",
"184 534 OFFCURVE",
"266 534 CURVE SMOOTH",
"347 534 OFFCURVE",
"407 478 OFFCURVE",
"407 372 CURVE",
"430 372 LINE",
"430 479 OFFCURVE",
"492 534 OFFCURVE",
"573 534 CURVE SMOOTH",
"659 534 OFFCURVE",
"708 483 OFFCURVE",
"708 402 CURVE SMOOTH",
"708 359 OFFCURVE",
"694 319 OFFCURVE",
"668 290 CURVE",
"685 275 LINE",
"717 310 OFFCURVE",
"732 353 OFFCURVE",
"732 402 CURVE SMOOTH"
);
}
);
width = 792;
}
);
leftKerningGroup = ka;
note = uniAA06;
rightKerningGroup = dha;
rightMetricsKey = dha_cham;
unicode = AA06;
script = cham;
category = Letter;
subCategory = Spacing;
},
{
glyphname = kha_cham;
production = uniAA07;
lastChange = "2017-04-21 12:56:16 +0000";
layers = (
{
layerId = "9FF96064-8718-4A86-A5C8-73C592101F67";
paths = (
{
closed = 1;
nodes = (
"1256 523 OFFCURVE",
"1184 594 OFFCURVE",
"1072 594 CURVE SMOOTH",
"979 594 OFFCURVE",
"909 550 OFFCURVE",
"891 449 CURVE SMOOTH",
"872 344 OFFCURVE",
"835 330 OFFCURVE",
"725 312 CURVE SMOOTH",
"579 288 OFFCURVE",
"485 218 OFFCURVE",
"485 112 CURVE SMOOTH",
"485 31 OFFCURVE",
"537 -17 OFFCURVE",
"618 -17 CURVE SMOOTH",
"737 -17 OFFCURVE",
"816 111 OFFCURVE",
"816 306 CURVE SMOOTH",
"816 491 OFFCURVE",
"741 594 OFFCURVE",
"618 594 CURVE SMOOTH",
"508 594 OFFCURVE",
"430 518 OFFCURVE",
"430 389 CURVE",
"481 389 LINE",
"481 517 OFFCURVE",
"402 594 OFFCURVE",
"289 594 CURVE SMOOTH",
"181 594 OFFCURVE",
"108 524 OFFCURVE",
"108 424 CURVE SMOOTH",
"108 330 OFFCURVE",
"170 255 OFFCURVE",
"170 173 CURVE SMOOTH",
"170 93 OFFCURVE",
"123 42 OFFCURVE",
"48 27 CURVE",
"64 -45 LINE",
"183 -25 OFFCURVE",
"256 56 OFFCURVE",
"256 168 CURVE SMOOTH",
"256 267 OFFCURVE",
"194 344 OFFCURVE",
"194 420 CURVE SMOOTH",
"194 483 OFFCURVE",
"235 525 OFFCURVE",
"302 525 CURVE SMOOTH",
"372 525 OFFCURVE",
"421 477 OFFCURVE",
"418 379 CURVE",
"493 379 LINE",
"490 480 OFFCURVE",
"542 525 OFFCURVE",
"607 525 CURVE SMOOTH",
"688 525 OFFCURVE",
"732 451 OFFCURVE",
"732 307 CURVE SMOOTH",
"732 148 OFFCURVE",
"686 51 OFFCURVE",
"618 51 CURVE SMOOTH",
"585 51 OFFCURVE",
"568 78 OFFCURVE",
"568 115 CURVE SMOOTH",
"568 175 OFFCURVE",
"615 228 OFFCURVE",
"763 255 CURVE SMOOTH",
"898 280 OFFCURVE",
"944 307 OFFCURVE",
"963 418 CURVE SMOOTH",
"975 487 OFFCURVE",
"1009 525 OFFCURVE",
"1065 525 CURVE SMOOTH",
"1132 525 OFFCURVE",
"1172 484 OFFCURVE",
"1172 418 CURVE SMOOTH",
"1172 380 OFFCURVE",
"1160 347 OFFCURVE",
"1134 320 CURVE",
"1198 274 LINE",
"1239 318 OFFCURVE",
"1256 363 OFFCURVE",
"1256 417 CURVE SMOOTH"
);
}
);
width = 1309;
},
{
layerId = "134B12F2-BF5D-48E3-8003-C7502B438C7E";
paths = (
{
closed = 1;
nodes = (
"1352 550 OFFCURVE",
"1269 630 OFFCURVE",
"1142 630 CURVE SMOOTH",
"1036 630 OFFCURVE",
"957 585 OFFCURVE",
"935 474 CURVE SMOOTH",
"913 362 OFFCURVE",
"870 348 OFFCURVE",
"765 336 CURVE SMOOTH",
"606 318 OFFCURVE",
"494 248 OFFCURVE",
"494 131 CURVE SMOOTH",
"494 33 OFFCURVE",
"560 -24 OFFCURVE",
"657 -24 CURVE SMOOTH",
"792 -24 OFFCURVE",
"885 105 OFFCURVE",
"885 319 CURVE SMOOTH",
"885 519 OFFCURVE",
"801 630 OFFCURVE",
"661 630 CURVE SMOOTH",
"535 630 OFFCURVE",
"446 544 OFFCURVE",
"446 404 CURVE",
"532 404 LINE",
"532 543 OFFCURVE",
"441 630 OFFCURVE",
"312 630 CURVE SMOOTH",
"191 630 OFFCURVE",
"108 551 OFFCURVE",
"108 442 CURVE SMOOTH",
"108 344 OFFCURVE",
"170 265 OFFCURVE",
"170 194 CURVE SMOOTH",
"170 121 OFFCURVE",
"121 79 OFFCURVE",
"45 63 CURVE",
"71 -56 LINE",
"223 -32 OFFCURVE",
"315 58 OFFCURVE",
"315 184 CURVE SMOOTH",
"315 284 OFFCURVE",
"253 365 OFFCURVE",
"253 434 CURVE SMOOTH",
"253 482 OFFCURVE",
"284 516 OFFCURVE",
"337 516 CURVE SMOOTH",
"394 516 OFFCURVE",
"433 476 OFFCURVE",
"428 386 CURVE",
"550 386 LINE",
"546 480 OFFCURVE",
"591 516 OFFCURVE",
"643 516 CURVE SMOOTH",
"709 516 OFFCURVE",
"744 452 OFFCURVE",
"744 321 CURVE SMOOTH",
"744 167 OFFCURVE",
"707 86 OFFCURVE",
"659 86 CURVE SMOOTH",
"633 86 OFFCURVE",
"620 107 OFFCURVE",
"620 136 CURVE SMOOTH",
"620 182 OFFCURVE",
"658 228 OFFCURVE",
"825 255 CURVE SMOOTH",
"966 278 OFFCURVE",
"1018 309 OFFCURVE",
"1037 416 CURVE SMOOTH",
"1049 482 OFFCURVE",
"1075 516 OFFCURVE",
"1128 516 CURVE SMOOTH",
"1179 516 OFFCURVE",
"1211 484 OFFCURVE",
"1211 433 CURVE SMOOTH",
"1211 400 OFFCURVE",
"1200 373 OFFCURVE",
"1175 349 CURVE",
"1283 273 LINE",
"1334 325 OFFCURVE",
"1352 373 OFFCURVE",
"1352 432 CURVE SMOOTH"
);
}
);
width = 1398;
},
{
layerId = "0A718E2F-231D-484E-9433-16A5230D2CE8";
paths = (
{
closed = 1;
nodes = (
"1414 567 OFFCURVE",
"1324 653 OFFCURVE",
"1186 653 CURVE SMOOTH",
"1073 653 OFFCURVE",
"988 608 OFFCURVE",
"963 490 CURVE SMOOTH",
"938 374 OFFCURVE",
"892 359 OFFCURVE",
"791 352 CURVE SMOOTH",
"623 340 OFFCURVE",
"499 267 OFFCURVE",
"499 143 CURVE SMOOTH",
"499 34 OFFCURVE",
"574 -29 OFFCURVE",
"682 -29 CURVE SMOOTH",
"827 -29 OFFCURVE",
"929 101 OFFCURVE",
"929 328 CURVE SMOOTH",
"929 537 OFFCURVE",
"839 653 OFFCURVE",
"689 653 CURVE SMOOTH",
"552 653 OFFCURVE",
"457 560 OFFCURVE",
"457 414 CURVE",
"564 414 LINE",
"564 560 OFFCURVE",
"466 653 OFFCURVE",
"327 653 CURVE SMOOTH",
"197 653 OFFCURVE",
"108 569 OFFCURVE",
"108 454 CURVE SMOOTH",
"108 353 OFFCURVE",
"170 272 OFFCURVE",
"170 207 CURVE SMOOTH",
"170 138 OFFCURVE",
"119 104 OFFCURVE",
"45 84 CURVE",
"76 -64 LINE",
"249 -36 OFFCURVE",
"352 60 OFFCURVE",
"352 195 CURVE SMOOTH",
"352 295 OFFCURVE",
"290 378 OFFCURVE",
"290 443 CURVE SMOOTH",
"290 481 OFFCURVE",
"316 511 OFFCURVE",
"359 511 CURVE SMOOTH",
"408 511 OFFCURVE",
"440 476 OFFCURVE",
"434 391 CURVE",
"587 391 LINE",
"582 480 OFFCURVE",
"622 511 OFFCURVE",
"666 511 CURVE SMOOTH",
"722 511 OFFCURVE",
"752 453 OFFCURVE",
"752 330 CURVE SMOOTH",
"752 179 OFFCURVE",
"721 109 OFFCURVE",
"685 109 CURVE SMOOTH",
"664 109 OFFCURVE",
"653 125 OFFCURVE",
"653 149 CURVE SMOOTH",
"653 187 OFFCURVE",
"685 228 OFFCURVE",
"864 255 CURVE SMOOTH",
"1010 277 OFFCURVE",
"1064 310 OFFCURVE",
"1085 415 CURVE SMOOTH",
"1098 479 OFFCURVE",
"1118 511 OFFCURVE",
"1168 511 CURVE SMOOTH",
"1209 511 OFFCURVE",
"1236 484 OFFCURVE",
"1236 443 CURVE SMOOTH",
"1236 412 OFFCURVE",
"1225 390 OFFCURVE",
"1201 367 CURVE",
"1337 272 LINE",
"1394 329 OFFCURVE",
"1414 379 OFFCURVE",
"1414 441 CURVE SMOOTH"
);
}
);
width = 1456;
},
{
layerId = "AB666A95-3AF9-4DE8-B258-097FFCFE8A59";
paths = (
{
closed = 1;
nodes = (
"1156 494 OFFCURVE",
"1095 556 OFFCURVE",
"1000 556 CURVE SMOOTH",
"917 556 OFFCURVE",
"857 509 OFFCURVE",
"843 415 CURVE SMOOTH",
"828 316 OFFCURVE",
"799 304 OFFCURVE",
"681 274 CURVE SMOOTH",
"557 243 OFFCURVE",
"488 174 OFFCURVE",
"488 82 CURVE SMOOTH",
"488 26 OFFCURVE",
"520 -10 OFFCURVE",
"576 -10 CURVE SMOOTH",
"680 -10 OFFCURVE",
"744 104 OFFCURVE",
"744 293 CURVE SMOOTH",
"744 461 OFFCURVE",
"679 556 OFFCURVE",
"572 556 CURVE SMOOTH",
"480 556 OFFCURVE",
"413 491 OFFCURVE",
"413 374 CURVE",
"428 374 LINE",
"429 490 OFFCURVE",
"361 556 OFFCURVE",
"265 556 CURVE SMOOTH",
"171 556 OFFCURVE",
"108 495 OFFCURVE",
"108 406 CURVE SMOOTH",
"108 316 OFFCURVE",
"170 244 OFFCURVE",
"170 151 CURVE SMOOTH",
"170 65 OFFCURVE",
"126 5 OFFCURVE",
"51 -11 CURVE",
"56 -33 LINE",
"141 -15 OFFCURVE",
"194 54 OFFCURVE",
"194 151 CURVE SMOOTH",
"194 250 OFFCURVE",
"132 322 OFFCURVE",
"132 406 CURVE SMOOTH",
"132 484 OFFCURVE",
"183 534 OFFCURVE",
"266 534 CURVE SMOOTH",
"349 534 OFFCURVE",
"409 478 OFFCURVE",
"409 372 CURVE",
"432 372 LINE",
"432 479 OFFCURVE",
"492 534 OFFCURVE",
"570 534 CURVE SMOOTH",
"666 534 OFFCURVE",
"720 449 OFFCURVE",
"720 293 CURVE SMOOTH",
"720 116 OFFCURVE",
"664 12 OFFCURVE",
"575 12 CURVE SMOOTH",
"535 12 OFFCURVE",
"512 43 OFFCURVE",
"512 83 CURVE SMOOTH",
"512 163 OFFCURVE",
"572 225 OFFCURVE",
"689 254 CURVE SMOOTH",
"813 285 OFFCURVE",
"851 304 OFFCURVE",
"866 411 CURVE SMOOTH",
"878 494 OFFCURVE",
"930 534 OFFCURVE",
"999 534 CURVE SMOOTH",
"1084 534 OFFCURVE",
"1132 483 OFFCURVE",
"1132 402 CURVE SMOOTH",
"1132 359 OFFCURVE",
"1118 319 OFFCURVE",
"1092 290 CURVE",
"1109 275 LINE",
"1141 310 OFFCURVE",
"1156 353 OFFCURVE",
"1156 402 CURVE SMOOTH"
);
}
);
width = 1216;
}
);
leftKerningGroup = ka;
leftMetricsKey = ka_cham;
note = uniAA07;
rightKerningGroup = dha;
rightMetricsKey = dha_cham;
unicode = AA07;
script = cham;
category = Letter;
subCategory = Spacing;
},
{
glyphname = ga_cham;
production = uniAA08;
lastChange = "2017-04-21 12:56:16 +0000";
layers = (
{
layerId = "9FF96064-8718-4A86-A5C8-73C592101F67";
paths = (
{
closed = 1;
nodes = (
"826 523 OFFCURVE",
"753 594 OFFCURVE",
"640 594 CURVE SMOOTH",
"523 594 OFFCURVE",
"443 514 OFFCURVE",
"444 386 CURVE",
"498 386 LINE",
"498 513 OFFCURVE",
"422 594 OFFCURVE",
"305 594 CURVE SMOOTH",
"166 594 OFFCURVE",
"80 485 OFFCURVE",
"80 308 CURVE SMOOTH",
"80 105 OFFCURVE",
"190 -19 OFFCURVE",
"339 -19 CURVE SMOOTH",
"412 -19 OFFCURVE",
"457 23 OFFCURVE",
"457 82 CURVE SMOOTH",
"457 143 OFFCURVE",
"411 182 OFFCURVE",
"347 182 CURVE SMOOTH",
"275 182 OFFCURVE",
"226 129 OFFCURVE",
"213 48 CURVE",
"265 48 LINE",
"273 93 OFFCURVE",
"300 131 OFFCURVE",
"346 131 CURVE SMOOTH",
"376 131 OFFCURVE",
"400 116 OFFCURVE",
"400 83 CURVE SMOOTH",
"400 54 OFFCURVE",
"379 35 OFFCURVE",
"344 35 CURVE SMOOTH",
"245 35 OFFCURVE",
"166 130 OFFCURVE",
"166 309 CURVE SMOOTH",
"166 445 OFFCURVE",
"222 525 OFFCURVE",
"312 525 CURVE SMOOTH",
"386 525 OFFCURVE",
"437 473 OFFCURVE",
"434 377 CURVE",
"508 377 LINE",
"506 474 OFFCURVE",
"556 525 OFFCURVE",
"630 525 CURVE SMOOTH",
"699 525 OFFCURVE",
"743 483 OFFCURVE",
"743 418 CURVE SMOOTH",
"743 379 OFFCURVE",
"729 347 OFFCURVE",
"704 318 CURVE",
"768 273 LINE",
"808 320 OFFCURVE",
"826 364 OFFCURVE",
"826 418 CURVE SMOOTH"
);
}
);
width = 879;
},
{
layerId = "134B12F2-BF5D-48E3-8003-C7502B438C7E";
paths = (
{
closed = 1;
nodes = (
"873 550 OFFCURVE",
"789 630 OFFCURVE",
"665 630 CURVE SMOOTH",
"533 630 OFFCURVE",
"445 542 OFFCURVE",
"446 403 CURVE",
"532 403 LINE",
"532 542 OFFCURVE",
"449 630 OFFCURVE",
"321 630 CURVE SMOOTH",
"167 630 OFFCURVE",
"71 512 OFFCURVE",
"71 321 CURVE SMOOTH",
"71 106 OFFCURVE",
"194 -25 OFFCURVE",
"362 -25 CURVE SMOOTH",
"452 -25 OFFCURVE",
"504 25 OFFCURVE",
"504 95 CURVE SMOOTH",
"504 168 OFFCURVE",
"450 214 OFFCURVE",
"374 214 CURVE SMOOTH",
"291 214 OFFCURVE",
"233 150 OFFCURVE",
"222 58 CURVE",
"292 58 LINE",
"298 100 OFFCURVE",
"324 143 OFFCURVE",
"373 143 CURVE SMOOTH",
"399 143 OFFCURVE",
"424 131 OFFCURVE",
"424 96 CURVE SMOOTH",
"424 69 OFFCURVE",
"406 51 OFFCURVE",
"375 51 CURVE SMOOTH",
"286 51 OFFCURVE",
"215 140 OFFCURVE",
"215 323 CURVE SMOOTH",
"215 446 OFFCURVE",
"262 516 OFFCURVE",
"335 516 CURVE SMOOTH",
"393 516 OFFCURVE",
"433 474 OFFCURVE",
"428 386 CURVE",
"550 386 LINE",
"546 476 OFFCURVE",
"587 516 OFFCURVE",
"646 516 CURVE SMOOTH",
"698 516 OFFCURVE",
"733 484 OFFCURVE",
"733 433 CURVE SMOOTH",
"733 398 OFFCURVE",
"721 372 OFFCURVE",
"697 346 CURVE",
"805 271 LINE",
"854 327 OFFCURVE",
"873 373 OFFCURVE",
"873 432 CURVE SMOOTH"
);
}
);
width = 919;
},
{
layerId = "0A718E2F-231D-484E-9433-16A5230D2CE8";
paths = (
{
closed = 1;
nodes = (
"903 567 OFFCURVE",
"812 653 OFFCURVE",
"681 653 CURVE SMOOTH",
"540 653 OFFCURVE",
"447 560 OFFCURVE",
"447 414 CURVE",
"554 414 LINE",
"554 560 OFFCURVE",
"467 653 OFFCURVE",
"331 653 CURVE SMOOTH",
"168 653 OFFCURVE",
"65 529 OFFCURVE",
"65 330 CURVE SMOOTH",
"65 107 OFFCURVE",
"197 -29 OFFCURVE",
"377 -29 CURVE SMOOTH",
"477 -29 OFFCURVE",
"534 26 OFFCURVE",
"534 104 CURVE SMOOTH",
"534 184 OFFCURVE",
"475 234 OFFCURVE",
"392 234 CURVE SMOOTH",
"302 234 OFFCURVE",
"238 164 OFFCURVE",
"227 64 CURVE",
"309 64 LINE",
"314 104 OFFCURVE",
"340 151 OFFCURVE",
"390 151 CURVE SMOOTH",
"414 151 OFFCURVE",
"440 140 OFFCURVE",
"440 104 CURVE SMOOTH",
"440 78 OFFCURVE",
"423 61 OFFCURVE",
"395 61 CURVE SMOOTH",
"312 61 OFFCURVE",
"247 147 OFFCURVE",
"247 332 CURVE SMOOTH",
"247 446 OFFCURVE",
"287 511 OFFCURVE",
"349 511 CURVE SMOOTH",
"397 511 OFFCURVE",
"430 475 OFFCURVE",
"424 391 CURVE",
"577 391 LINE",
"571 478 OFFCURVE",
"606 511 OFFCURVE",
"656 511 CURVE SMOOTH",
"697 511 OFFCURVE",
"727 484 OFFCURVE",
"727 442 CURVE SMOOTH",
"727 410 OFFCURVE",
"716 388 OFFCURVE",
"692 364 CURVE",
"829 269 LINE",
"884 332 OFFCURVE",
"903 379 OFFCURVE",
"903 441 CURVE SMOOTH"
);
}
);
width = 945;
},
{
layerId = "AB666A95-3AF9-4DE8-B258-097FFCFE8A59";
paths = (
{
closed = 1;
nodes = (
"777 494 OFFCURVE",
"715 556 OFFCURVE",
"614 556 CURVE SMOOTH",
"511 556 OFFCURVE",
"444 484 OFFCURVE",
"445 368 CURVE",
"460 368 LINE",
"461 483 OFFCURVE",
"394 556 OFFCURVE",
"289 556 CURVE SMOOTH",
"165 556 OFFCURVE",
"90 457 OFFCURVE",
"90 294 CURVE SMOOTH",
"90 105 OFFCURVE",
"182 -10 OFFCURVE",
"304 -10 CURVE SMOOTH",
"354 -10 OFFCURVE",
"386 19 OFFCURVE",
"386 62 CURVE SMOOTH",
"386 105 OFFCURVE",
"354 133 OFFCURVE",
"304 133 CURVE SMOOTH",
"252 133 OFFCURVE",
"214 95 OFFCURVE",
"201 33 CURVE",
"224 33 LINE",
"234 82 OFFCURVE",
"264 112 OFFCURVE",
"304 112 CURVE SMOOTH",
"340 112 OFFCURVE",
"363 94 OFFCURVE",
"363 63 CURVE SMOOTH",
"363 32 OFFCURVE",
"339 12 OFFCURVE",
"303 12 CURVE SMOOTH",
"197 12 OFFCURVE",
"114 117 OFFCURVE",
"114 294 CURVE SMOOTH",
"114 444 OFFCURVE",
"180 534 OFFCURVE",
"289 534 CURVE SMOOTH",
"380 534 OFFCURVE",
"441 471 OFFCURVE",
"441 368 CURVE",
"464 368 LINE",
"464 471 OFFCURVE",
"524 534 OFFCURVE",
"614 534 CURVE SMOOTH",
"701 534 OFFCURVE",
"753 482 OFFCURVE",
"753 403 CURVE SMOOTH",
"753 360 OFFCURVE",
"737 321 OFFCURVE",
"711 289 CURVE",
"730 275 LINE",
"760 312 OFFCURVE",
"777 354 OFFCURVE",
"777 403 CURVE SMOOTH"
);
}
);
width = 837;
}
);
leftKerningGroup = gFinal;
leftMetricsKey = "=gFinal_cham";
note = uniAA08;
rightKerningGroup = dha;
rightMetricsKey = dha_cham;
unicode = AA08;
script = cham;
category = Letter;
subCategory = Spacing;
},
{
glyphname = gha_cham;
production = uniAA09;
lastChange = "2017-04-21 12:56:16 +0000";
layers = (
{
layerId = "9FF96064-8718-4A86-A5C8-73C592101F67";
paths = (
{
closed = 1;
nodes = (
"1303 523 OFFCURVE",
"1230 594 OFFCURVE",
"1119 594 CURVE SMOOTH",
"1008 594 OFFCURVE",
"930 517 OFFCURVE",
"930 389 CURVE",
"981 389 LINE",
"982 517 OFFCURVE",
"903 594 OFFCURVE",
"790 594 CURVE SMOOTH",
"680 594 OFFCURVE",
"611 531 OFFCURVE",
"611 439 CURVE SMOOTH",
"611 403 OFFCURVE",
"624 368 OFFCURVE",
"624 346 CURVE SMOOTH",
"624 236 OFFCURVE",
"468 241 OFFCURVE",
"468 122 CURVE SMOOTH",
"468 89 OFFCURVE",
"475 67 OFFCURVE",
"503 39 CURVE",
"503 52 LINE",
"497 52 OFFCURVE",
"490 52 OFFCURVE",
"484 52 CURVE SMOOTH",
"416 52 OFFCURVE",
"373 101 OFFCURVE",
"373 170 CURVE SMOOTH",
"373 251 OFFCURVE",
"439 319 OFFCURVE",
"439 417 CURVE SMOOTH",
"439 526 OFFCURVE",
"361 594 OFFCURVE",
"249 594 CURVE SMOOTH",
"132 594 OFFCURVE",
"53 525 OFFCURVE",
"53 419 CURVE SMOOTH",
"53 368 OFFCURVE",
"74 316 OFFCURVE",
"116 276 CURVE",
"178 324 LINE",
"154 349 OFFCURVE",
"137 384 OFFCURVE",
"137 421 CURVE SMOOTH",
"137 486 OFFCURVE",
"181 525 OFFCURVE",
"248 525 CURVE SMOOTH",
"314 525 OFFCURVE",
"353 481 OFFCURVE",
"353 414 CURVE SMOOTH",
"353 329 OFFCURVE",
"287 262 OFFCURVE",
"287 170 CURVE SMOOTH",
"287 61 OFFCURVE",
"370 -17 OFFCURVE",
"499 -17 CURVE SMOOTH",
"523 -17 OFFCURVE",
"547 -17 OFFCURVE",
"564 -16 CURVE",
"586 37 LINE",
"562 65 OFFCURVE",
"551 82 OFFCURVE",
"551 111 CURVE SMOOTH",
"551 204 OFFCURVE",
"710 199 OFFCURVE",
"710 335 CURVE SMOOTH",
"710 367 OFFCURVE",
"697 396 OFFCURVE",
"697 428 CURVE SMOOTH",
"697 487 OFFCURVE",
"736 525 OFFCURVE",
"803 525 CURVE SMOOTH",
"873 525 OFFCURVE",
"921 477 OFFCURVE",
"919 379 CURVE",
"993 379 LINE",
"990 479 OFFCURVE",
"1042 525 OFFCURVE",
"1109 525 CURVE SMOOTH",
"1177 525 OFFCURVE",
"1218 483 OFFCURVE",
"1218 418 CURVE SMOOTH",
"1218 379 OFFCURVE",
"1206 347 OFFCURVE",
"1180 320 CURVE",
"1244 273 LINE",
"1286 318 OFFCURVE",
"1303 363 OFFCURVE",
"1303 418 CURVE SMOOTH"
);
}
);
width = 1356;
userData = {
RMXScaler = {
verticalShift = -124;
};
};
},
{
layerId = "134B12F2-BF5D-48E3-8003-C7502B438C7E";
paths = (
{
closed = 1;
nodes = (
"1393 550 OFFCURVE",
"1309 630 OFFCURVE",
"1185 630 CURVE SMOOTH",
"1057 630 OFFCURVE",
"970 543 OFFCURVE",
"970 404 CURVE",
"1055 404 LINE",
"1055 543 OFFCURVE",
"965 630 OFFCURVE",
"836 630 CURVE SMOOTH",
"712 630 OFFCURVE",
"635 560 OFFCURVE",
"635 461 CURVE SMOOTH",
"635 424 OFFCURVE",
"648 388 OFFCURVE",
"648 364 CURVE SMOOTH",
"648 260 OFFCURVE",
"500 265 OFFCURVE",
"500 135 CURVE SMOOTH",
"500 103 OFFCURVE",
"507 82 OFFCURVE",
"537 57 CURVE",
"527 85 LINE",
"522 85 OFFCURVE",
"516 85 OFFCURVE",
"513 85 CURVE SMOOTH",
"469 85 OFFCURVE",
"439 131 OFFCURVE",
"439 184 CURVE SMOOTH",
"439 262 OFFCURVE",
"507 332 OFFCURVE",
"507 434 CURVE SMOOTH",
"507 555 OFFCURVE",
"413 630 OFFCURVE",
"280 630 CURVE SMOOTH",
"140 630 OFFCURVE",
"46 551 OFFCURVE",
"46 430 CURVE SMOOTH",
"46 376 OFFCURVE",
"67 318 OFFCURVE",
"119 272 CURVE",
"224 351 LINE",
"202 372 OFFCURVE",
"188 402 OFFCURVE",
"188 433 CURVE SMOOTH",
"188 485 OFFCURVE",
"224 516 OFFCURVE",
"277 516 CURVE SMOOTH",
"332 516 OFFCURVE",
"363 478 OFFCURVE",
"363 428 CURVE SMOOTH",
"363 345 OFFCURVE",
"294 277 OFFCURVE",
"294 182 CURVE SMOOTH",
"294 66 OFFCURVE",
"391 -24 OFFCURVE",
"541 -24 CURVE SMOOTH",
"570 -24 OFFCURVE",
"598 -24 OFFCURVE",
"616 -21 CURVE",
"649 55 LINE",
"626 81 OFFCURVE",
"616 96 OFFCURVE",
"616 120 CURVE SMOOTH",
"616 216 OFFCURVE",
"787 206 OFFCURVE",
"787 348 CURVE SMOOTH",
"787 383 OFFCURVE",
"775 412 OFFCURVE",
"775 439 CURVE SMOOTH",
"775 486 OFFCURVE",
"807 516 OFFCURVE",
"860 516 CURVE SMOOTH",
"918 516 OFFCURVE",
"956 476 OFFCURVE",
"951 386 CURVE",
"1074 386 LINE",
"1069 478 OFFCURVE",
"1111 516 OFFCURVE",
"1166 516 CURVE SMOOTH",
"1218 516 OFFCURVE",
"1251 484 OFFCURVE",
"1251 433 CURVE SMOOTH",
"1251 399 OFFCURVE",
"1240 373 OFFCURVE",
"1215 349 CURVE",
"1323 272 LINE",
"1374 325 OFFCURVE",
"1393 373 OFFCURVE",
"1393 432 CURVE SMOOTH"
);
}
);
width = 1439;
userData = {
RMXScaler = {
verticalShift = -98;
};
};
},
{
layerId = "0A718E2F-231D-484E-9433-16A5230D2CE8";
paths = (
{
closed = 1;
nodes = (
"1450 567 OFFCURVE",
"1359 653 OFFCURVE",
"1227 653 CURVE SMOOTH",
"1088 653 OFFCURVE",
"995 560 OFFCURVE",
"995 414 CURVE",
"1102 414 LINE",
"1102 560 OFFCURVE",
"1004 653 OFFCURVE",
"865 653 CURVE SMOOTH",
"733 653 OFFCURVE",
"651 579 OFFCURVE",
"651 475 CURVE SMOOTH",
"651 437 OFFCURVE",
"663 401 OFFCURVE",
"663 376 CURVE SMOOTH",
"663 276 OFFCURVE",
"520 280 OFFCURVE",
"520 144 CURVE SMOOTH",
"520 112 OFFCURVE",
"527 91 OFFCURVE",
"559 68 CURVE",
"542 106 LINE",
"538 106 OFFCURVE",
"533 106 OFFCURVE",
"531 106 CURVE SMOOTH",
"503 106 OFFCURVE",
"481 150 OFFCURVE",
"481 193 CURVE SMOOTH",
"481 269 OFFCURVE",
"551 340 OFFCURVE",
"551 445 CURVE SMOOTH",
"551 573 OFFCURVE",
"446 653 OFFCURVE",
"299 653 CURVE SMOOTH",
"145 653 OFFCURVE",
"42 567 OFFCURVE",
"42 437 CURVE SMOOTH",
"42 381 OFFCURVE",
"63 320 OFFCURVE",
"121 269 CURVE",
"254 368 LINE",
"233 387 OFFCURVE",
"220 413 OFFCURVE",
"220 441 CURVE SMOOTH",
"220 485 OFFCURVE",
"251 511 OFFCURVE",
"296 511 CURVE SMOOTH",
"344 511 OFFCURVE",
"369 476 OFFCURVE",
"369 437 CURVE SMOOTH",
"369 355 OFFCURVE",
"299 287 OFFCURVE",
"299 189 CURVE SMOOTH",
"299 69 OFFCURVE",
"404 -29 OFFCURVE",
"568 -29 CURVE SMOOTH",
"600 -29 OFFCURVE",
"631 -28 OFFCURVE",
"650 -25 CURVE",
"689 66 LINE",
"667 91 OFFCURVE",
"658 105 OFFCURVE",
"658 126 CURVE SMOOTH",
"658 224 OFFCURVE",
"837 210 OFFCURVE",
"837 356 CURVE SMOOTH",
"837 394 OFFCURVE",
"825 423 OFFCURVE",
"825 446 CURVE SMOOTH",
"825 486 OFFCURVE",
"853 511 OFFCURVE",
"897 511 CURVE SMOOTH",
"946 511 OFFCURVE",
"978 476 OFFCURVE",
"972 391 CURVE",
"1125 391 LINE",
"1119 478 OFFCURVE",
"1155 511 OFFCURVE",
"1203 511 CURVE SMOOTH",
"1244 511 OFFCURVE",
"1272 484 OFFCURVE",
"1272 443 CURVE SMOOTH",
"1272 412 OFFCURVE",
"1261 390 OFFCURVE",
"1237 367 CURVE",
"1373 272 LINE",
"1430 329 OFFCURVE",
"1450 379 OFFCURVE",
"1450 441 CURVE SMOOTH"
);
}
);
width = 1492;
userData = {
RMXScaler = {
verticalShift = -82;
};
};
},
{
layerId = "AB666A95-3AF9-4DE8-B258-097FFCFE8A59";
paths = (
{
closed = 1;
nodes = (
"1208 494 OFFCURVE",
"1148 556 OFFCURVE",
"1049 556 CURVE SMOOTH",
"956 556 OFFCURVE",
"889 490 OFFCURVE",
"889 374 CURVE",
"904 374 LINE",
"905 490 OFFCURVE",
"837 556 OFFCURVE",
"742 556 CURVE SMOOTH",
"647 556 OFFCURVE",
"588 500 OFFCURVE",
"588 416 CURVE SMOOTH",
"588 377 OFFCURVE",
"603 339 OFFCURVE",
"603 313 CURVE SMOOTH",
"603 196 OFFCURVE",
"429 210 OFFCURVE",
"429 94 CURVE SMOOTH",
"429 64 OFFCURVE",
"441 38 OFFCURVE",
"464 4 CURVE",
"467 12 LINE",
"462 12 OFFCURVE",
"459 12 OFFCURVE",
"454 12 CURVE",
"360 12 OFFCURVE",
"303 66 OFFCURVE",
"303 156 CURVE SMOOTH",
"303 240 OFFCURVE",
"367 306 OFFCURVE",
"367 400 CURVE SMOOTH",
"367 496 OFFCURVE",
"307 556 OFFCURVE",
"217 556 CURVE SMOOTH",
"124 556 OFFCURVE",
"60 498 OFFCURVE",
"60 408 CURVE SMOOTH",
"60 360 OFFCURVE",
"81 313 OFFCURVE",
"113 280 CURVE",
"130 295 LINE",
"103 324 OFFCURVE",
"84 365 OFFCURVE",
"84 408 CURVE SMOOTH",
"84 487 OFFCURVE",
"136 534 OFFCURVE",
"217 534 CURVE SMOOTH",
"295 534 OFFCURVE",
"343 485 OFFCURVE",
"343 400 CURVE SMOOTH",
"343 313 OFFCURVE",
"279 246 OFFCURVE",
"279 157 CURVE SMOOTH",
"279 55 OFFCURVE",
"348 -10 OFFCURVE",
"454 -10 CURVE",
"465 -10 OFFCURVE",
"477 -10 OFFCURVE",
"488 -10 CURVE",
"493 3 LINE",
"466 35 OFFCURVE",
"453 65 OFFCURVE",
"453 94 CURVE SMOOTH",
"453 200 OFFCURVE",
"626 179 OFFCURVE",
"626 313 CURVE SMOOTH",
"626 345 OFFCURVE",
"612 377 OFFCURVE",
"612 417 CURVE SMOOTH",
"612 489 OFFCURVE",
"659 534 OFFCURVE",
"743 534 CURVE SMOOTH",
"825 534 OFFCURVE",
"885 478 OFFCURVE",
"885 372 CURVE",
"908 372 LINE",
"908 481 OFFCURVE",
"969 534 OFFCURVE",
"1049 534 CURVE SMOOTH",
"1133 534 OFFCURVE",
"1184 482 OFFCURVE",
"1184 403 CURVE SMOOTH",
"1184 359 OFFCURVE",
"1170 319 OFFCURVE",
"1144 290 CURVE",
"1161 275 LINE",
"1193 310 OFFCURVE",
"1208 353 OFFCURVE",
"1208 403 CURVE SMOOTH"
);
}
);
width = 1268;
userData = {
RMXScaler = {
verticalShift = -151;
};
};
}
);
leftKerningGroup = dha;
leftMetricsKey = dha_cham;
note = uniAA09;
rightKerningGroup = dha;
rightMetricsKey = dha_cham;
unicode = AA09;
script = cham;
category = Letter;
subCategory = Spacing;
userData = {
RMXScaler = {
source = "gha-cham";
};
};
},
{
glyphname = ngue_cham;
production = uniAA0A;
lastChange = "2017-04-21 12:56:16 +0000";
layers = (
{
layerId = "9FF96064-8718-4A86-A5C8-73C592101F67";
paths = (
{
closed = 1;
nodes = (
"1023 516 OFFCURVE",
"935 594 OFFCURVE",
"808 594 CURVE SMOOTH",
"679 594 OFFCURVE",
"592 516 OFFCURVE",
"592 401 CURVE SMOOTH",
"592 301 OFFCURVE",
"660 229 OFFCURVE",
"749 229 CURVE SMOOTH",
"808 229 OFFCURVE",
"844 263 OFFCURVE",
"844 314 CURVE SMOOTH",
"844 362 OFFCURVE",
"810 393 OFFCURVE",
"756 393 CURVE SMOOTH",
"682 393 OFFCURVE",
"637 353 OFFCURVE",
"634 284 CURVE SMOOTH",
"632 251 OFFCURVE",
"633 217 OFFCURVE",
"631 195 CURVE SMOOTH",
"621 100 OFFCURVE",
"556 64 OFFCURVE",
"420 43 CURVE",
"404 -18 LINE",
"475 41 OFFCURVE",
"507 107 OFFCURVE",
"507 175 CURVE SMOOTH",
"507 262 OFFCURVE",
"442 316 OFFCURVE",
"357 316 CURVE SMOOTH",
"340 316 OFFCURVE",
"322 313 OFFCURVE",
"304 309 CURVE",
"325 264 LINE",
"399 291 OFFCURVE",
"441 357 OFFCURVE",
"441 426 CURVE SMOOTH",
"441 527 OFFCURVE",
"360 594 OFFCURVE",
"248 594 CURVE SMOOTH",
"132 594 OFFCURVE",
"53 524 OFFCURVE",
"53 420 CURVE SMOOTH",
"53 368 OFFCURVE",
"74 315 OFFCURVE",
"117 275 CURVE",
"180 323 LINE",
"154 347 OFFCURVE",
"137 383 OFFCURVE",
"137 421 CURVE SMOOTH",
"137 485 OFFCURVE",
"181 525 OFFCURVE",
"247 525 CURVE SMOOTH",
"313 525 OFFCURVE",
"355 482 OFFCURVE",
"355 422 CURVE SMOOTH",
"355 371 OFFCURVE",
"325 325 OFFCURVE",
"271 302 CURVE",
"286 252 LINE",
"301 256 OFFCURVE",
"317 259 OFFCURVE",
"331 259 CURVE SMOOTH",
"383 259 OFFCURVE",
"421 224 OFFCURVE",
"421 162 CURVE SMOOTH",
"421 109 OFFCURVE",
"399 65 OFFCURVE",
"350 5 CURVE",
"370 -46 LINE",
"614 -5 OFFCURVE",
"702 49 OFFCURVE",
"709 199 CURVE SMOOTH",
"710 228 OFFCURVE",
"703 265 OFFCURVE",
"705 291 CURVE SMOOTH",
"707 326 OFFCURVE",
"728 347 OFFCURVE",
"756 347 CURVE SMOOTH",
"779 347 OFFCURVE",
"795 335 OFFCURVE",
"795 313 CURVE SMOOTH",
"795 290 OFFCURVE",
"779 275 OFFCURVE",
"755 275 CURVE SMOOTH",
"708 275 OFFCURVE",
"672 321 OFFCURVE",
"672 397 CURVE SMOOTH",
"672 478 OFFCURVE",
"722 525 OFFCURVE",
"803 525 CURVE SMOOTH",
"884 525 OFFCURVE",
"939 478 OFFCURVE",
"939 402 CURVE SMOOTH",
"939 358 OFFCURVE",
"919 317 OFFCURVE",
"889 289 CURVE",
"951 241 LINE",
"999 286 OFFCURVE",
"1023 344 OFFCURVE",
"1023 400 CURVE SMOOTH"
);
}
);
width = 1076;
userData = {
RMXScaler = {
verticalShift = -124;
};
};
},
{
layerId = "134B12F2-BF5D-48E3-8003-C7502B438C7E";
paths = (
{
closed = 1;
nodes = (
"1145 542 OFFCURVE",
"1041 630 OFFCURVE",
"890 630 CURVE SMOOTH",
"738 630 OFFCURVE",
"635 542 OFFCURVE",
"635 410 CURVE SMOOTH",
"635 296 OFFCURVE",
"712 219 OFFCURVE",
"814 219 CURVE SMOOTH",
"887 219 OFFCURVE",
"927 256 OFFCURVE",
"927 318 CURVE SMOOTH",
"927 373 OFFCURVE",
"889 410 OFFCURVE",
"826 410 CURVE SMOOTH",
"731 410 OFFCURVE",
"675 363 OFFCURVE",
"674 283 CURVE SMOOTH",
"673 255 OFFCURVE",
"673 220 OFFCURVE",
"671 205 CURVE SMOOTH",
"661 127 OFFCURVE",
"601 99 OFFCURVE",
"471 80 CURVE",
"456 -4 LINE",
"540 56 OFFCURVE",
"573 126 OFFCURVE",
"573 195 CURVE SMOOTH",
"573 291 OFFCURVE",
"497 345 OFFCURVE",
"400 345 CURVE SMOOTH",
"379 345 OFFCURVE",
"357 342 OFFCURVE",
"335 337 CURVE",
"370 259 LINE",
"458 290 OFFCURVE",
"508 364 OFFCURVE",
"508 440 CURVE SMOOTH",
"508 555 OFFCURVE",
"412 630 OFFCURVE",
"279 630 CURVE SMOOTH",
"140 630 OFFCURVE",
"46 550 OFFCURVE",
"46 430 CURVE SMOOTH",
"46 376 OFFCURVE",
"67 318 OFFCURVE",
"119 271 CURVE",
"225 350 LINE",
"202 371 OFFCURVE",
"188 401 OFFCURVE",
"188 433 CURVE SMOOTH",
"188 485 OFFCURVE",
"224 516 OFFCURVE",
"277 516 CURVE SMOOTH",
"332 516 OFFCURVE",
"364 478 OFFCURVE",
"364 431 CURVE SMOOTH",
"364 383 OFFCURVE",
"332 343 OFFCURVE",
"275 323 CURVE",
"302 242 LINE",
"317 248 OFFCURVE",
"335 252 OFFCURVE",
"351 252 CURVE SMOOTH",
"393 252 OFFCURVE",
"431 226 OFFCURVE",
"431 170 CURVE SMOOTH",
"431 119 OFFCURVE",
"412 81 OFFCURVE",
"360 17 CURVE",
"386 -55 LINE",
"688 -4 OFFCURVE",
"779 49 OFFCURVE",
"785 212 CURVE SMOOTH",
"786 244 OFFCURVE",
"782 275 OFFCURVE",
"782 299 CURVE SMOOTH",
"783 327 OFFCURVE",
"801 345 OFFCURVE",
"824 345 CURVE SMOOTH",
"843 345 OFFCURVE",
"857 334 OFFCURVE",
"857 315 CURVE SMOOTH",
"857 297 OFFCURVE",
"845 284 OFFCURVE",
"823 284 CURVE SMOOTH",
"790 284 OFFCURVE",
"763 323 OFFCURVE",
"763 402 CURVE SMOOTH",
"763 478 OFFCURVE",
"810 516 OFFCURVE",
"882 516 CURVE SMOOTH",
"954 516 OFFCURVE",
"1004 478 OFFCURVE",
"1004 412 CURVE SMOOTH",
"1004 374 OFFCURVE",
"986 339 OFFCURVE",
"959 314 CURVE",
"1064 235 LINE",
"1122 287 OFFCURVE",
"1145 350 OFFCURVE",
"1145 409 CURVE SMOOTH"
);
}
);
width = 1191;
userData = {
RMXScaler = {
verticalShift = -98;
};
};
},
{
layerId = "0A718E2F-231D-484E-9433-16A5230D2CE8";
paths = (
{
closed = 1;
nodes = (
"1223 558 OFFCURVE",
"1109 653 OFFCURVE",
"943 653 CURVE SMOOTH",
"776 653 OFFCURVE",
"662 558 OFFCURVE",
"662 415 CURVE SMOOTH",
"662 293 OFFCURVE",
"745 212 OFFCURVE",
"855 212 CURVE SMOOTH",
"937 212 OFFCURVE",
"980 252 OFFCURVE",
"980 320 CURVE SMOOTH",
"980 380 OFFCURVE",
"939 421 OFFCURVE",
"870 421 CURVE SMOOTH",
"763 421 OFFCURVE",
"700 370 OFFCURVE",
"700 282 CURVE SMOOTH",
"700 257 OFFCURVE",
"699 222 OFFCURVE",
"697 211 CURVE SMOOTH",
"687 144 OFFCURVE",
"630 121 OFFCURVE",
"504 104 CURVE",
"490 5 LINE",
"582 66 OFFCURVE",
"616 138 OFFCURVE",
"616 207 CURVE SMOOTH",
"616 310 OFFCURVE",
"532 363 OFFCURVE",
"428 363 CURVE SMOOTH",
"404 363 OFFCURVE",
"379 360 OFFCURVE",
"354 355 CURVE",
"399 256 LINE",
"496 289 OFFCURVE",
"551 368 OFFCURVE",
"551 449 CURVE SMOOTH",
"551 573 OFFCURVE",
"446 653 OFFCURVE",
"299 653 CURVE SMOOTH",
"145 653 OFFCURVE",
"42 567 OFFCURVE",
"42 437 CURVE SMOOTH",
"42 381 OFFCURVE",
"63 320 OFFCURVE",
"121 269 CURVE",
"254 368 LINE",
"233 387 OFFCURVE",
"220 413 OFFCURVE",
"220 441 CURVE SMOOTH",
"220 485 OFFCURVE",
"251 511 OFFCURVE",
"296 511 CURVE SMOOTH",
"344 511 OFFCURVE",
"369 476 OFFCURVE",
"369 437 CURVE SMOOTH",
"369 390 OFFCURVE",
"337 355 OFFCURVE",
"278 336 CURVE",
"312 236 LINE",
"328 243 OFFCURVE",
"346 247 OFFCURVE",
"363 247 CURVE SMOOTH",
"400 247 OFFCURVE",
"438 227 OFFCURVE",
"438 175 CURVE SMOOTH",
"438 125 OFFCURVE",
"420 92 OFFCURVE",
"367 24 CURVE",
"396 -61 LINE",
"736 -3 OFFCURVE",
"828 49 OFFCURVE",
"833 220 CURVE SMOOTH",
"834 254 OFFCURVE",
"832 281 OFFCURVE",
"832 304 CURVE",
"832 328 OFFCURVE",
"848 343 OFFCURVE",
"867 343 CURVE SMOOTH",
"884 343 OFFCURVE",
"897 333 OFFCURVE",
"897 317 CURVE SMOOTH",
"897 302 OFFCURVE",
"887 289 OFFCURVE",
"867 289 CURVE SMOOTH",
"842 289 OFFCURVE",
"821 324 OFFCURVE",
"821 406 CURVE SMOOTH",
"821 478 OFFCURVE",
"867 511 OFFCURVE",
"933 511 CURVE SMOOTH",
"998 511 OFFCURVE",
"1045 478 OFFCURVE",
"1045 419 CURVE SMOOTH",
"1045 385 OFFCURVE",
"1029 353 OFFCURVE",
"1004 330 CURVE",
"1137 231 LINE",
"1200 287 OFFCURVE",
"1223 354 OFFCURVE",
"1223 415 CURVE SMOOTH"
);
}
);
width = 1265;
userData = {
RMXScaler = {
verticalShift = -82;
};
};
},
{
layerId = "AB666A95-3AF9-4DE8-B258-097FFCFE8A59";
paths = (
{
closed = 1;
nodes = (
"891 489 OFFCURVE",
"820 556 OFFCURVE",
"717 556 CURVE SMOOTH",
"614 556 OFFCURVE",
"543 488 OFFCURVE",
"543 391 CURVE SMOOTH",
"543 307 OFFCURVE",
"598 243 OFFCURVE",
"667 243 CURVE SMOOTH",
"707 243 OFFCURVE",
"739 271 OFFCURVE",
"739 309 CURVE SMOOTH",
"739 347 OFFCURVE",
"709 373 OFFCURVE",
"667 373 CURVE SMOOTH",
"621 373 OFFCURVE",
"590 339 OFFCURVE",
"583 286 CURVE SMOOTH",
"578 246 OFFCURVE",
"578 205 OFFCURVE",
"575 178 CURVE SMOOTH",
"564 62 OFFCURVE",
"492 12 OFFCURVE",
"347 -13 CURVE",
"355 -30 LINE",
"406 27 OFFCURVE",
"435 89 OFFCURVE",
"435 154 CURVE SMOOTH",
"435 231 OFFCURVE",
"385 285 OFFCURVE",
"311 285 CURVE SMOOTH",
"299 285 OFFCURVE",
"286 283 OFFCURVE",
"272 280 CURVE",
"278 269 LINE",
"337 293 OFFCURVE",
"370 350 OFFCURVE",
"370 412 CURVE SMOOTH",
"370 498 OFFCURVE",
"306 556 OFFCURVE",
"215 556 CURVE SMOOTH",
"124 556 OFFCURVE",
"60 496 OFFCURVE",
"60 409 CURVE SMOOTH",
"60 360 OFFCURVE",
"81 312 OFFCURVE",
"115 280 CURVE",
"132 295 LINE",
"103 322 OFFCURVE",
"84 364 OFFCURVE",
"84 409 CURVE SMOOTH",
"84 484 OFFCURVE",
"136 534 OFFCURVE",
"215 534 CURVE SMOOTH",
"294 534 OFFCURVE",
"346 486 OFFCURVE",
"346 412 CURVE SMOOTH",
"346 358 OFFCURVE",
"318 306 OFFCURVE",
"266 280 CURVE",
"270 262 LINE",
"285 265 OFFCURVE",
"298 266 OFFCURVE",
"311 266 CURVE SMOOTH",
"373 266 OFFCURVE",
"411 222 OFFCURVE",
"411 154 CURVE SMOOTH",
"411 95 OFFCURVE",
"385 38 OFFCURVE",
"340 -14 CURVE",
"351 -33 LINE",
"506 -8 OFFCURVE",
"588 48 OFFCURVE",
"598 179 CURVE SMOOTH",
"600 206 OFFCURVE",
"601 252 OFFCURVE",
"604 279 CURVE SMOOTH",
"609 323 OFFCURVE",
"631 352 OFFCURVE",
"668 352 CURVE SMOOTH",
"698 352 OFFCURVE",
"716 337 OFFCURVE",
"716 309 CURVE SMOOTH",
"716 281 OFFCURVE",
"696 264 OFFCURVE",
"667 264 CURVE SMOOTH",
"610 264 OFFCURVE",
"567 317 OFFCURVE",
"567 391 CURVE SMOOTH",
"567 477 OFFCURVE",
"626 534 OFFCURVE",
"717 534 CURVE SMOOTH",
"808 534 OFFCURVE",
"867 478 OFFCURVE",
"867 391 CURVE SMOOTH",
"867 341 OFFCURVE",
"845 293 OFFCURVE",
"812 263 CURVE",
"829 248 LINE",
"867 284 OFFCURVE",
"891 337 OFFCURVE",
"891 391 CURVE SMOOTH"
);
}
);
width = 951;
userData = {
RMXScaler = {
verticalShift = -151;
};
};
}
);
leftKerningGroup = dha;
leftMetricsKey = dha_cham;
note = uniAA0A;
rightKerningGroup = dha;
rightMetricsKey = dha_cham;
unicode = AA0A;
script = cham;
category = Letter;
subCategory = Spacing;
userData = {
RMXScaler = {
source = "ngue-cham";
};
};
},
{
glyphname = nga_cham;
production = uniAA0B;
lastChange = "2017-04-21 12:56:16 +0000";
layers = (
{
layerId = "9FF96064-8718-4A86-A5C8-73C592101F67";
paths = (
{
closed = 1;
nodes = (
"1025 516 OFFCURVE",
"937 594 OFFCURVE",
"810 594 CURVE SMOOTH",
"681 594 OFFCURVE",
"594 516 OFFCURVE",
"594 401 CURVE SMOOTH",
"594 301 OFFCURVE",
"663 228 OFFCURVE",
"755 228 CURVE SMOOTH",
"815 228 OFFCURVE",
"852 262 OFFCURVE",
"852 314 CURVE SMOOTH",
"852 363 OFFCURVE",
"817 395 OFFCURVE",
"762 395 CURVE SMOOTH",
"686 395 OFFCURVE",
"641 354 OFFCURVE",
"637 284 CURVE SMOOTH",
"636 267 OFFCURVE",
"633 246 OFFCURVE",
"633 231 CURVE SMOOTH",
"633 141 OFFCURVE",
"624 103 OFFCURVE",
"580 79 CURVE SMOOTH",
"544 60 OFFCURVE",
"478 44 OFFCURVE",
"425 24 CURVE",
"420 -4 LINE",
"481 42 OFFCURVE",
"507 116 OFFCURVE",
"507 176 CURVE SMOOTH",
"507 262 OFFCURVE",
"443 315 OFFCURVE",
"357 315 CURVE SMOOTH",
"340 315 OFFCURVE",
"322 313 OFFCURVE",
"304 309 CURVE",
"325 264 LINE",
"399 291 OFFCURVE",
"441 357 OFFCURVE",
"441 426 CURVE SMOOTH",
"441 527 OFFCURVE",
"360 594 OFFCURVE",
"248 594 CURVE SMOOTH",
"132 594 OFFCURVE",
"53 524 OFFCURVE",
"53 420 CURVE SMOOTH",
"53 368 OFFCURVE",
"74 315 OFFCURVE",
"117 275 CURVE",
"180 323 LINE",
"154 347 OFFCURVE",
"137 383 OFFCURVE",
"137 421 CURVE SMOOTH",
"137 485 OFFCURVE",
"181 525 OFFCURVE",
"247 525 CURVE SMOOTH",
"313 525 OFFCURVE",
"355 482 OFFCURVE",
"355 422 CURVE SMOOTH",
"355 370 OFFCURVE",
"325 325 OFFCURVE",
"271 302 CURVE",
"286 252 LINE",
"301 256 OFFCURVE",
"317 259 OFFCURVE",
"331 259 CURVE SMOOTH",
"383 259 OFFCURVE",
"421 224 OFFCURVE",
"421 162 CURVE SMOOTH",
"421 101 OFFCURVE",
"399 35 OFFCURVE",
"327 -23 CURVE SMOOTH",
"259 -78 OFFCURVE",
"226 -124 OFFCURVE",
"226 -183 CURVE SMOOTH",
"226 -251 OFFCURVE",
"280 -299 OFFCURVE",
"345 -299 CURVE SMOOTH",
"467 -299 OFFCURVE",
"485 -149 OFFCURVE",
"549 -149 CURVE SMOOTH",
"571 -149 OFFCURVE",
"584 -162 OFFCURVE",
"584 -183 CURVE SMOOTH",
"584 -195 OFFCURVE",
"579 -209 OFFCURVE",
"570 -222 CURVE",
"638 -253 LINE",
"656 -228 OFFCURVE",
"665 -195 OFFCURVE",
"665 -172 CURVE SMOOTH",
"665 -119 OFFCURVE",
"622 -76 OFFCURVE",
"564 -76 CURVE SMOOTH",
"442 -76 OFFCURVE",
"424 -224 OFFCURVE",
"356 -224 CURVE SMOOTH",
"327 -224 OFFCURVE",
"310 -197 OFFCURVE",
"310 -172 CURVE SMOOTH",
"310 -143 OFFCURVE",
"328 -101 OFFCURVE",
"395 -64 CURVE SMOOTH",
"468 -24 OFFCURVE",
"542 -19 OFFCURVE",
"606 8 CURVE SMOOTH",
"681 39 OFFCURVE",
"706 87 OFFCURVE",
"710 210 CURVE SMOOTH",
"711 241 OFFCURVE",
"710 267 OFFCURVE",
"711 291 CURVE SMOOTH",
"713 326 OFFCURVE",
"733 347 OFFCURVE",
"762 347 CURVE SMOOTH",
"785 347 OFFCURVE",
"801 335 OFFCURVE",
"801 313 CURVE SMOOTH",
"801 291 OFFCURVE",
"785 276 OFFCURVE",
"761 276 CURVE SMOOTH",
"713 276 OFFCURVE",
"676 321 OFFCURVE",
"676 397 CURVE SMOOTH",
"676 478 OFFCURVE",
"728 525 OFFCURVE",
"805 525 CURVE SMOOTH",
"886 525 OFFCURVE",
"941 478 OFFCURVE",
"941 402 CURVE SMOOTH",
"941 358 OFFCURVE",
"921 317 OFFCURVE",
"891 289 CURVE",
"953 241 LINE",
"1001 286 OFFCURVE",
"1025 344 OFFCURVE",
"1025 400 CURVE SMOOTH"
);
}
);
width = 1078;
userData = {
RMXScaler = {
verticalShift = -124;
};
};
},
{
layerId = "134B12F2-BF5D-48E3-8003-C7502B438C7E";
paths = (
{
closed = 1;
nodes = (
"1146 542 OFFCURVE",
"1042 630 OFFCURVE",
"891 630 CURVE SMOOTH",
"739 630 OFFCURVE",
"635 542 OFFCURVE",
"635 410 CURVE SMOOTH",
"635 296 OFFCURVE",
"713 218 OFFCURVE",
"816 218 CURVE SMOOTH",
"889 218 OFFCURVE",
"930 256 OFFCURVE",
"930 318 CURVE SMOOTH",
"930 373 OFFCURVE",
"891 411 OFFCURVE",
"828 411 CURVE SMOOTH",
"733 411 OFFCURVE",
"677 364 OFFCURVE",
"675 283 CURVE SMOOTH",
"675 269 OFFCURVE",
"674 252 OFFCURVE",
"674 243 CURVE SMOOTH",
"674 178 OFFCURVE",
"669 131 OFFCURVE",
"631 108 CURVE SMOOTH",
"602 91 OFFCURVE",
"524 71 OFFCURVE",
"468 54 CURVE",
"463 17 LINE",
"543 68 OFFCURVE",
"573 134 OFFCURVE",
"573 196 CURVE SMOOTH",
"573 291 OFFCURVE",
"497 344 OFFCURVE",
"400 344 CURVE SMOOTH",
"379 344 OFFCURVE",
"357 342 OFFCURVE",
"335 337 CURVE",
"370 259 LINE",
"458 290 OFFCURVE",
"508 364 OFFCURVE",
"508 440 CURVE SMOOTH",
"508 555 OFFCURVE",
"412 630 OFFCURVE",
"279 630 CURVE SMOOTH",
"140 630 OFFCURVE",
"46 550 OFFCURVE",
"46 430 CURVE SMOOTH",
"46 376 OFFCURVE",
"67 318 OFFCURVE",
"119 271 CURVE",
"225 350 LINE",
"202 371 OFFCURVE",
"188 401 OFFCURVE",
"188 433 CURVE SMOOTH",
"188 485 OFFCURVE",
"224 516 OFFCURVE",
"277 516 CURVE SMOOTH",
"332 516 OFFCURVE",
"364 478 OFFCURVE",
"364 431 CURVE SMOOTH",
"364 382 OFFCURVE",
"332 343 OFFCURVE",
"275 323 CURVE",
"302 242 LINE",
"317 248 OFFCURVE",
"335 252 OFFCURVE",
"351 252 CURVE SMOOTH",
"393 252 OFFCURVE",
"431 225 OFFCURVE",
"431 166 CURVE SMOOTH",
"431 116 OFFCURVE",
"414 52 OFFCURVE",
"347 -13 CURVE SMOOTH",
"275 -82 OFFCURVE",
"234 -131 OFFCURVE",
"234 -199 CURVE SMOOTH",
"234 -277 OFFCURVE",
"301 -328 OFFCURVE",
"377 -328 CURVE SMOOTH",
"507 -328 OFFCURVE",
"532 -189 OFFCURVE",
"584 -189 CURVE SMOOTH",
"603 -189 OFFCURVE",
"613 -199 OFFCURVE",
"613 -217 CURVE SMOOTH",
"613 -227 OFFCURVE",
"610 -239 OFFCURVE",
"602 -251 CURVE",
"702 -294 LINE",
"724 -265 OFFCURVE",
"732 -224 OFFCURVE",
"732 -198 CURVE SMOOTH",
"732 -134 OFFCURVE",
"680 -81 OFFCURVE",
"607 -81 CURVE SMOOTH",
"488 -81 OFFCURVE",
"446 -218 OFFCURVE",
"393 -218 CURVE SMOOTH",
"372 -218 OFFCURVE",
"357 -198 OFFCURVE",
"357 -177 CURVE SMOOTH",
"357 -154 OFFCURVE",
"374 -118 OFFCURVE",
"436 -80 CURVE SMOOTH",
"516 -31 OFFCURVE",
"598 -22 OFFCURVE",
"667 3 CURVE SMOOTH",
"754 35 OFFCURVE",
"785 86 OFFCURVE",
"786 208 CURVE SMOOTH",
"786 243 OFFCURVE",
"784 271 OFFCURVE",
"785 299 CURVE SMOOTH",
"786 327 OFFCURVE",
"803 345 OFFCURVE",
"826 345 CURVE SMOOTH",
"845 345 OFFCURVE",
"860 334 OFFCURVE",
"860 315 CURVE SMOOTH",
"860 298 OFFCURVE",
"847 284 OFFCURVE",
"826 284 CURVE SMOOTH",
"792 284 OFFCURVE",
"764 323 OFFCURVE",
"764 402 CURVE SMOOTH",
"764 478 OFFCURVE",
"813 516 OFFCURVE",
"883 516 CURVE SMOOTH",
"954 516 OFFCURVE",
"1004 478 OFFCURVE",
"1004 412 CURVE SMOOTH",
"1004 374 OFFCURVE",
"987 339 OFFCURVE",
"960 314 CURVE",
"1065 235 LINE",
"1122 287 OFFCURVE",
"1146 350 OFFCURVE",
"1146 409 CURVE SMOOTH"
);
}
);
width = 1192;
userData = {
RMXScaler = {
verticalShift = -98;
};
};
},
{
layerId = "0A718E2F-231D-484E-9433-16A5230D2CE8";
paths = (
{
closed = 1;
nodes = (
"1223 558 OFFCURVE",
"1109 653 OFFCURVE",
"943 653 CURVE SMOOTH",
"776 653 OFFCURVE",
"662 558 OFFCURVE",
"662 415 CURVE SMOOTH",
"662 293 OFFCURVE",
"745 212 OFFCURVE",
"855 212 CURVE SMOOTH",
"937 212 OFFCURVE",
"980 252 OFFCURVE",
"980 320 CURVE SMOOTH",
"980 380 OFFCURVE",
"939 421 OFFCURVE",
"870 421 CURVE SMOOTH",
"763 421 OFFCURVE",
"700 370 OFFCURVE",
"700 282 CURVE SMOOTH",
"700 271 OFFCURVE",
"701 256 OFFCURVE",
"701 250 CURVE SMOOTH",
"701 201 OFFCURVE",
"698 149 OFFCURVE",
"663 127 CURVE SMOOTH",
"639 112 OFFCURVE",
"553 89 OFFCURVE",
"495 73 CURVE",
"490 30 LINE",
"583 84 OFFCURVE",
"616 145 OFFCURVE",
"616 209 CURVE SMOOTH",
"616 310 OFFCURVE",
"532 363 OFFCURVE",
"428 363 CURVE SMOOTH",
"404 363 OFFCURVE",
"379 360 OFFCURVE",
"354 355 CURVE",
"399 256 LINE",
"496 289 OFFCURVE",
"551 368 OFFCURVE",
"551 449 CURVE SMOOTH",
"551 573 OFFCURVE",
"446 653 OFFCURVE",
"299 653 CURVE SMOOTH",
"145 653 OFFCURVE",
"42 567 OFFCURVE",
"42 437 CURVE SMOOTH",
"42 381 OFFCURVE",
"63 320 OFFCURVE",
"121 269 CURVE",
"254 368 LINE",
"233 387 OFFCURVE",
"220 413 OFFCURVE",
"220 441 CURVE SMOOTH",
"220 485 OFFCURVE",
"251 511 OFFCURVE",
"296 511 CURVE SMOOTH",
"344 511 OFFCURVE",
"369 476 OFFCURVE",
"369 437 CURVE SMOOTH",
"369 390 OFFCURVE",
"337 355 OFFCURVE",
"278 336 CURVE",
"312 236 LINE",
"328 243 OFFCURVE",
"346 247 OFFCURVE",
"363 247 CURVE SMOOTH",
"400 247 OFFCURVE",
"438 226 OFFCURVE",
"438 168 CURVE SMOOTH",
"438 126 OFFCURVE",
"425 63 OFFCURVE",
"360 -6 CURVE SMOOTH",
"285 -85 OFFCURVE",
"239 -135 OFFCURVE",
"239 -209 CURVE SMOOTH",
"239 -294 OFFCURVE",
"314 -346 OFFCURVE",
"398 -346 CURVE SMOOTH",
"532 -346 OFFCURVE",
"562 -215 OFFCURVE",
"607 -215 CURVE SMOOTH",
"623 -215 OFFCURVE",
"632 -223 OFFCURVE",
"632 -238 CURVE SMOOTH",
"632 -248 OFFCURVE",
"629 -258 OFFCURVE",
"622 -269 CURVE",
"743 -320 LINE",
"767 -288 OFFCURVE",
"775 -242 OFFCURVE",
"775 -215 CURVE SMOOTH",
"775 -144 OFFCURVE",
"717 -84 OFFCURVE",
"634 -84 CURVE SMOOTH",
"518 -84 OFFCURVE",
"460 -214 OFFCURVE",
"417 -214 CURVE SMOOTH",
"400 -214 OFFCURVE",
"387 -199 OFFCURVE",
"387 -181 CURVE SMOOTH",
"387 -161 OFFCURVE",
"403 -129 OFFCURVE",
"462 -91 CURVE SMOOTH",
"547 -36 OFFCURVE",
"633 -25 OFFCURVE",
"706 0 CURVE SMOOTH",
"800 32 OFFCURVE",
"834 83 OFFCURVE",
"834 207 CURVE SMOOTH",
"834 244 OFFCURVE",
"832 273 OFFCURVE",
"832 304 CURVE SMOOTH",
"832 328 OFFCURVE",
"848 343 OFFCURVE",
"867 343 CURVE SMOOTH",
"884 343 OFFCURVE",
"897 333 OFFCURVE",
"897 317 CURVE SMOOTH",
"897 302 OFFCURVE",
"887 289 OFFCURVE",
"867 289 CURVE SMOOTH",
"842 289 OFFCURVE",
"821 324 OFFCURVE",
"821 406 CURVE SMOOTH",
"821 478 OFFCURVE",
"867 511 OFFCURVE",
"933 511 CURVE SMOOTH",
"998 511 OFFCURVE",
"1045 478 OFFCURVE",
"1045 419 CURVE SMOOTH",
"1045 385 OFFCURVE",
"1029 353 OFFCURVE",
"1004 330 CURVE",
"1137 231 LINE",
"1200 287 OFFCURVE",
"1223 354 OFFCURVE",
"1223 415 CURVE SMOOTH"
);
}
);
width = 1265;
userData = {
RMXScaler = {
verticalShift = -82;
};
};
},
{
layerId = "AB666A95-3AF9-4DE8-B258-097FFCFE8A59";
paths = (
{
closed = 1;
nodes = (
"891 489 OFFCURVE",
"820 556 OFFCURVE",
"717 556 CURVE SMOOTH",
"614 556 OFFCURVE",
"543 488 OFFCURVE",
"543 391 CURVE SMOOTH",
"543 307 OFFCURVE",
"598 243 OFFCURVE",
"667 243 CURVE SMOOTH",
"707 243 OFFCURVE",
"739 271 OFFCURVE",
"739 309 CURVE SMOOTH",
"739 347 OFFCURVE",
"709 373 OFFCURVE",
"667 373 CURVE SMOOTH",
"621 373 OFFCURVE",
"589 339 OFFCURVE",
"583 286 CURVE SMOOTH",
"580 263 OFFCURVE",
"577 236 OFFCURVE",
"576 203 CURVE SMOOTH",
"572 110 OFFCURVE",
"563 69 OFFCURVE",
"501 40 CURVE SMOOTH",
"461 21 OFFCURVE",
"414 13 OFFCURVE",
"364 -15 CURVE",
"364 -25 LINE",
"415 14 OFFCURVE",
"435 96 OFFCURVE",
"435 154 CURVE SMOOTH",
"435 231 OFFCURVE",
"385 285 OFFCURVE",
"311 285 CURVE SMOOTH",
"299 285 OFFCURVE",
"286 283 OFFCURVE",
"272 280 CURVE",
"278 269 LINE",
"337 293 OFFCURVE",
"370 350 OFFCURVE",
"370 412 CURVE SMOOTH",
"370 498 OFFCURVE",
"306 556 OFFCURVE",
"215 556 CURVE SMOOTH",
"124 556 OFFCURVE",
"60 496 OFFCURVE",
"60 409 CURVE SMOOTH",
"60 360 OFFCURVE",
"81 312 OFFCURVE",
"115 280 CURVE",
"132 295 LINE",
"103 322 OFFCURVE",
"84 364 OFFCURVE",
"84 409 CURVE SMOOTH",
"84 484 OFFCURVE",
"136 534 OFFCURVE",
"215 534 CURVE SMOOTH",
"294 534 OFFCURVE",
"346 486 OFFCURVE",
"346 412 CURVE SMOOTH",
"346 358 OFFCURVE",
"318 306 OFFCURVE",
"266 280 CURVE",
"270 262 LINE",
"285 265 OFFCURVE",
"298 266 OFFCURVE",
"311 266 CURVE SMOOTH",
"373 266 OFFCURVE",
"411 222 OFFCURVE",
"411 154 CURVE SMOOTH",
"411 75 OFFCURVE",
"374 1 OFFCURVE",
"323 -34 CURVE SMOOTH",
"254 -81 OFFCURVE",
"219 -120 OFFCURVE",
"219 -168 CURVE SMOOTH",
"219 -212 OFFCURVE",
"253 -248 OFFCURVE",
"302 -248 CURVE SMOOTH",
"411 -248 OFFCURVE",
"420 -82 OFFCURVE",
"501 -82 CURVE SMOOTH",
"528 -82 OFFCURVE",
"545 -100 OFFCURVE",
"545 -124 CURVE SMOOTH",
"545 -139 OFFCURVE",
"538 -157 OFFCURVE",
"527 -171 CURVE",
"545 -185 LINE",
"560 -166 OFFCURVE",
"569 -144 OFFCURVE",
"569 -124 CURVE SMOOTH",
"569 -89 OFFCURVE",
"540 -60 OFFCURVE",
"503 -60 CURVE SMOOTH",
"403 -60 OFFCURVE",
"394 -226 OFFCURVE",
"303 -226 CURVE SMOOTH",
"264 -226 OFFCURVE",
"243 -199 OFFCURVE",
"243 -167 CURVE SMOOTH",
"243 -131 OFFCURVE",
"267 -100 OFFCURVE",
"336 -53 CURVE SMOOTH",
"399 -10 OFFCURVE",
"456 -5 OFFCURVE",
"509 19 CURVE SMOOTH",
"581 52 OFFCURVE",
"593 95 OFFCURVE",
"598 198 CURVE SMOOTH",
"600 237 OFFCURVE",
"602 262 OFFCURVE",
"604 279 CURVE SMOOTH",
"608 323 OFFCURVE",
"631 352 OFFCURVE",
"668 352 CURVE SMOOTH",
"698 352 OFFCURVE",
"716 337 OFFCURVE",
"716 309 CURVE SMOOTH",
"716 281 OFFCURVE",
"696 264 OFFCURVE",
"667 264 CURVE SMOOTH",
"610 264 OFFCURVE",
"567 317 OFFCURVE",
"567 391 CURVE SMOOTH",
"567 477 OFFCURVE",
"626 534 OFFCURVE",
"717 534 CURVE SMOOTH",
"808 534 OFFCURVE",
"867 478 OFFCURVE",
"867 391 CURVE SMOOTH",
"867 341 OFFCURVE",
"845 293 OFFCURVE",
"812 263 CURVE",
"829 248 LINE",
"867 284 OFFCURVE",
"891 337 OFFCURVE",
"891 391 CURVE SMOOTH"
);
}
);
width = 951;
userData = {
RMXScaler = {
verticalShift = -151;
};
};
}
);
leftKerningGroup = dha;
leftMetricsKey = dha_cham;
note = uniAA0B;
rightKerningGroup = dha;
rightMetricsKey = dha_cham;
unicode = AA0B;
script = cham;
category = Letter;
subCategory = Spacing;
userData = {
RMXScaler = {
source = "nga-cham";
};
};
},
{
glyphname = cha_cham;
production = uniAA0C;
lastChange = "2017-04-21 12:56:16 +0000";
layers = (
{
layerId = "9FF96064-8718-4A86-A5C8-73C592101F67";
paths = (
{
closed = 1;
nodes = (
"928 523 OFFCURVE",
"855 594 OFFCURVE",
"744 594 CURVE SMOOTH",
"650 594 OFFCURVE",
"580 550 OFFCURVE",
"562 449 CURVE SMOOTH",
"543 344 OFFCURVE",
"506 330 OFFCURVE",
"396 312 CURVE SMOOTH",
"250 288 OFFCURVE",
"156 218 OFFCURVE",
"156 112 CURVE SMOOTH",
"156 31 OFFCURVE",
"208 -17 OFFCURVE",
"289 -17 CURVE SMOOTH",
"408 -17 OFFCURVE",
"487 103 OFFCURVE",
"487 286 CURVE SMOOTH",
"487 481 OFFCURVE",
"393 594 OFFCURVE",
"249 594 CURVE SMOOTH",
"132 594 OFFCURVE",
"61 527 OFFCURVE",
"61 435 CURVE SMOOTH",
"61 379 OFFCURVE",
"84 332 OFFCURVE",
"118 302 CURVE",
"174 347 LINE",
"156 367 OFFCURVE",
"142 395 OFFCURVE",
"142 429 CURVE SMOOTH",
"142 487 OFFCURVE",
"183 525 OFFCURVE",
"251 525 CURVE SMOOTH",
"344 525 OFFCURVE",
"403 442 OFFCURVE",
"403 290 CURVE SMOOTH",
"403 142 OFFCURVE",
"357 51 OFFCURVE",
"289 51 CURVE SMOOTH",
"256 51 OFFCURVE",
"239 78 OFFCURVE",
"239 115 CURVE SMOOTH",
"239 175 OFFCURVE",
"286 228 OFFCURVE",
"434 255 CURVE SMOOTH",
"569 280 OFFCURVE",
"616 307 OFFCURVE",
"634 418 CURVE SMOOTH",
"645 487 OFFCURVE",
"680 525 OFFCURVE",
"739 525 CURVE SMOOTH",
"805 525 OFFCURVE",
"844 484 OFFCURVE",
"844 418 CURVE SMOOTH",
"844 380 OFFCURVE",
"831 347 OFFCURVE",
"806 320 CURVE",
"869 274 LINE",
"911 318 OFFCURVE",
"928 363 OFFCURVE",
"928 417 CURVE SMOOTH"
);
}
);
width = 981;
userData = {
RMXScaler = {
verticalShift = -124;
};
};
},
{
layerId = "134B12F2-BF5D-48E3-8003-C7502B438C7E";
paths = (
{
closed = 1;
nodes = (
"1010 550 OFFCURVE",
"926 630 OFFCURVE",
"799 630 CURVE SMOOTH",
"693 630 OFFCURVE",
"614 585 OFFCURVE",
"592 474 CURVE SMOOTH",
"570 362 OFFCURVE",
"527 347 OFFCURVE",
"422 336 CURVE SMOOTH",
"263 319 OFFCURVE",
"151 248 OFFCURVE",
"151 131 CURVE SMOOTH",
"151 33 OFFCURVE",
"217 -24 OFFCURVE",
"314 -24 CURVE SMOOTH",
"449 -24 OFFCURVE",
"542 102 OFFCURVE",
"542 292 CURVE SMOOTH",
"542 507 OFFCURVE",
"436 630 OFFCURVE",
"272 630 CURVE SMOOTH",
"141 630 OFFCURVE",
"58 558 OFFCURVE",
"58 456 CURVE SMOOTH",
"58 389 OFFCURVE",
"88 336 OFFCURVE",
"130 306 CURVE",
"221 382 LINE",
"208 394 OFFCURVE",
"194 416 OFFCURVE",
"194 445 CURVE SMOOTH",
"194 491 OFFCURVE",
"229 516 OFFCURVE",
"275 516 CURVE SMOOTH",
"353 516 OFFCURVE",
"401 443 OFFCURVE",
"401 299 CURVE SMOOTH",
"401 165 OFFCURVE",
"364 86 OFFCURVE",
"316 86 CURVE SMOOTH",
"290 86 OFFCURVE",
"277 107 OFFCURVE",
"277 136 CURVE SMOOTH",
"277 182 OFFCURVE",
"315 228 OFFCURVE",
"482 255 CURVE SMOOTH",
"623 278 OFFCURVE",
"674 309 OFFCURVE",
"694 416 CURVE SMOOTH",
"706 482 OFFCURVE",
"732 516 OFFCURVE",
"786 516 CURVE SMOOTH",
"837 516 OFFCURVE",
"868 484 OFFCURVE",
"868 433 CURVE SMOOTH",
"868 400 OFFCURVE",
"857 373 OFFCURVE",
"832 349 CURVE",
"940 273 LINE",
"991 325 OFFCURVE",
"1010 373 OFFCURVE",
"1010 432 CURVE SMOOTH"
);
}
);
width = 1056;
userData = {
RMXScaler = {
verticalShift = -98;
};
};
},
{
layerId = "0A718E2F-231D-484E-9433-16A5230D2CE8";
paths = (
{
closed = 1;
nodes = (
"1062 567 OFFCURVE",
"972 653 OFFCURVE",
"834 653 CURVE SMOOTH",
"721 653 OFFCURVE",
"636 608 OFFCURVE",
"611 490 CURVE SMOOTH",
"586 374 OFFCURVE",
"540 359 OFFCURVE",
"439 352 CURVE SMOOTH",
"271 340 OFFCURVE",
"147 267 OFFCURVE",
"147 143 CURVE SMOOTH",
"147 34 OFFCURVE",
"222 -29 OFFCURVE",
"330 -29 CURVE SMOOTH",
"475 -29 OFFCURVE",
"577 101 OFFCURVE",
"577 296 CURVE SMOOTH",
"577 524 OFFCURVE",
"463 653 OFFCURVE",
"286 653 CURVE SMOOTH",
"147 653 OFFCURVE",
"56 578 OFFCURVE",
"56 470 CURVE SMOOTH",
"56 395 OFFCURVE",
"91 339 OFFCURVE",
"137 309 CURVE",
"251 404 LINE",
"241 411 OFFCURVE",
"228 429 OFFCURVE",
"228 455 CURVE SMOOTH",
"228 494 OFFCURVE",
"259 511 OFFCURVE",
"290 511 CURVE SMOOTH",
"359 511 OFFCURVE",
"400 443 OFFCURVE",
"400 305 CURVE SMOOTH",
"400 179 OFFCURVE",
"369 109 OFFCURVE",
"333 109 CURVE SMOOTH",
"312 109 OFFCURVE",
"301 125 OFFCURVE",
"301 149 CURVE SMOOTH",
"301 187 OFFCURVE",
"333 228 OFFCURVE",
"512 255 CURVE SMOOTH",
"658 277 OFFCURVE",
"712 310 OFFCURVE",
"733 415 CURVE SMOOTH",
"746 479 OFFCURVE",
"766 511 OFFCURVE",
"816 511 CURVE SMOOTH",
"857 511 OFFCURVE",
"884 484 OFFCURVE",
"884 443 CURVE SMOOTH",
"884 412 OFFCURVE",
"873 390 OFFCURVE",
"849 367 CURVE",
"985 272 LINE",
"1042 329 OFFCURVE",
"1062 379 OFFCURVE",
"1062 441 CURVE SMOOTH"
);
}
);
width = 1104;
userData = {
RMXScaler = {
verticalShift = -82;
};
};
},
{
layerId = "AB666A95-3AF9-4DE8-B258-097FFCFE8A59";
paths = (
{
closed = 1;
nodes = (
"842 494 OFFCURVE",
"781 556 OFFCURVE",
"686 556 CURVE SMOOTH",
"603 556 OFFCURVE",
"543 509 OFFCURVE",
"529 415 CURVE SMOOTH",
"514 316 OFFCURVE",
"485 304 OFFCURVE",
"367 274 CURVE SMOOTH",
"243 243 OFFCURVE",
"174 174 OFFCURVE",
"174 82 CURVE SMOOTH",
"174 26 OFFCURVE",
"206 -10 OFFCURVE",
"262 -10 CURVE SMOOTH",
"366 -10 OFFCURVE",
"430 104 OFFCURVE",
"430 280 CURVE SMOOTH",
"430 453 OFFCURVE",
"348 556 OFFCURVE",
"225 556 CURVE SMOOTH",
"122 556 OFFCURVE",
"64 495 OFFCURVE",
"64 412 CURVE SMOOTH",
"64 368 OFFCURVE",
"80 328 OFFCURVE",
"106 297 CURVE",
"124 311 LINE",
"102 338 OFFCURVE",
"88 373 OFFCURVE",
"88 412 CURVE SMOOTH",
"88 483 OFFCURVE",
"135 534 OFFCURVE",
"226 534 CURVE SMOOTH",
"334 534 OFFCURVE",
"406 441 OFFCURVE",
"406 280 CURVE SMOOTH",
"406 116 OFFCURVE",
"350 12 OFFCURVE",
"261 12 CURVE SMOOTH",
"221 12 OFFCURVE",
"198 43 OFFCURVE",
"198 83 CURVE SMOOTH",
"198 163 OFFCURVE",
"258 225 OFFCURVE",
"375 254 CURVE SMOOTH",
"499 285 OFFCURVE",
"537 304 OFFCURVE",
"552 411 CURVE SMOOTH",
"564 494 OFFCURVE",
"616 534 OFFCURVE",
"685 534 CURVE SMOOTH",
"770 534 OFFCURVE",
"818 483 OFFCURVE",
"818 402 CURVE SMOOTH",
"818 359 OFFCURVE",
"804 319 OFFCURVE",
"778 290 CURVE",
"795 275 LINE",
"827 310 OFFCURVE",
"842 353 OFFCURVE",
"842 402 CURVE SMOOTH"
);
}
);
width = 902;
userData = {
RMXScaler = {
verticalShift = -151;
};
};
}
);
leftKerningGroup = cha;
note = uniAA0C;
rightKerningGroup = dha;
rightMetricsKey = dha_cham;
unicode = AA0C;
script = cham;
category = Letter;
subCategory = Spacing;
userData = {
RMXScaler = {
source = "cha-cham";
};
};
},
{
glyphname = chha_cham;
production = uniAA0D;
lastChange = "2017-04-21 12:56:16 +0000";
layers = (
{
layerId = "9FF96064-8718-4A86-A5C8-73C592101F67";
paths = (
{
closed = 1;
nodes = (
"1522 525 OFFCURVE",
"1447 594 OFFCURVE",
"1333 594 CURVE SMOOTH",
"1219 594 OFFCURVE",
"1146 533 OFFCURVE",
"1146 442 CURVE SMOOTH",
"1146 377 OFFCURVE",
"1184 321 OFFCURVE",
"1184 274 CURVE SMOOTH",
"1184 224 OFFCURVE",
"1144 189 OFFCURVE",
"1095 189 CURVE SMOOTH",
"1050 189 OFFCURVE",
"1020 208 OFFCURVE",
"1020 237 CURVE SMOOTH",
"1020 259 OFFCURVE",
"1036 270 OFFCURVE",
"1057 270 CURVE SMOOTH",
"1095 270 OFFCURVE",
"1116 238 OFFCURVE",
"1116 181 CURVE SMOOTH",
"1116 95 OFFCURVE",
"1066 50 OFFCURVE",
"986 50 CURVE SMOOTH",
"902 50 OFFCURVE",
"852 102 OFFCURVE",
"852 175 CURVE SMOOTH",
"852 252 OFFCURVE",
"930 320 OFFCURVE",
"930 422 CURVE SMOOTH",
"930 526 OFFCURVE",
"854 594 OFFCURVE",
"744 594 CURVE",
"650 594 OFFCURVE",
"580 550 OFFCURVE",
"562 449 CURVE SMOOTH",
"543 344 OFFCURVE",
"506 330 OFFCURVE",
"396 312 CURVE SMOOTH",
"250 288 OFFCURVE",
"156 218 OFFCURVE",
"156 112 CURVE SMOOTH",
"156 31 OFFCURVE",
"208 -17 OFFCURVE",
"289 -17 CURVE SMOOTH",
"408 -17 OFFCURVE",
"487 103 OFFCURVE",
"487 286 CURVE SMOOTH",
"487 481 OFFCURVE",
"394 594 OFFCURVE",
"250 594 CURVE SMOOTH",
"132 594 OFFCURVE",
"61 527 OFFCURVE",
"61 435 CURVE SMOOTH",
"61 378 OFFCURVE",
"85 332 OFFCURVE",
"119 302 CURVE",
"174 347 LINE",
"157 366 OFFCURVE",
"143 395 OFFCURVE",
"143 428 CURVE SMOOTH",
"143 487 OFFCURVE",
"184 525 OFFCURVE",
"252 525 CURVE SMOOTH",
"344 525 OFFCURVE",
"403 442 OFFCURVE",
"403 290 CURVE SMOOTH",
"403 142 OFFCURVE",
"357 51 OFFCURVE",
"289 51 CURVE SMOOTH",
"256 51 OFFCURVE",
"239 78 OFFCURVE",
"239 115 CURVE SMOOTH",
"239 175 OFFCURVE",
"286 228 OFFCURVE",
"434 255 CURVE SMOOTH",
"569 280 OFFCURVE",
"615 307 OFFCURVE",
"634 418 CURVE SMOOTH",
"646 487 OFFCURVE",
"680 525 OFFCURVE",
"739 525 CURVE",
"807 525 OFFCURVE",
"844 483 OFFCURVE",
"844 415 CURVE SMOOTH",
"844 332 OFFCURVE",
"766 263 OFFCURVE",
"766 170 CURVE SMOOTH",
"766 59 OFFCURVE",
"846 -17 OFFCURVE",
"976 -17 CURVE SMOOTH",
"1101 -17 OFFCURVE",
"1178 55 OFFCURVE",
"1178 177 CURVE SMOOTH",
"1178 260 OFFCURVE",
"1125 313 OFFCURVE",
"1058 313 CURVE SMOOTH",
"1007 313 OFFCURVE",
"970 285 OFFCURVE",
"970 236 CURVE SMOOTH",
"970 180 OFFCURVE",
"1024 144 OFFCURVE",
"1101 144 CURVE SMOOTH",
"1185 144 OFFCURVE",
"1256 196 OFFCURVE",
"1256 277 CURVE SMOOTH",
"1256 327 OFFCURVE",
"1226 379 OFFCURVE",
"1226 427 CURVE SMOOTH",
"1226 488 OFFCURVE",
"1267 525 OFFCURVE",
"1333 525 CURVE SMOOTH",
"1397 525 OFFCURVE",
"1438 487 OFFCURVE",
"1438 421 CURVE SMOOTH",
"1438 383 OFFCURVE",
"1421 348 OFFCURVE",
"1394 321 CURVE",
"1458 274 LINE",
"1501 319 OFFCURVE",
"1522 366 OFFCURVE",
"1522 421 CURVE SMOOTH"
);
}
);
width = 1575;
userData = {
RMXScaler = {
verticalShift = -124;
};
};
},
{
layerId = "134B12F2-BF5D-48E3-8003-C7502B438C7E";
paths = (
{
closed = 1;
nodes = (
"1649 551 OFFCURVE",
"1561 630 OFFCURVE",
"1423 630 CURVE SMOOTH",
"1286 630 OFFCURVE",
"1200 563 OFFCURVE",
"1200 465 CURVE SMOOTH",
"1200 395 OFFCURVE",
"1244 336 OFFCURVE",
"1244 288 CURVE SMOOTH",
"1244 248 OFFCURVE",
"1198 216 OFFCURVE",
"1159 216 CURVE SMOOTH",
"1115 216 OFFCURVE",
"1094 235 OFFCURVE",
"1094 257 CURVE SMOOTH",
"1094 274 OFFCURVE",
"1108 284 OFFCURVE",
"1125 284 CURVE SMOOTH",
"1157 284 OFFCURVE",
"1175 254 OFFCURVE",
"1175 200 CURVE SMOOTH",
"1175 121 OFFCURVE",
"1130 86 OFFCURVE",
"1060 86 CURVE SMOOTH",
"982 86 OFFCURVE",
"937 132 OFFCURVE",
"937 195 CURVE SMOOTH",
"937 264 OFFCURVE",
"1015 334 OFFCURVE",
"1015 442 CURVE SMOOTH",
"1015 555 OFFCURVE",
"923 630 OFFCURVE",
"799 630 CURVE SMOOTH",
"693 630 OFFCURVE",
"615 585 OFFCURVE",
"592 474 CURVE SMOOTH",
"569 362 OFFCURVE",
"527 348 OFFCURVE",
"422 336 CURVE SMOOTH",
"260 318 OFFCURVE",
"151 248 OFFCURVE",
"151 131 CURVE SMOOTH",
"151 33 OFFCURVE",
"217 -24 OFFCURVE",
"314 -24 CURVE SMOOTH",
"449 -24 OFFCURVE",
"542 102 OFFCURVE",
"542 292 CURVE SMOOTH",
"542 507 OFFCURVE",
"436 630 OFFCURVE",
"272 630 CURVE SMOOTH",
"141 630 OFFCURVE",
"58 558 OFFCURVE",
"58 456 CURVE SMOOTH",
"58 388 OFFCURVE",
"89 336 OFFCURVE",
"130 306 CURVE",
"221 382 LINE",
"208 393 OFFCURVE",
"195 416 OFFCURVE",
"195 444 CURVE SMOOTH",
"195 491 OFFCURVE",
"230 516 OFFCURVE",
"275 516 CURVE SMOOTH",
"353 516 OFFCURVE",
"401 443 OFFCURVE",
"401 299 CURVE SMOOTH",
"401 165 OFFCURVE",
"364 86 OFFCURVE",
"316 86 CURVE SMOOTH",
"290 86 OFFCURVE",
"277 107 OFFCURVE",
"277 136 CURVE SMOOTH",
"277 182 OFFCURVE",
"315 228 OFFCURVE",
"482 255 CURVE SMOOTH",
"623 278 OFFCURVE",
"674 309 OFFCURVE",
"694 416 CURVE SMOOTH",
"706 482 OFFCURVE",
"732 516 OFFCURVE",
"786 516 CURVE SMOOTH",
"842 516 OFFCURVE",
"870 481 OFFCURVE",
"870 429 CURVE SMOOTH",
"870 352 OFFCURVE",
"792 280 OFFCURVE",
"792 181 CURVE SMOOTH",
"792 59 OFFCURVE",
"885 -24 OFFCURVE",
"1040 -24 CURVE SMOOTH",
"1187 -24 OFFCURVE",
"1274 54 OFFCURVE",
"1274 193 CURVE SMOOTH",
"1274 287 OFFCURVE",
"1206 348 OFFCURVE",
"1126 348 CURVE SMOOTH",
"1064 348 OFFCURVE",
"1018 315 OFFCURVE",
"1018 255 CURVE SMOOTH",
"1018 189 OFFCURVE",
"1079 149 OFFCURVE",
"1171 149 CURVE SMOOTH",
"1267 149 OFFCURVE",
"1362 204 OFFCURVE",
"1362 295 CURVE SMOOTH",
"1362 346 OFFCURVE",
"1334 395 OFFCURVE",
"1334 437 CURVE SMOOTH",
"1334 486 OFFCURVE",
"1368 516 OFFCURVE",
"1423 516 CURVE SMOOTH",
"1474 516 OFFCURVE",
"1508 488 OFFCURVE",
"1508 434 CURVE SMOOTH",
"1508 402 OFFCURVE",
"1494 374 OFFCURVE",
"1469 349 CURVE",
"1578 273 LINE",
"1629 328 OFFCURVE",
"1649 375 OFFCURVE",
"1649 434 CURVE SMOOTH"
);
}
);
width = 1695;
userData = {
RMXScaler = {
verticalShift = -98;
};
};
},
{
layerId = "0A718E2F-231D-484E-9433-16A5230D2CE8";
paths = (
{
closed = 1;
nodes = (
"1730 567 OFFCURVE",
"1634 653 OFFCURVE",
"1480 653 CURVE SMOOTH",
"1329 653 OFFCURVE",
"1235 582 OFFCURVE",
"1235 480 CURVE SMOOTH",
"1235 406 OFFCURVE",
"1282 345 OFFCURVE",
"1282 297 CURVE SMOOTH",
"1282 263 OFFCURVE",
"1233 234 OFFCURVE",
"1200 234 CURVE SMOOTH",
"1160 234 OFFCURVE",
"1142 249 OFFCURVE",
"1142 268 CURVE SMOOTH",
"1142 285 OFFCURVE",
"1154 293 OFFCURVE",
"1168 293 CURVE SMOOTH",
"1197 293 OFFCURVE",
"1213 265 OFFCURVE",
"1213 212 CURVE SMOOTH",
"1213 137 OFFCURVE",
"1171 109 OFFCURVE",
"1107 109 CURVE SMOOTH",
"1033 109 OFFCURVE",
"991 151 OFFCURVE",
"991 208 CURVE SMOOTH",
"991 271 OFFCURVE",
"1069 343 OFFCURVE",
"1069 455 CURVE SMOOTH",
"1069 573 OFFCURVE",
"967 653 OFFCURVE",
"834 653 CURVE SMOOTH",
"721 653 OFFCURVE",
"636 608 OFFCURVE",
"611 490 CURVE SMOOTH",
"586 374 OFFCURVE",
"540 359 OFFCURVE",
"439 352 CURVE SMOOTH",
"271 340 OFFCURVE",
"147 267 OFFCURVE",
"147 143 CURVE SMOOTH",
"147 34 OFFCURVE",
"222 -29 OFFCURVE",
"330 -29 CURVE SMOOTH",
"475 -29 OFFCURVE",
"577 101 OFFCURVE",
"577 296 CURVE SMOOTH",
"577 524 OFFCURVE",
"463 653 OFFCURVE",
"286 653 CURVE SMOOTH",
"147 653 OFFCURVE",
"56 578 OFFCURVE",
"56 470 CURVE SMOOTH",
"56 395 OFFCURVE",
"91 339 OFFCURVE",
"137 309 CURVE",
"251 404 LINE",
"241 411 OFFCURVE",
"228 429 OFFCURVE",
"228 455 CURVE SMOOTH",
"228 494 OFFCURVE",
"259 511 OFFCURVE",
"290 511 CURVE SMOOTH",
"359 511 OFFCURVE",
"400 443 OFFCURVE",
"400 305 CURVE SMOOTH",
"400 179 OFFCURVE",
"369 109 OFFCURVE",
"333 109 CURVE SMOOTH",
"312 109 OFFCURVE",
"301 125 OFFCURVE",
"301 149 CURVE SMOOTH",
"301 187 OFFCURVE",
"333 228 OFFCURVE",
"512 255 CURVE SMOOTH",
"658 277 OFFCURVE",
"712 310 OFFCURVE",
"733 415 CURVE SMOOTH",
"746 479 OFFCURVE",
"766 511 OFFCURVE",
"816 511 CURVE SMOOTH",
"864 511 OFFCURVE",
"887 479 OFFCURVE",
"887 438 CURVE SMOOTH",
"887 364 OFFCURVE",
"809 291 OFFCURVE",
"809 188 CURVE SMOOTH",
"809 59 OFFCURVE",
"910 -29 OFFCURVE",
"1081 -29 CURVE SMOOTH",
"1242 -29 OFFCURVE",
"1335 53 OFFCURVE",
"1335 203 CURVE SMOOTH",
"1335 305 OFFCURVE",
"1258 371 OFFCURVE",
"1170 371 CURVE SMOOTH",
"1100 371 OFFCURVE",
"1049 334 OFFCURVE",
"1049 267 CURVE SMOOTH",
"1049 195 OFFCURVE",
"1114 152 OFFCURVE",
"1216 152 CURVE SMOOTH",
"1319 152 OFFCURVE",
"1430 209 OFFCURVE",
"1430 306 CURVE SMOOTH",
"1430 358 OFFCURVE",
"1403 405 OFFCURVE",
"1403 443 CURVE SMOOTH",
"1403 485 OFFCURVE",
"1433 511 OFFCURVE",
"1480 511 CURVE SMOOTH",
"1523 511 OFFCURVE",
"1552 488 OFFCURVE",
"1552 442 CURVE SMOOTH",
"1552 414 OFFCURVE",
"1541 390 OFFCURVE",
"1517 367 CURVE",
"1655 272 LINE",
"1711 334 OFFCURVE",
"1730 380 OFFCURVE",
"1730 443 CURVE SMOOTH"
);
}
);
width = 1772;
userData = {
RMXScaler = {
verticalShift = -82;
};
};
},
{
layerId = "AB666A95-3AF9-4DE8-B258-097FFCFE8A59";
paths = (
{
closed = 1;
nodes = (
"1388 497 OFFCURVE",
"1327 556 OFFCURVE",
"1238 556 CURVE SMOOTH",
"1148 556 OFFCURVE",
"1088 501 OFFCURVE",
"1088 417 CURVE SMOOTH",
"1088 359 OFFCURVE",
"1121 305 OFFCURVE",
"1121 259 CURVE SMOOTH",
"1121 198 OFFCURVE",
"1087 160 OFFCURVE",
"1026 160 CURVE SMOOTH",
"977 160 OFFCURVE",
"941 182 OFFCURVE",
"941 216 CURVE SMOOTH",
"941 243 OFFCURVE",
"961 255 OFFCURVE",
"985 255 CURVE SMOOTH",
"1028 255 OFFCURVE",
"1054 221 OFFCURVE",
"1054 161 CURVE SMOOTH",
"1054 68 OFFCURVE",
"998 12 OFFCURVE",
"907 12 CURVE SMOOTH",
"817 12 OFFCURVE",
"761 70 OFFCURVE",
"761 155 CURVE SMOOTH",
"761 240 OFFCURVE",
"840 305 OFFCURVE",
"840 400 CURVE SMOOTH",
"840 496 OFFCURVE",
"781 556 OFFCURVE",
"688 556 CURVE SMOOTH",
"603 556 OFFCURVE",
"543 509 OFFCURVE",
"529 415 CURVE SMOOTH",
"514 316 OFFCURVE",
"485 304 OFFCURVE",
"367 274 CURVE SMOOTH",
"243 243 OFFCURVE",
"174 174 OFFCURVE",
"174 82 CURVE SMOOTH",
"174 26 OFFCURVE",
"206 -10 OFFCURVE",
"262 -10 CURVE SMOOTH",
"366 -10 OFFCURVE",
"430 104 OFFCURVE",
"430 280 CURVE SMOOTH",
"430 453 OFFCURVE",
"348 556 OFFCURVE",
"225 556 CURVE SMOOTH",
"122 556 OFFCURVE",
"64 495 OFFCURVE",
"64 412 CURVE SMOOTH",
"64 368 OFFCURVE",
"80 328 OFFCURVE",
"106 297 CURVE",
"124 311 LINE",
"102 338 OFFCURVE",
"88 373 OFFCURVE",
"88 412 CURVE SMOOTH",
"88 483 OFFCURVE",
"135 534 OFFCURVE",
"226 534 CURVE SMOOTH",
"334 534 OFFCURVE",
"406 441 OFFCURVE",
"406 280 CURVE SMOOTH",
"406 116 OFFCURVE",
"350 12 OFFCURVE",
"261 12 CURVE SMOOTH",
"221 12 OFFCURVE",
"198 43 OFFCURVE",
"198 83 CURVE SMOOTH",
"198 163 OFFCURVE",
"258 225 OFFCURVE",
"375 254 CURVE SMOOTH",
"499 285 OFFCURVE",
"537 304 OFFCURVE",
"552 411 CURVE SMOOTH",
"564 494 OFFCURVE",
"616 534 OFFCURVE",
"687 534 CURVE SMOOTH",
"769 534 OFFCURVE",
"816 485 OFFCURVE",
"816 400 CURVE SMOOTH",
"816 312 OFFCURVE",
"737 246 OFFCURVE",
"737 158 CURVE SMOOTH",
"737 59 OFFCURVE",
"805 -10 OFFCURVE",
"907 -10 CURVE SMOOTH",
"1010 -10 OFFCURVE",
"1077 57 OFFCURVE",
"1077 161 CURVE SMOOTH",
"1077 231 OFFCURVE",
"1040 276 OFFCURVE",
"985 276 CURVE SMOOTH",
"947 276 OFFCURVE",
"918 253 OFFCURVE",
"918 217 CURVE SMOOTH",
"918 171 OFFCURVE",
"965 139 OFFCURVE",
"1026 139 CURVE SMOOTH",
"1099 139 OFFCURVE",
"1144 187 OFFCURVE",
"1144 259 CURVE SMOOTH",
"1144 308 OFFCURVE",
"1112 362 OFFCURVE",
"1112 417 CURVE SMOOTH",
"1112 490 OFFCURVE",
"1160 534 OFFCURVE",
"1238 534 CURVE SMOOTH",
"1315 534 OFFCURVE",
"1364 486 OFFCURVE",
"1364 408 CURVE SMOOTH",
"1364 363 OFFCURVE",
"1344 321 OFFCURVE",
"1315 292 CURVE",
"1331 276 LINE",
"1365 309 OFFCURVE",
"1388 357 OFFCURVE",
"1388 408 CURVE SMOOTH"
);
}
);
width = 1448;
userData = {
RMXScaler = {
verticalShift = -151;
};
};
}
);
leftKerningGroup = cha;
leftMetricsKey = cha_cham;
note = uniAA0D;
rightKerningGroup = dha;
rightMetricsKey = dha_cham;
unicode = AA0D;
script = cham;
category = Letter;
subCategory = Spacing;
userData = {
RMXScaler = {
source = "chha-cham";
};
};
},
{
glyphname = ja_cham;
production = uniAA0E;
lastChange = "2017-04-21 12:56:16 +0000";
layers = (
{
layerId = "9FF96064-8718-4A86-A5C8-73C592101F67";
paths = (
{
closed = 1;
nodes = (
"1277 523 OFFCURVE",
"1205 594 OFFCURVE",
"1093 594 CURVE SMOOTH",
"982 594 OFFCURVE",
"904 518 OFFCURVE",
"904 390 CURVE",
"957 390 LINE",
"957 518 OFFCURVE",
"876 594 OFFCURVE",
"764 594 CURVE SMOOTH",
"657 594 OFFCURVE",
"584 525 OFFCURVE",
"584 423 CURVE SMOOTH",
"584 334 OFFCURVE",
"625 272 OFFCURVE",
"625 207 CURVE SMOOTH",
"625 116 OFFCURVE",
"546 56 OFFCURVE",
"408 33 CURVE",
"408 -16 LINE",
"475 42 OFFCURVE",
"506 108 OFFCURVE",
"506 174 CURVE SMOOTH",
"506 262 OFFCURVE",
"442 316 OFFCURVE",
"357 316 CURVE SMOOTH",
"340 316 OFFCURVE",
"322 313 OFFCURVE",
"304 309 CURVE",
"326 264 LINE",
"399 291 OFFCURVE",
"441 357 OFFCURVE",
"441 426 CURVE SMOOTH",
"441 527 OFFCURVE",
"361 594 OFFCURVE",
"248 594 CURVE SMOOTH",
"132 594 OFFCURVE",
"53 524 OFFCURVE",
"53 420 CURVE SMOOTH",
"53 368 OFFCURVE",
"74 315 OFFCURVE",
"118 275 CURVE",
"180 323 LINE",
"154 347 OFFCURVE",
"137 383 OFFCURVE",
"137 421 CURVE SMOOTH",
"137 485 OFFCURVE",
"181 525 OFFCURVE",
"247 525 CURVE SMOOTH",
"313 525 OFFCURVE",
"355 482 OFFCURVE",
"355 422 CURVE SMOOTH",
"355 371 OFFCURVE",
"326 325 OFFCURVE",
"271 302 CURVE",
"286 252 LINE",
"302 256 OFFCURVE",
"317 259 OFFCURVE",
"331 259 CURVE SMOOTH",
"384 259 OFFCURVE",
"422 224 OFFCURVE",
"422 162 CURVE SMOOTH",
"422 107 OFFCURVE",
"399 60 OFFCURVE",
"351 1 CURVE",
"368 -44 LINE",
"573 -8 OFFCURVE",
"711 83 OFFCURVE",
"711 208 CURVE SMOOTH",
"711 285 OFFCURVE",
"669 345 OFFCURVE",
"669 420 CURVE SMOOTH",
"669 482 OFFCURVE",
"711 525 OFFCURVE",
"778 525 CURVE SMOOTH",
"846 525 OFFCURVE",
"896 477 OFFCURVE",
"894 380 CURVE",
"967 380 LINE",
"965 480 OFFCURVE",
"1016 525 OFFCURVE",
"1084 525 CURVE SMOOTH",
"1151 525 OFFCURVE",
"1193 483 OFFCURVE",
"1193 418 CURVE SMOOTH",
"1193 379 OFFCURVE",
"1180 347 OFFCURVE",
"1155 320 CURVE",
"1218 274 LINE",
"1260 318 OFFCURVE",
"1277 363 OFFCURVE",
"1277 418 CURVE SMOOTH"
);
}
);
width = 1330;
userData = {
RMXScaler = {
verticalShift = -124;
};
};
},
{
layerId = "134B12F2-BF5D-48E3-8003-C7502B438C7E";
paths = (
{
closed = 1;
nodes = (
"1382 550 OFFCURVE",
"1298 630 OFFCURVE",
"1174 630 CURVE SMOOTH",
"1046 630 OFFCURVE",
"959 544 OFFCURVE",
"959 405 CURVE",
"1045 405 LINE",
"1045 544 OFFCURVE",
"953 630 OFFCURVE",
"825 630 CURVE SMOOTH",
"704 630 OFFCURVE",
"621 554 OFFCURVE",
"621 440 CURVE SMOOTH",
"621 349 OFFCURVE",
"661 285 OFFCURVE",
"661 226 CURVE SMOOTH",
"661 138 OFFCURVE",
"594 96 OFFCURVE",
"467 76 CURVE",
"458 -3 LINE",
"540 57 OFFCURVE",
"573 126 OFFCURVE",
"573 194 CURVE SMOOTH",
"573 291 OFFCURVE",
"497 345 OFFCURVE",
"400 345 CURVE SMOOTH",
"379 345 OFFCURVE",
"357 342 OFFCURVE",
"335 337 CURVE",
"371 259 LINE",
"458 290 OFFCURVE",
"508 364 OFFCURVE",
"508 440 CURVE SMOOTH",
"508 555 OFFCURVE",
"413 630 OFFCURVE",
"279 630 CURVE SMOOTH",
"140 630 OFFCURVE",
"46 550 OFFCURVE",
"46 430 CURVE SMOOTH",
"46 376 OFFCURVE",
"67 318 OFFCURVE",
"120 271 CURVE",
"225 350 LINE",
"202 371 OFFCURVE",
"188 401 OFFCURVE",
"188 433 CURVE SMOOTH",
"188 485 OFFCURVE",
"224 516 OFFCURVE",
"277 516 CURVE SMOOTH",
"332 516 OFFCURVE",
"364 478 OFFCURVE",
"364 431 CURVE SMOOTH",
"364 383 OFFCURVE",
"333 343 OFFCURVE",
"275 323 CURVE",
"302 242 LINE",
"318 248 OFFCURVE",
"335 252 OFFCURVE",
"351 252 CURVE SMOOTH",
"394 252 OFFCURVE",
"432 226 OFFCURVE",
"432 170 CURVE SMOOTH",
"432 118 OFFCURVE",
"412 80 OFFCURVE",
"361 15 CURVE",
"385 -54 LINE",
"630 -9 OFFCURVE",
"807 85 OFFCURVE",
"807 228 CURVE SMOOTH",
"807 305 OFFCURVE",
"765 366 OFFCURVE",
"765 435 CURVE SMOOTH",
"765 481 OFFCURVE",
"798 516 OFFCURVE",
"850 516 CURVE SMOOTH",
"906 516 OFFCURVE",
"945 476 OFFCURVE",
"941 387 CURVE",
"1063 387 LINE",
"1058 479 OFFCURVE",
"1100 516 OFFCURVE",
"1156 516 CURVE SMOOTH",
"1207 516 OFFCURVE",
"1241 484 OFFCURVE",
"1241 433 CURVE SMOOTH",
"1241 399 OFFCURVE",
"1229 373 OFFCURVE",
"1204 349 CURVE",
"1312 273 LINE",
"1363 325 OFFCURVE",
"1382 373 OFFCURVE",
"1382 432 CURVE SMOOTH"
);
}
);
width = 1428;
userData = {
RMXScaler = {
verticalShift = -98;
};
};
},
{
layerId = "0A718E2F-231D-484E-9433-16A5230D2CE8";
paths = (
{
closed = 1;
nodes = (
"1449 567 OFFCURVE",
"1358 653 OFFCURVE",
"1226 653 CURVE SMOOTH",
"1087 653 OFFCURVE",
"994 560 OFFCURVE",
"994 414 CURVE",
"1101 414 LINE",
"1101 560 OFFCURVE",
"1003 653 OFFCURVE",
"864 653 CURVE SMOOTH",
"734 653 OFFCURVE",
"645 572 OFFCURVE",
"645 451 CURVE SMOOTH",
"645 358 OFFCURVE",
"684 293 OFFCURVE",
"684 238 CURVE SMOOTH",
"684 152 OFFCURVE",
"624 121 OFFCURVE",
"504 104 CURVE",
"490 5 LINE",
"582 66 OFFCURVE",
"616 138 OFFCURVE",
"616 207 CURVE SMOOTH",
"616 310 OFFCURVE",
"532 363 OFFCURVE",
"428 363 CURVE SMOOTH",
"404 363 OFFCURVE",
"379 360 OFFCURVE",
"354 355 CURVE",
"399 256 LINE",
"496 289 OFFCURVE",
"551 368 OFFCURVE",
"551 449 CURVE SMOOTH",
"551 573 OFFCURVE",
"446 653 OFFCURVE",
"299 653 CURVE SMOOTH",
"145 653 OFFCURVE",
"42 567 OFFCURVE",
"42 437 CURVE SMOOTH",
"42 381 OFFCURVE",
"63 320 OFFCURVE",
"121 269 CURVE",
"254 368 LINE",
"233 387 OFFCURVE",
"220 413 OFFCURVE",
"220 441 CURVE SMOOTH",
"220 485 OFFCURVE",
"251 511 OFFCURVE",
"296 511 CURVE SMOOTH",
"344 511 OFFCURVE",
"369 476 OFFCURVE",
"369 437 CURVE SMOOTH",
"369 390 OFFCURVE",
"337 355 OFFCURVE",
"278 336 CURVE",
"312 236 LINE",
"328 243 OFFCURVE",
"346 247 OFFCURVE",
"363 247 CURVE SMOOTH",
"400 247 OFFCURVE",
"438 227 OFFCURVE",
"438 175 CURVE SMOOTH",
"438 125 OFFCURVE",
"420 92 OFFCURVE",
"367 24 CURVE",
"396 -61 LINE",
"666 -10 OFFCURVE",
"868 86 OFFCURVE",
"868 241 CURVE SMOOTH",
"868 318 OFFCURVE",
"827 380 OFFCURVE",
"827 445 CURVE SMOOTH",
"827 480 OFFCURVE",
"853 511 OFFCURVE",
"896 511 CURVE SMOOTH",
"945 511 OFFCURVE",
"977 476 OFFCURVE",
"971 391 CURVE",
"1124 391 LINE",
"1118 478 OFFCURVE",
"1154 511 OFFCURVE",
"1202 511 CURVE SMOOTH",
"1243 511 OFFCURVE",
"1271 484 OFFCURVE",
"1271 443 CURVE SMOOTH",
"1271 412 OFFCURVE",
"1260 390 OFFCURVE",
"1236 367 CURVE",
"1372 272 LINE",
"1429 329 OFFCURVE",
"1449 379 OFFCURVE",
"1449 441 CURVE SMOOTH"
);
}
);
width = 1491;
userData = {
RMXScaler = {
verticalShift = -82;
};
};
},
{
layerId = "AB666A95-3AF9-4DE8-B258-097FFCFE8A59";
paths = (
{
closed = 1;
nodes = (
"1167 494 OFFCURVE",
"1107 556 OFFCURVE",
"1008 556 CURVE SMOOTH",
"915 556 OFFCURVE",
"848 490 OFFCURVE",
"848 374 CURVE",
"863 374 LINE",
"864 490 OFFCURVE",
"796 556 OFFCURVE",
"701 556 CURVE SMOOTH",
"608 556 OFFCURVE",
"545 495 OFFCURVE",
"545 406 CURVE SMOOTH",
"545 319 OFFCURVE",
"587 259 OFFCURVE",
"587 187 CURVE SMOOTH",
"587 92 OFFCURVE",
"495 14 OFFCURVE",
"347 -13 CURVE",
"355 -30 LINE",
"406 27 OFFCURVE",
"435 89 OFFCURVE",
"435 154 CURVE SMOOTH",
"435 231 OFFCURVE",
"385 285 OFFCURVE",
"311 285 CURVE SMOOTH",
"299 285 OFFCURVE",
"286 283 OFFCURVE",
"272 280 CURVE",
"278 269 LINE",
"337 293 OFFCURVE",
"370 350 OFFCURVE",
"370 412 CURVE SMOOTH",
"370 498 OFFCURVE",
"306 556 OFFCURVE",
"215 556 CURVE SMOOTH",
"124 556 OFFCURVE",
"60 496 OFFCURVE",
"60 409 CURVE SMOOTH",
"60 360 OFFCURVE",
"81 312 OFFCURVE",
"115 280 CURVE",
"132 295 LINE",
"103 322 OFFCURVE",
"84 364 OFFCURVE",
"84 409 CURVE SMOOTH",
"84 484 OFFCURVE",
"136 534 OFFCURVE",
"215 534 CURVE SMOOTH",
"294 534 OFFCURVE",
"346 486 OFFCURVE",
"346 412 CURVE SMOOTH",
"346 358 OFFCURVE",
"318 306 OFFCURVE",
"266 280 CURVE",
"270 262 LINE",
"285 265 OFFCURVE",
"298 266 OFFCURVE",
"311 266 CURVE SMOOTH",
"373 266 OFFCURVE",
"411 222 OFFCURVE",
"411 154 CURVE SMOOTH",
"411 95 OFFCURVE",
"385 38 OFFCURVE",
"340 -14 CURVE",
"351 -33 LINE",
"513 -6 OFFCURVE",
"611 80 OFFCURVE",
"611 187 CURVE SMOOTH",
"611 264 OFFCURVE",
"569 322 OFFCURVE",
"569 405 CURVE SMOOTH",
"569 484 OFFCURVE",
"620 534 OFFCURVE",
"703 534 CURVE SMOOTH",
"784 534 OFFCURVE",
"844 478 OFFCURVE",
"844 372 CURVE",
"867 372 LINE",
"867 481 OFFCURVE",
"928 534 OFFCURVE",
"1008 534 CURVE SMOOTH",
"1092 534 OFFCURVE",
"1143 482 OFFCURVE",
"1143 403 CURVE SMOOTH",
"1143 359 OFFCURVE",
"1129 319 OFFCURVE",
"1103 290 CURVE",
"1120 275 LINE",
"1152 310 OFFCURVE",
"1167 353 OFFCURVE",
"1167 403 CURVE SMOOTH"
);
}
);
width = 1227;
userData = {
RMXScaler = {
verticalShift = -151;
};
};
}
);
leftKerningGroup = dha;
leftMetricsKey = dha_cham;
note = uniAA0E;
rightKerningGroup = dha;
rightMetricsKey = dha_cham;
unicode = AA0E;
script = cham;
category = Letter;
subCategory = Spacing;
userData = {
RMXScaler = {
source = "ja-cham";
};
};
},
{
glyphname = jha_cham;
production = uniAA0F;
lastChange = "2017-04-21 12:56:16 +0000";
layers = (
{
components = (
{
name = ra_cham;
transform = "{1, 0, 0, 1, 621, 0}";
}
);
layerId = "9FF96064-8718-4A86-A5C8-73C592101F67";
paths = (
{
closed = 1;
nodes = (
"820 526 OFFCURVE",
"737 594 OFFCURVE",
"615 594 CURVE SMOOTH",
"493 594 OFFCURVE",
"412 524 OFFCURVE",
"412 424 CURVE SMOOTH",
"412 337 OFFCURVE",
"455 278 OFFCURVE",
"455 196 CURVE SMOOTH",
"455 100 OFFCURVE",
"395 48 OFFCURVE",
"292 48 CURVE SMOOTH",
"195 48 OFFCURVE",
"132 96 OFFCURVE",
"132 166 CURVE SMOOTH",
"132 216 OFFCURVE",
"164 251 OFFCURVE",
"217 251 CURVE SMOOTH",
"270 251 OFFCURVE",
"303 215 OFFCURVE",
"303 152 CURVE SMOOTH",
"303 116 OFFCURVE",
"290 71 OFFCURVE",
"276 43 CURVE",
"343 43 LINE",
"356 68 OFFCURVE",
"374 114 OFFCURVE",
"374 163 CURVE SMOOTH",
"374 258 OFFCURVE",
"308 317 OFFCURVE",
"214 317 CURVE SMOOTH",
"114 317 OFFCURVE",
"53 251 OFFCURVE",
"53 165 CURVE SMOOTH",
"53 57 OFFCURVE",
"151 -17 OFFCURVE",
"304 -17 CURVE SMOOTH",
"453 -17 OFFCURVE",
"540 65 OFFCURVE",
"540 191 CURVE SMOOTH",
"540 285 OFFCURVE",
"497 346 OFFCURVE",
"497 417 CURVE SMOOTH",
"497 482 OFFCURVE",
"544 525 OFFCURVE",
"619 525 CURVE SMOOTH",
"692 525 OFFCURVE",
"734 479 OFFCURVE",
"734 412 CURVE SMOOTH",
"734 332 OFFCURVE",
"674 261 OFFCURVE",
"674 161 CURVE",
"737 171 LINE",
"737 249 OFFCURVE",
"820 321 OFFCURVE",
"820 421 CURVE SMOOTH"
);
}
);
width = 1485;
userData = {
RMXScaler = {
verticalShift = -124;
};
};
},
{
components = (
{
name = ra_cham;
transform = "{1, 0, 0, 1, 671, 0}";
}
);
layerId = "134B12F2-BF5D-48E3-8003-C7502B438C7E";
paths = (
{
closed = 1;
nodes = (
"917 558 OFFCURVE",
"814 630 OFFCURVE",
"668 630 CURVE SMOOTH",
"522 630 OFFCURVE",
"427 552 OFFCURVE",
"427 442 CURVE SMOOTH",
"427 354 OFFCURVE",
"470 293 OFFCURVE",
"470 213 CURVE SMOOTH",
"470 120 OFFCURVE",
"410 71 OFFCURVE",
"312 71 CURVE SMOOTH",
"219 71 OFFCURVE",
"162 117 OFFCURVE",
"162 179 CURVE SMOOTH",
"162 221 OFFCURVE",
"188 250 OFFCURVE",
"232 250 CURVE SMOOTH",
"276 250 OFFCURVE",
"303 218 OFFCURVE",
"303 164 CURVE SMOOTH",
"303 132 OFFCURVE",
"292 92 OFFCURVE",
"278 66 CURVE",
"374 66 LINE",
"387 89 OFFCURVE",
"406 133 OFFCURVE",
"406 183 CURVE SMOOTH",
"406 282 OFFCURVE",
"332 344 OFFCURVE",
"227 344 CURVE SMOOTH",
"113 344 OFFCURVE",
"46 271 OFFCURVE",
"46 177 CURVE SMOOTH",
"46 58 OFFCURVE",
"156 -24 OFFCURVE",
"336 -24 CURVE SMOOTH",
"509 -24 OFFCURVE",
"612 68 OFFCURVE",
"612 204 CURVE SMOOTH",
"612 301 OFFCURVE",
"571 363 OFFCURVE",
"571 429 CURVE SMOOTH",
"571 482 OFFCURVE",
"610 516 OFFCURVE",
"674 516 CURVE SMOOTH",
"737 516 OFFCURVE",
"772 479 OFFCURVE",
"772 427 CURVE SMOOTH",
"772 352 OFFCURVE",
"717 279 OFFCURVE",
"717 175 CURVE",
"822 194 LINE",
"822 262 OFFCURVE",
"917 337 OFFCURVE",
"917 443 CURVE SMOOTH"
);
}
);
width = 1610;
userData = {
RMXScaler = {
verticalShift = -98;
};
};
},
{
components = (
{
name = ra_cham;
transform = "{1, 0, 0, 1, 703, 0}";
}
);
layerId = "0A718E2F-231D-484E-9433-16A5230D2CE8";
paths = (
{
closed = 1;
nodes = (
"979 578 OFFCURVE",
"864 653 OFFCURVE",
"702 653 CURVE SMOOTH",
"540 653 OFFCURVE",
"437 570 OFFCURVE",
"437 454 CURVE SMOOTH",
"437 365 OFFCURVE",
"480 302 OFFCURVE",
"480 224 CURVE SMOOTH",
"480 132 OFFCURVE",
"419 85 OFFCURVE",
"325 85 CURVE SMOOTH",
"235 85 OFFCURVE",
"181 130 OFFCURVE",
"181 187 CURVE SMOOTH",
"181 224 OFFCURVE",
"204 249 OFFCURVE",
"241 249 CURVE SMOOTH",
"280 249 OFFCURVE",
"303 220 OFFCURVE",
"303 171 CURVE SMOOTH",
"303 142 OFFCURVE",
"294 106 OFFCURVE",
"280 80 CURVE",
"393 80 LINE",
"407 102 OFFCURVE",
"426 145 OFFCURVE",
"426 196 CURVE SMOOTH",
"426 298 OFFCURVE",
"347 361 OFFCURVE",
"236 361 CURVE SMOOTH",
"112 361 OFFCURVE",
"42 284 OFFCURVE",
"42 184 CURVE SMOOTH",
"42 58 OFFCURVE",
"159 -29 OFFCURVE",
"357 -29 CURVE SMOOTH",
"545 -29 OFFCURVE",
"658 70 OFFCURVE",
"658 213 CURVE SMOOTH",
"658 312 OFFCURVE",
"618 375 OFFCURVE",
"618 436 CURVE SMOOTH",
"618 482 OFFCURVE",
"653 511 OFFCURVE",
"709 511 CURVE SMOOTH",
"766 511 OFFCURVE",
"797 479 OFFCURVE",
"797 436 CURVE SMOOTH",
"797 364 OFFCURVE",
"745 291 OFFCURVE",
"745 184 CURVE",
"877 208 LINE",
"877 271 OFFCURVE",
"979 348 OFFCURVE",
"979 457 CURVE SMOOTH"
);
}
);
width = 1690;
userData = {
RMXScaler = {
verticalShift = -82;
};
};
},
{
components = (
{
name = ra_cham;
transform = "{1, 0, 0, 1, 565, 0}";
}
);
layerId = "AB666A95-3AF9-4DE8-B258-097FFCFE8A59";
paths = (
{
closed = 1;
nodes = (
"715 492 OFFCURVE",
"653 556 OFFCURVE",
"557 556 CURVE SMOOTH",
"459 556 OFFCURVE",
"393 495 OFFCURVE",
"393 406 CURVE SMOOTH",
"393 319 OFFCURVE",
"437 263 OFFCURVE",
"437 178 CURVE SMOOTH",
"437 72 OFFCURVE",
"376 12 OFFCURVE",
"262 12 CURVE SMOOTH",
"157 12 OFFCURVE",
"84 64 OFFCURVE",
"84 147 CURVE SMOOTH",
"84 209 OFFCURVE",
"123 255 OFFCURVE",
"193 255 CURVE SMOOTH",
"257 255 OFFCURVE",
"300 210 OFFCURVE",
"300 134 CURVE SMOOTH",
"300 91 OFFCURVE",
"283 39 OFFCURVE",
"269 8 CURVE",
"293 8 LINE",
"306 37 OFFCURVE",
"324 85 OFFCURVE",
"324 134 CURVE SMOOTH",
"324 221 OFFCURVE",
"269 276 OFFCURVE",
"192 276 CURVE SMOOTH",
"111 276 OFFCURVE",
"60 220 OFFCURVE",
"60 147 CURVE SMOOTH",
"60 53 OFFCURVE",
"145 -10 OFFCURVE",
"261 -10 CURVE SMOOTH",
"388 -10 OFFCURVE",
"461 61 OFFCURVE",
"461 177 CURVE SMOOTH",
"461 268 OFFCURVE",
"417 324 OFFCURVE",
"417 405 CURVE SMOOTH",
"417 483 OFFCURVE",
"471 534 OFFCURVE",
"558 534 CURVE SMOOTH",
"641 534 OFFCURVE",
"691 480 OFFCURVE",
"691 397 CURVE SMOOTH",
"691 311 OFFCURVE",
"625 242 OFFCURVE",
"625 147 CURVE",
"645 147 LINE",
"645 235 OFFCURVE",
"715 304 OFFCURVE",
"715 397 CURVE SMOOTH"
);
}
);
width = 1346;
userData = {
RMXScaler = {
verticalShift = -151;
};
};
}
);
leftKerningGroup = ha;
leftMetricsKey = dha_cham;
note = uniAA0F;
rightKerningGroup = dha;
rightMetricsKey = dha_cham;
unicode = AA0F;
script = cham;
category = Letter;
subCategory = Spacing;
userData = {
RMXScaler = {
source = "jha-cham";
};
};
},
{
glyphname = nhue_cham;
production = uniAA10;
lastChange = "2017-04-21 12:56:16 +0000";
layers = (
{
layerId = "9FF96064-8718-4A86-A5C8-73C592101F67";
paths = (
{
closed = 1;
nodes = (
"1299 523 OFFCURVE",
"1227 594 OFFCURVE",
"1115 594 CURVE SMOOTH",
"1021 594 OFFCURVE",
"951 550 OFFCURVE",
"933 449 CURVE SMOOTH",
"914 344 OFFCURVE",
"877 330 OFFCURVE",
"767 312 CURVE SMOOTH",
"621 288 OFFCURVE",
"527 218 OFFCURVE",
"527 112 CURVE SMOOTH",
"527 31 OFFCURVE",
"579 -17 OFFCURVE",
"660 -17 CURVE SMOOTH",
"779 -17 OFFCURVE",
"858 103 OFFCURVE",
"858 286 CURVE SMOOTH",
"858 481 OFFCURVE",
"779 594 OFFCURVE",
"669 594 CURVE SMOOTH",
"553 594 OFFCURVE",
"530 513 OFFCURVE",
"470 513 CURVE SMOOTH",
"410 513 OFFCURVE",
"385 594 OFFCURVE",
"271 594 CURVE SMOOTH",
"157 594 OFFCURVE",
"80 485 OFFCURVE",
"80 308 CURVE SMOOTH",
"80 105 OFFCURVE",
"177 -19 OFFCURVE",
"309 -19 CURVE SMOOTH",
"382 -19 OFFCURVE",
"427 23 OFFCURVE",
"427 82 CURVE SMOOTH",
"427 143 OFFCURVE",
"381 182 OFFCURVE",
"317 182 CURVE SMOOTH",
"245 182 OFFCURVE",
"196 129 OFFCURVE",
"183 48 CURVE",
"235 48 LINE",
"243 93 OFFCURVE",
"270 131 OFFCURVE",
"316 131 CURVE SMOOTH",
"346 131 OFFCURVE",
"370 116 OFFCURVE",
"370 83 CURVE SMOOTH",
"370 54 OFFCURVE",
"349 35 OFFCURVE",
"314 35 CURVE SMOOTH",
"232 35 OFFCURVE",
"166 130 OFFCURVE",
"166 308 CURVE SMOOTH",
"166 441 OFFCURVE",
"218 518 OFFCURVE",
"287 518 CURVE SMOOTH",
"369 518 OFFCURVE",
"381 437 OFFCURVE",
"470 437 CURVE SMOOTH",
"559 437 OFFCURVE",
"571 518 OFFCURVE",
"653 518 CURVE SMOOTH",
"718 518 OFFCURVE",
"774 437 OFFCURVE",
"774 290 CURVE SMOOTH",
"774 142 OFFCURVE",
"728 51 OFFCURVE",
"660 51 CURVE SMOOTH",
"627 51 OFFCURVE",
"610 78 OFFCURVE",
"610 115 CURVE SMOOTH",
"610 175 OFFCURVE",
"657 228 OFFCURVE",
"805 255 CURVE SMOOTH",
"940 280 OFFCURVE",
"986 307 OFFCURVE",
"1005 418 CURVE SMOOTH",
"1017 487 OFFCURVE",
"1051 525 OFFCURVE",
"1110 525 CURVE SMOOTH",
"1175 525 OFFCURVE",
"1215 484 OFFCURVE",
"1215 418 CURVE SMOOTH",
"1215 380 OFFCURVE",
"1202 347 OFFCURVE",
"1177 320 CURVE",
"1240 274 LINE",
"1282 318 OFFCURVE",
"1299 363 OFFCURVE",
"1299 417 CURVE SMOOTH"
);
}
);
width = 1352;
userData = {
RMXScaler = {
verticalShift = -124;
};
};
},
{
layerId = "134B12F2-BF5D-48E3-8003-C7502B438C7E";
paths = (
{
closed = 1;
nodes = (
"1372 550 OFFCURVE",
"1289 630 OFFCURVE",
"1161 630 CURVE SMOOTH",
"1055 630 OFFCURVE",
"976 585 OFFCURVE",
"954 474 CURVE SMOOTH",
"932 363 OFFCURVE",
"889 347 OFFCURVE",
"784 336 CURVE SMOOTH",
"625 320 OFFCURVE",
"512 248 OFFCURVE",
"512 131 CURVE SMOOTH",
"512 33 OFFCURVE",
"578 -24 OFFCURVE",
"676 -24 CURVE SMOOTH",
"811 -24 OFFCURVE",
"904 102 OFFCURVE",
"904 292 CURVE SMOOTH",
"904 507 OFFCURVE",
"810 630 OFFCURVE",
"687 630 CURVE SMOOTH",
"568 630 OFFCURVE",
"547 550 OFFCURVE",
"488 550 CURVE SMOOTH",
"428 550 OFFCURVE",
"407 630 OFFCURVE",
"288 630 CURVE SMOOTH",
"160 630 OFFCURVE",
"71 512 OFFCURVE",
"71 322 CURVE SMOOTH",
"71 106 OFFCURVE",
"165 -25 OFFCURVE",
"322 -25 CURVE SMOOTH",
"409 -25 OFFCURVE",
"461 25 OFFCURVE",
"461 95 CURVE SMOOTH",
"461 168 OFFCURVE",
"407 214 OFFCURVE",
"332 214 CURVE SMOOTH",
"249 214 OFFCURVE",
"191 150 OFFCURVE",
"179 58 CURVE",
"249 58 LINE",
"255 100 OFFCURVE",
"282 143 OFFCURVE",
"330 143 CURVE SMOOTH",
"356 143 OFFCURVE",
"382 131 OFFCURVE",
"382 96 CURVE SMOOTH",
"382 69 OFFCURVE",
"363 51 OFFCURVE",
"332 51 CURVE SMOOTH",
"250 51 OFFCURVE",
"215 152 OFFCURVE",
"215 306 CURVE SMOOTH",
"215 442 OFFCURVE",
"260 508 OFFCURVE",
"320 508 CURVE SMOOTH",
"390 508 OFFCURVE",
"408 428 OFFCURVE",
"488 428 CURVE SMOOTH",
"567 428 OFFCURVE",
"585 508 OFFCURVE",
"655 508 CURVE SMOOTH",
"714 508 OFFCURVE",
"763 441 OFFCURVE",
"763 299 CURVE SMOOTH",
"763 165 OFFCURVE",
"726 86 OFFCURVE",
"678 86 CURVE SMOOTH",
"652 86 OFFCURVE",
"639 107 OFFCURVE",
"639 136 CURVE SMOOTH",
"639 182 OFFCURVE",
"677 228 OFFCURVE",
"843 255 CURVE SMOOTH",
"985 278 OFFCURVE",
"1035 309 OFFCURVE",
"1056 416 CURVE SMOOTH",
"1069 482 OFFCURVE",
"1094 516 OFFCURVE",
"1148 516 CURVE SMOOTH",
"1198 516 OFFCURVE",
"1230 484 OFFCURVE",
"1230 433 CURVE SMOOTH",
"1230 400 OFFCURVE",
"1218 373 OFFCURVE",
"1194 349 CURVE",
"1302 273 LINE",
"1353 325 OFFCURVE",
"1372 373 OFFCURVE",
"1372 432 CURVE SMOOTH"
);
}
);
width = 1418;
userData = {
RMXScaler = {
verticalShift = -98;
};
};
},
{
layerId = "0A718E2F-231D-484E-9433-16A5230D2CE8";
paths = (
{
closed = 1;
nodes = (
"1418 567 OFFCURVE",
"1328 653 OFFCURVE",
"1190 653 CURVE SMOOTH",
"1077 653 OFFCURVE",
"992 608 OFFCURVE",
"967 490 CURVE SMOOTH",
"942 374 OFFCURVE",
"896 359 OFFCURVE",
"795 352 CURVE SMOOTH",
"627 340 OFFCURVE",
"503 267 OFFCURVE",
"503 143 CURVE SMOOTH",
"503 34 OFFCURVE",
"578 -29 OFFCURVE",
"686 -29 CURVE SMOOTH",
"831 -29 OFFCURVE",
"933 101 OFFCURVE",
"933 296 CURVE SMOOTH",
"933 524 OFFCURVE",
"829 653 OFFCURVE",
"699 653 CURVE SMOOTH",
"577 653 OFFCURVE",
"558 574 OFFCURVE",
"499 574 CURVE SMOOTH",
"440 574 OFFCURVE",
"421 653 OFFCURVE",
"299 653 CURVE SMOOTH",
"162 653 OFFCURVE",
"65 530 OFFCURVE",
"65 331 CURVE SMOOTH",
"65 107 OFFCURVE",
"157 -29 OFFCURVE",
"330 -29 CURVE SMOOTH",
"426 -29 OFFCURVE",
"483 26 OFFCURVE",
"483 104 CURVE SMOOTH",
"483 184 OFFCURVE",
"424 234 OFFCURVE",
"341 234 CURVE SMOOTH",
"251 234 OFFCURVE",
"187 164 OFFCURVE",
"176 64 CURVE",
"258 64 LINE",
"263 104 OFFCURVE",
"289 151 OFFCURVE",
"339 151 CURVE SMOOTH",
"363 151 OFFCURVE",
"389 140 OFFCURVE",
"389 104 CURVE SMOOTH",
"389 78 OFFCURVE",
"372 61 OFFCURVE",
"344 61 CURVE SMOOTH",
"261 61 OFFCURVE",
"247 166 OFFCURVE",
"247 305 CURVE SMOOTH",
"247 443 OFFCURVE",
"287 502 OFFCURVE",
"341 502 CURVE SMOOTH",
"404 502 OFFCURVE",
"426 422 OFFCURVE",
"499 422 CURVE SMOOTH",
"572 422 OFFCURVE",
"594 502 OFFCURVE",
"657 502 CURVE SMOOTH",
"711 502 OFFCURVE",
"756 443 OFFCURVE",
"756 305 CURVE SMOOTH",
"756 179 OFFCURVE",
"725 109 OFFCURVE",
"689 109 CURVE SMOOTH",
"668 109 OFFCURVE",
"657 125 OFFCURVE",
"657 149 CURVE SMOOTH",
"657 187 OFFCURVE",
"689 228 OFFCURVE",
"868 255 CURVE SMOOTH",
"1014 277 OFFCURVE",
"1068 310 OFFCURVE",
"1089 415 CURVE SMOOTH",
"1102 479 OFFCURVE",
"1122 511 OFFCURVE",
"1172 511 CURVE SMOOTH",
"1213 511 OFFCURVE",
"1240 484 OFFCURVE",
"1240 443 CURVE SMOOTH",
"1240 412 OFFCURVE",
"1229 390 OFFCURVE",
"1205 367 CURVE",
"1341 272 LINE",
"1398 329 OFFCURVE",
"1418 379 OFFCURVE",
"1418 441 CURVE SMOOTH"
);
}
);
width = 1460;
userData = {
RMXScaler = {
verticalShift = -82;
};
};
},
{
layerId = "AB666A95-3AF9-4DE8-B258-097FFCFE8A59";
paths = (
{
closed = 1;
nodes = (
"1221 494 OFFCURVE",
"1160 556 OFFCURVE",
"1065 556 CURVE SMOOTH",
"982 556 OFFCURVE",
"922 509 OFFCURVE",
"908 415 CURVE SMOOTH",
"893 316 OFFCURVE",
"864 304 OFFCURVE",
"746 274 CURVE SMOOTH",
"622 243 OFFCURVE",
"553 174 OFFCURVE",
"553 82 CURVE SMOOTH",
"553 26 OFFCURVE",
"585 -10 OFFCURVE",
"641 -10 CURVE SMOOTH",
"745 -10 OFFCURVE",
"809 104 OFFCURVE",
"809 280 CURVE SMOOTH",
"809 454 OFFCURVE",
"738 556 OFFCURVE",
"624 556 CURVE SMOOTH",
"527 556 OFFCURVE",
"512 475 OFFCURVE",
"450 475 CURVE SMOOTH",
"388 475 OFFCURVE",
"373 556 OFFCURVE",
"276 556 CURVE SMOOTH",
"161 556 OFFCURVE",
"90 457 OFFCURVE",
"90 294 CURVE SMOOTH",
"90 105 OFFCURVE",
"182 -10 OFFCURVE",
"304 -10 CURVE SMOOTH",
"354 -10 OFFCURVE",
"386 19 OFFCURVE",
"386 62 CURVE SMOOTH",
"386 105 OFFCURVE",
"354 133 OFFCURVE",
"304 133 CURVE SMOOTH",
"252 133 OFFCURVE",
"214 95 OFFCURVE",
"201 33 CURVE",
"224 33 LINE",
"234 82 OFFCURVE",
"264 112 OFFCURVE",
"304 112 CURVE SMOOTH",
"340 112 OFFCURVE",
"363 94 OFFCURVE",
"363 63 CURVE SMOOTH",
"363 32 OFFCURVE",
"339 12 OFFCURVE",
"303 12 CURVE SMOOTH",
"197 12 OFFCURVE",
"114 117 OFFCURVE",
"114 294 CURVE SMOOTH",
"114 444 OFFCURVE",
"176 534 OFFCURVE",
"278 534 CURVE SMOOTH",
"363 534 OFFCURVE",
"378 454 OFFCURVE",
"450 454 CURVE SMOOTH",
"522 454 OFFCURVE",
"537 534 OFFCURVE",
"622 534 CURVE SMOOTH",
"723 534 OFFCURVE",
"785 441 OFFCURVE",
"785 280 CURVE SMOOTH",
"785 116 OFFCURVE",
"729 12 OFFCURVE",
"640 12 CURVE SMOOTH",
"600 12 OFFCURVE",
"577 43 OFFCURVE",
"577 83 CURVE SMOOTH",
"577 163 OFFCURVE",
"637 225 OFFCURVE",
"754 254 CURVE SMOOTH",
"878 285 OFFCURVE",
"916 304 OFFCURVE",
"931 411 CURVE SMOOTH",
"943 494 OFFCURVE",
"995 534 OFFCURVE",
"1064 534 CURVE SMOOTH",
"1149 534 OFFCURVE",
"1197 483 OFFCURVE",
"1197 402 CURVE SMOOTH",
"1197 359 OFFCURVE",
"1183 319 OFFCURVE",
"1157 290 CURVE",
"1174 275 LINE",
"1206 310 OFFCURVE",
"1221 353 OFFCURVE",
"1221 402 CURVE SMOOTH"
);
}
);
width = 1281;
userData = {
RMXScaler = {
verticalShift = -151;
};
};
}
);
leftKerningGroup = gFinal;
leftMetricsKey = "=gFinal_cham";
note = uniAA10;
rightKerningGroup = dha;
rightMetricsKey = dha_cham;
unicode = AA10;
script = cham;
category = Letter;
subCategory = Spacing;
userData = {
RMXScaler = {
source = "nhue-cham";
};
};
},
{
glyphname = nha_cham;
production = uniAA11;
lastChange = "2017-04-21 12:56:16 +0000";
layers = (
{
layerId = "9FF96064-8718-4A86-A5C8-73C592101F67";
paths = (
{
closed = 1;
nodes = (
"1298 523 OFFCURVE",
"1226 594 OFFCURVE",
"1115 594 CURVE SMOOTH",
"1021 594 OFFCURVE",
"951 550 OFFCURVE",
"933 449 CURVE SMOOTH",
"914 344 OFFCURVE",
"877 330 OFFCURVE",
"767 312 CURVE SMOOTH",
"621 288 OFFCURVE",
"527 218 OFFCURVE",
"527 112 CURVE SMOOTH",
"527 31 OFFCURVE",
"579 -17 OFFCURVE",
"660 -17 CURVE SMOOTH",
"674 -17 OFFCURVE",
"688 -16 OFFCURVE",
"701 -13 CURVE",
"656 31 LINE",
"522 -65 OFFCURVE",
"481 -126 OFFCURVE",
"481 -184 CURVE SMOOTH",
"481 -251 OFFCURVE",
"535 -299 OFFCURVE",
"600 -299 CURVE SMOOTH",
"722 -299 OFFCURVE",
"740 -149 OFFCURVE",
"804 -149 CURVE SMOOTH",
"826 -149 OFFCURVE",
"839 -162 OFFCURVE",
"839 -183 CURVE SMOOTH",
"839 -195 OFFCURVE",
"834 -209 OFFCURVE",
"825 -222 CURVE",
"893 -253 LINE",
"911 -228 OFFCURVE",
"920 -195 OFFCURVE",
"920 -172 CURVE SMOOTH",
"920 -119 OFFCURVE",
"877 -76 OFFCURVE",
"819 -76 CURVE SMOOTH",
"697 -76 OFFCURVE",
"679 -224 OFFCURVE",
"611 -224 CURVE SMOOTH",
"582 -224 OFFCURVE",
"565 -203 OFFCURVE",
"565 -177 CURVE SMOOTH",
"565 -139 OFFCURVE",
"594 -100 OFFCURVE",
"731 -5 CURVE SMOOTH",
"829 63 OFFCURVE",
"858 164 OFFCURVE",
"858 286 CURVE SMOOTH",
"858 481 OFFCURVE",
"779 594 OFFCURVE",
"669 594 CURVE SMOOTH",
"553 594 OFFCURVE",
"530 513 OFFCURVE",
"470 513 CURVE SMOOTH",
"410 513 OFFCURVE",
"385 594 OFFCURVE",
"271 594 CURVE SMOOTH",
"157 594 OFFCURVE",
"80 485 OFFCURVE",
"80 308 CURVE SMOOTH",
"80 105 OFFCURVE",
"177 -19 OFFCURVE",
"309 -19 CURVE SMOOTH",
"382 -19 OFFCURVE",
"427 23 OFFCURVE",
"427 82 CURVE SMOOTH",
"427 143 OFFCURVE",
"381 182 OFFCURVE",
"317 182 CURVE SMOOTH",
"245 182 OFFCURVE",
"196 129 OFFCURVE",
"183 48 CURVE",
"235 48 LINE",
"243 93 OFFCURVE",
"270 131 OFFCURVE",
"316 131 CURVE SMOOTH",
"346 131 OFFCURVE",
"370 116 OFFCURVE",
"370 83 CURVE SMOOTH",
"370 54 OFFCURVE",
"349 35 OFFCURVE",
"314 35 CURVE SMOOTH",
"232 35 OFFCURVE",
"166 130 OFFCURVE",
"166 308 CURVE SMOOTH",
"166 441 OFFCURVE",
"218 518 OFFCURVE",
"287 518 CURVE SMOOTH",
"369 518 OFFCURVE",
"381 437 OFFCURVE",
"470 437 CURVE SMOOTH",
"559 437 OFFCURVE",
"571 518 OFFCURVE",
"653 518 CURVE SMOOTH",
"718 518 OFFCURVE",
"774 437 OFFCURVE",
"774 290 CURVE SMOOTH",
"774 142 OFFCURVE",
"728 51 OFFCURVE",
"660 51 CURVE SMOOTH",
"627 51 OFFCURVE",
"610 78 OFFCURVE",
"610 115 CURVE SMOOTH",
"610 175 OFFCURVE",
"657 228 OFFCURVE",
"805 255 CURVE SMOOTH",
"940 280 OFFCURVE",
"986 307 OFFCURVE",
"1005 418 CURVE SMOOTH",
"1017 487 OFFCURVE",
"1051 525 OFFCURVE",
"1110 525 CURVE SMOOTH",
"1174 525 OFFCURVE",
"1214 484 OFFCURVE",
"1214 418 CURVE SMOOTH",
"1214 380 OFFCURVE",
"1201 347 OFFCURVE",
"1176 320 CURVE",
"1240 274 LINE",
"1281 318 OFFCURVE",
"1298 363 OFFCURVE",
"1298 417 CURVE SMOOTH"
);
}
);
width = 1351;
userData = {
RMXScaler = {
verticalShift = -124;
};
};
},
{
layerId = "134B12F2-BF5D-48E3-8003-C7502B438C7E";
paths = (
{
closed = 1;
nodes = (
"1371 550 OFFCURVE",
"1288 630 OFFCURVE",
"1161 630 CURVE SMOOTH",
"1055 630 OFFCURVE",
"977 585 OFFCURVE",
"954 474 CURVE SMOOTH",
"931 362 OFFCURVE",
"889 347 OFFCURVE",
"784 336 CURVE SMOOTH",
"625 319 OFFCURVE",
"512 248 OFFCURVE",
"512 131 CURVE SMOOTH",
"512 33 OFFCURVE",
"578 -24 OFFCURVE",
"676 -24 CURVE SMOOTH",
"694 -24 OFFCURVE",
"710 -23 OFFCURVE",
"727 -20 CURVE",
"679 57 LINE",
"503 -53 OFFCURVE",
"464 -128 OFFCURVE",
"464 -191 CURVE SMOOTH",
"464 -273 OFFCURVE",
"531 -328 OFFCURVE",
"608 -328 CURVE SMOOTH",
"737 -328 OFFCURVE",
"762 -190 OFFCURVE",
"815 -190 CURVE SMOOTH",
"833 -190 OFFCURVE",
"844 -200 OFFCURVE",
"844 -217 CURVE SMOOTH",
"844 -228 OFFCURVE",
"840 -240 OFFCURVE",
"832 -251 CURVE",
"933 -295 LINE",
"954 -265 OFFCURVE",
"963 -224 OFFCURVE",
"963 -199 CURVE SMOOTH",
"963 -135 OFFCURVE",
"910 -82 OFFCURVE",
"837 -82 CURVE SMOOTH",
"719 -82 OFFCURVE",
"676 -219 OFFCURVE",
"624 -219 CURVE SMOOTH",
"602 -219 OFFCURVE",
"587 -201 OFFCURVE",
"587 -180 CURVE SMOOTH",
"587 -145 OFFCURVE",
"616 -103 OFFCURVE",
"762 -10 CURVE SMOOTH",
"874 61 OFFCURVE",
"904 166 OFFCURVE",
"904 292 CURVE SMOOTH",
"904 507 OFFCURVE",
"810 630 OFFCURVE",
"687 630 CURVE SMOOTH",
"568 630 OFFCURVE",
"547 550 OFFCURVE",
"488 550 CURVE SMOOTH",
"428 550 OFFCURVE",
"407 630 OFFCURVE",
"288 630 CURVE SMOOTH",
"160 630 OFFCURVE",
"71 512 OFFCURVE",
"71 322 CURVE SMOOTH",
"71 106 OFFCURVE",
"165 -25 OFFCURVE",
"322 -25 CURVE SMOOTH",
"409 -25 OFFCURVE",
"461 25 OFFCURVE",
"461 95 CURVE SMOOTH",
"461 168 OFFCURVE",
"407 214 OFFCURVE",
"332 214 CURVE SMOOTH",
"249 214 OFFCURVE",
"191 150 OFFCURVE",
"179 58 CURVE",
"249 58 LINE",
"255 100 OFFCURVE",
"282 143 OFFCURVE",
"330 143 CURVE SMOOTH",
"356 143 OFFCURVE",
"382 131 OFFCURVE",
"382 96 CURVE SMOOTH",
"382 69 OFFCURVE",
"363 51 OFFCURVE",
"332 51 CURVE SMOOTH",
"250 51 OFFCURVE",
"215 152 OFFCURVE",
"215 306 CURVE SMOOTH",
"215 442 OFFCURVE",
"260 508 OFFCURVE",
"320 508 CURVE SMOOTH",
"390 508 OFFCURVE",
"408 428 OFFCURVE",
"488 428 CURVE SMOOTH",
"567 428 OFFCURVE",
"585 508 OFFCURVE",
"655 508 CURVE SMOOTH",
"714 508 OFFCURVE",
"763 441 OFFCURVE",
"763 299 CURVE SMOOTH",
"763 165 OFFCURVE",
"726 86 OFFCURVE",
"678 86 CURVE SMOOTH",
"652 86 OFFCURVE",
"639 107 OFFCURVE",
"639 136 CURVE SMOOTH",
"639 182 OFFCURVE",
"677 228 OFFCURVE",
"843 255 CURVE SMOOTH",
"985 278 OFFCURVE",
"1035 309 OFFCURVE",
"1056 416 CURVE SMOOTH",
"1069 482 OFFCURVE",
"1094 516 OFFCURVE",
"1148 516 CURVE SMOOTH",
"1198 516 OFFCURVE",
"1230 484 OFFCURVE",
"1230 433 CURVE SMOOTH",
"1230 400 OFFCURVE",
"1218 373 OFFCURVE",
"1194 349 CURVE",
"1302 273 LINE",
"1352 325 OFFCURVE",
"1371 373 OFFCURVE",
"1371 432 CURVE SMOOTH"
);
}
);
width = 1417;
userData = {
RMXScaler = {
verticalShift = -98;
};
};
},
{
layerId = "0A718E2F-231D-484E-9433-16A5230D2CE8";
paths = (
{
closed = 1;
nodes = (
"1418 567 OFFCURVE",
"1328 653 OFFCURVE",
"1190 653 CURVE SMOOTH",
"1077 653 OFFCURVE",
"992 608 OFFCURVE",
"967 490 CURVE SMOOTH",
"942 374 OFFCURVE",
"896 359 OFFCURVE",
"795 352 CURVE SMOOTH",
"627 340 OFFCURVE",
"503 267 OFFCURVE",
"503 143 CURVE SMOOTH",
"503 34 OFFCURVE",
"578 -29 OFFCURVE",
"686 -29 CURVE SMOOTH",
"706 -29 OFFCURVE",
"724 -27 OFFCURVE",
"743 -24 CURVE",
"694 73 LINE",
"475 -61 OFFCURVE",
"449 -130 OFFCURVE",
"449 -195 CURVE SMOOTH",
"449 -286 OFFCURVE",
"524 -346 OFFCURVE",
"608 -346 CURVE SMOOTH",
"742 -346 OFFCURVE",
"772 -215 OFFCURVE",
"817 -215 CURVE SMOOTH",
"833 -215 OFFCURVE",
"842 -223 OFFCURVE",
"842 -238 CURVE SMOOTH",
"842 -248 OFFCURVE",
"839 -258 OFFCURVE",
"832 -269 CURVE",
"953 -320 LINE",
"977 -288 OFFCURVE",
"985 -242 OFFCURVE",
"985 -215 CURVE SMOOTH",
"985 -144 OFFCURVE",
"927 -84 OFFCURVE",
"844 -84 CURVE SMOOTH",
"728 -84 OFFCURVE",
"670 -214 OFFCURVE",
"627 -214 CURVE SMOOTH",
"610 -214 OFFCURVE",
"597 -199 OFFCURVE",
"597 -181 CURVE SMOOTH",
"597 -149 OFFCURVE",
"627 -108 OFFCURVE",
"771 -20 CURVE SMOOTH",
"904 61 OFFCURVE",
"933 167 OFFCURVE",
"933 296 CURVE SMOOTH",
"933 524 OFFCURVE",
"829 653 OFFCURVE",
"699 653 CURVE SMOOTH",
"577 653 OFFCURVE",
"558 574 OFFCURVE",
"499 574 CURVE SMOOTH",
"440 574 OFFCURVE",
"421 653 OFFCURVE",
"299 653 CURVE SMOOTH",
"162 653 OFFCURVE",
"65 530 OFFCURVE",
"65 331 CURVE SMOOTH",
"65 107 OFFCURVE",
"157 -29 OFFCURVE",
"330 -29 CURVE SMOOTH",
"426 -29 OFFCURVE",
"483 26 OFFCURVE",
"483 104 CURVE SMOOTH",
"483 184 OFFCURVE",
"424 234 OFFCURVE",
"341 234 CURVE SMOOTH",
"251 234 OFFCURVE",
"187 164 OFFCURVE",
"176 64 CURVE",
"258 64 LINE",
"263 104 OFFCURVE",
"289 151 OFFCURVE",
"339 151 CURVE SMOOTH",
"363 151 OFFCURVE",
"389 140 OFFCURVE",
"389 104 CURVE SMOOTH",
"389 78 OFFCURVE",
"372 61 OFFCURVE",
"344 61 CURVE SMOOTH",
"261 61 OFFCURVE",
"247 166 OFFCURVE",
"247 305 CURVE SMOOTH",
"247 443 OFFCURVE",
"287 502 OFFCURVE",
"341 502 CURVE SMOOTH",
"404 502 OFFCURVE",
"426 422 OFFCURVE",
"499 422 CURVE SMOOTH",
"572 422 OFFCURVE",
"594 502 OFFCURVE",
"657 502 CURVE SMOOTH",
"711 502 OFFCURVE",
"756 443 OFFCURVE",
"756 305 CURVE SMOOTH",
"756 179 OFFCURVE",
"725 109 OFFCURVE",
"689 109 CURVE SMOOTH",
"668 109 OFFCURVE",
"657 125 OFFCURVE",
"657 149 CURVE SMOOTH",
"657 187 OFFCURVE",
"689 228 OFFCURVE",
"868 255 CURVE SMOOTH",
"1014 277 OFFCURVE",
"1068 310 OFFCURVE",
"1089 415 CURVE SMOOTH",
"1102 479 OFFCURVE",
"1122 511 OFFCURVE",
"1172 511 CURVE SMOOTH",
"1213 511 OFFCURVE",
"1240 484 OFFCURVE",
"1240 443 CURVE SMOOTH",
"1240 412 OFFCURVE",
"1229 390 OFFCURVE",
"1205 367 CURVE",
"1341 272 LINE",
"1398 329 OFFCURVE",
"1418 379 OFFCURVE",
"1418 441 CURVE SMOOTH"
);
}
);
width = 1460;
userData = {
RMXScaler = {
verticalShift = -82;
};
};
},
{
layerId = "AB666A95-3AF9-4DE8-B258-097FFCFE8A59";
paths = (
{
closed = 1;
nodes = (
"1221 494 OFFCURVE",
"1160 556 OFFCURVE",
"1065 556 CURVE SMOOTH",
"982 556 OFFCURVE",
"922 509 OFFCURVE",
"908 415 CURVE SMOOTH",
"893 316 OFFCURVE",
"864 304 OFFCURVE",
"746 274 CURVE SMOOTH",
"622 243 OFFCURVE",
"553 174 OFFCURVE",
"553 82 CURVE SMOOTH",
"553 26 OFFCURVE",
"585 -10 OFFCURVE",
"641 -10 CURVE SMOOTH",
"653 -10 OFFCURVE",
"664 -9 OFFCURVE",
"674 -6 CURVE",
"672 9 LINE",
"548 -70 OFFCURVE",
"517 -114 OFFCURVE",
"517 -167 CURVE SMOOTH",
"517 -211 OFFCURVE",
"551 -248 OFFCURVE",
"600 -248 CURVE SMOOTH",
"710 -248 OFFCURVE",
"718 -82 OFFCURVE",
"799 -82 CURVE SMOOTH",
"826 -82 OFFCURVE",
"843 -100 OFFCURVE",
"843 -124 CURVE SMOOTH",
"843 -139 OFFCURVE",
"836 -157 OFFCURVE",
"825 -171 CURVE",
"843 -185 LINE",
"858 -166 OFFCURVE",
"867 -144 OFFCURVE",
"867 -124 CURVE SMOOTH",
"867 -89 OFFCURVE",
"838 -60 OFFCURVE",
"801 -60 CURVE SMOOTH",
"701 -60 OFFCURVE",
"692 -226 OFFCURVE",
"601 -226 CURVE SMOOTH",
"562 -226 OFFCURVE",
"541 -199 OFFCURVE",
"541 -165 CURVE SMOOTH",
"541 -100 OFFCURVE",
"594 -72 OFFCURVE",
"707 8 CURVE SMOOTH",
"780 60 OFFCURVE",
"809 162 OFFCURVE",
"809 280 CURVE SMOOTH",
"809 454 OFFCURVE",
"738 556 OFFCURVE",
"624 556 CURVE SMOOTH",
"527 556 OFFCURVE",
"512 475 OFFCURVE",
"450 475 CURVE SMOOTH",
"388 475 OFFCURVE",
"373 556 OFFCURVE",
"276 556 CURVE SMOOTH",
"161 556 OFFCURVE",
"90 457 OFFCURVE",
"90 294 CURVE SMOOTH",
"90 105 OFFCURVE",
"182 -10 OFFCURVE",
"304 -10 CURVE SMOOTH",
"354 -10 OFFCURVE",
"386 19 OFFCURVE",
"386 62 CURVE SMOOTH",
"386 105 OFFCURVE",
"354 133 OFFCURVE",
"304 133 CURVE SMOOTH",
"252 133 OFFCURVE",
"214 95 OFFCURVE",
"201 33 CURVE",
"224 33 LINE",
"234 82 OFFCURVE",
"264 112 OFFCURVE",
"304 112 CURVE SMOOTH",
"340 112 OFFCURVE",
"363 94 OFFCURVE",
"363 63 CURVE SMOOTH",
"363 32 OFFCURVE",
"339 12 OFFCURVE",
"303 12 CURVE SMOOTH",
"197 12 OFFCURVE",
"114 117 OFFCURVE",
"114 294 CURVE SMOOTH",
"114 444 OFFCURVE",
"176 534 OFFCURVE",
"278 534 CURVE SMOOTH",
"363 534 OFFCURVE",
"378 454 OFFCURVE",
"450 454 CURVE SMOOTH",
"522 454 OFFCURVE",
"537 534 OFFCURVE",
"622 534 CURVE SMOOTH",
"723 534 OFFCURVE",
"785 441 OFFCURVE",
"785 280 CURVE SMOOTH",
"785 116 OFFCURVE",
"729 12 OFFCURVE",
"640 12 CURVE SMOOTH",
"600 12 OFFCURVE",
"577 43 OFFCURVE",
"577 83 CURVE SMOOTH",
"577 163 OFFCURVE",
"637 225 OFFCURVE",
"754 254 CURVE SMOOTH",
"878 285 OFFCURVE",
"916 304 OFFCURVE",
"931 411 CURVE SMOOTH",
"943 494 OFFCURVE",
"995 534 OFFCURVE",
"1064 534 CURVE SMOOTH",
"1149 534 OFFCURVE",
"1197 483 OFFCURVE",
"1197 402 CURVE SMOOTH",
"1197 359 OFFCURVE",
"1183 319 OFFCURVE",
"1157 290 CURVE",
"1174 275 LINE",
"1206 310 OFFCURVE",
"1221 353 OFFCURVE",
"1221 402 CURVE SMOOTH"
);
}
);
width = 1281;
userData = {
RMXScaler = {
verticalShift = -151;
};
};
}
);
leftKerningGroup = gFinal;
leftMetricsKey = "=gFinal_cham";
note = uniAA11;
rightKerningGroup = dha;
rightMetricsKey = dha_cham;
unicode = AA11;
script = cham;
category = Letter;
subCategory = Spacing;
userData = {
RMXScaler = {
source = "nha-cham";
};
};
},
{
glyphname = nhja_cham;
production = uniAA12;
lastChange = "2017-04-21 12:56:16 +0000";
layers = (
{
layerId = "9FF96064-8718-4A86-A5C8-73C592101F67";
paths = (
{
closed = 1;
nodes = (
"1298 523 OFFCURVE",
"1226 594 OFFCURVE",
"1115 594 CURVE SMOOTH",
"1021 594 OFFCURVE",
"951 550 OFFCURVE",
"933 449 CURVE SMOOTH",
"914 344 OFFCURVE",
"877 330 OFFCURVE",
"767 311 CURVE SMOOTH",
"625 287 OFFCURVE",
"538 212 OFFCURVE",
"538 109 CURVE SMOOTH",
"538 37 OFFCURVE",
"586 -7 OFFCURVE",
"660 -7 CURVE SMOOTH",
"674 -7 OFFCURVE",
"688 -6 OFFCURVE",
"701 -3 CURVE",
"662 31 LINE",
"528 -65 OFFCURVE",
"481 -126 OFFCURVE",
"481 -184 CURVE SMOOTH",
"481 -251 OFFCURVE",
"535 -299 OFFCURVE",
"600 -299 CURVE SMOOTH",
"722 -299 OFFCURVE",
"740 -149 OFFCURVE",
"804 -149 CURVE SMOOTH",
"826 -149 OFFCURVE",
"839 -162 OFFCURVE",
"839 -183 CURVE SMOOTH",
"839 -195 OFFCURVE",
"834 -209 OFFCURVE",
"825 -222 CURVE",
"893 -253 LINE",
"911 -228 OFFCURVE",
"920 -195 OFFCURVE",
"920 -172 CURVE SMOOTH",
"920 -119 OFFCURVE",
"877 -76 OFFCURVE",
"819 -76 CURVE SMOOTH",
"697 -76 OFFCURVE",
"679 -224 OFFCURVE",
"611 -224 CURVE SMOOTH",
"582 -224 OFFCURVE",
"565 -203 OFFCURVE",
"565 -177 CURVE SMOOTH",
"565 -139 OFFCURVE",
"594 -100 OFFCURVE",
"731 -5 CURVE SMOOTH",
"829 63 OFFCURVE",
"858 164 OFFCURVE",
"858 286 CURVE SMOOTH",
"858 481 OFFCURVE",
"779 594 OFFCURVE",
"669 594 CURVE SMOOTH",
"553 594 OFFCURVE",
"530 513 OFFCURVE",
"470 513 CURVE SMOOTH",
"410 513 OFFCURVE",
"385 594 OFFCURVE",
"271 594 CURVE SMOOTH",
"157 594 OFFCURVE",
"80 485 OFFCURVE",
"80 308 CURVE SMOOTH",
"80 105 OFFCURVE",
"177 -19 OFFCURVE",
"309 -19 CURVE SMOOTH",
"382 -19 OFFCURVE",
"427 23 OFFCURVE",
"427 82 CURVE SMOOTH",
"427 143 OFFCURVE",
"381 182 OFFCURVE",
"317 182 CURVE SMOOTH",
"245 182 OFFCURVE",
"196 129 OFFCURVE",
"183 48 CURVE",
"235 48 LINE",
"243 93 OFFCURVE",
"270 131 OFFCURVE",
"316 131 CURVE SMOOTH",
"346 131 OFFCURVE",
"370 116 OFFCURVE",
"370 83 CURVE SMOOTH",
"370 54 OFFCURVE",
"349 35 OFFCURVE",
"314 35 CURVE SMOOTH",
"232 35 OFFCURVE",
"166 130 OFFCURVE",
"166 308 CURVE SMOOTH",
"166 441 OFFCURVE",
"218 518 OFFCURVE",
"287 518 CURVE SMOOTH",
"369 518 OFFCURVE",
"381 437 OFFCURVE",
"470 437 CURVE SMOOTH",
"559 437 OFFCURVE",
"571 518 OFFCURVE",
"653 518 CURVE SMOOTH",
"718 518 OFFCURVE",
"774 437 OFFCURVE",
"774 290 CURVE SMOOTH",
"774 142 OFFCURVE",
"728 51 OFFCURVE",
"660 51 CURVE SMOOTH",
"627 51 OFFCURVE",
"610 78 OFFCURVE",
"610 115 CURVE SMOOTH",
"610 175 OFFCURVE",
"657 228 OFFCURVE",
"805 255 CURVE SMOOTH",
"940 280 OFFCURVE",
"986 307 OFFCURVE",
"1005 418 CURVE SMOOTH",
"1017 487 OFFCURVE",
"1051 525 OFFCURVE",
"1110 525 CURVE SMOOTH",
"1174 525 OFFCURVE",
"1214 484 OFFCURVE",
"1214 418 CURVE SMOOTH",
"1214 380 OFFCURVE",
"1201 347 OFFCURVE",
"1176 320 CURVE",
"1240 274 LINE",
"1281 318 OFFCURVE",
"1298 363 OFFCURVE",
"1298 417 CURVE SMOOTH"
);
},
{
closed = 1;
nodes = (
"639 14 LINE",
"516 14 LINE SMOOTH",
"404 14 OFFCURVE",
"375 -8 OFFCURVE",
"349 -131 CURVE SMOOTH",
"329 -227 OFFCURVE",
"317 -246 OFFCURVE",
"233 -246 CURVE SMOOTH",
"212 -246 LINE",
"212 -299 LINE",
"254 -299 LINE SMOOTH",
"366 -299 OFFCURVE",
"396 -277 OFFCURVE",
"422 -154 CURVE SMOOTH",
"442 -59 OFFCURVE",
"454 -39 OFFCURVE",
"536 -39 CURVE SMOOTH",
"639 -39 LINE"
);
}
);
width = 1351;
userData = {
RMXScaler = {
verticalShift = -124;
};
};
},
{
layerId = "134B12F2-BF5D-48E3-8003-C7502B438C7E";
paths = (
{
closed = 1;
nodes = (
"1371 550 OFFCURVE",
"1288 630 OFFCURVE",
"1161 630 CURVE SMOOTH",
"1055 630 OFFCURVE",
"977 585 OFFCURVE",
"954 474 CURVE SMOOTH",
"931 362 OFFCURVE",
"889 350 OFFCURVE",
"784 335 CURVE SMOOTH",
"633 314 OFFCURVE",
"526 246 OFFCURVE",
"526 130 CURVE SMOOTH",
"526 44 OFFCURVE",
"586 -7 OFFCURVE",
"676 -7 CURVE SMOOTH",
"694 -7 OFFCURVE",
"710 -6 OFFCURVE",
"727 -3 CURVE",
"679 57 LINE",
"503 -53 OFFCURVE",
"464 -128 OFFCURVE",
"464 -191 CURVE SMOOTH",
"464 -273 OFFCURVE",
"531 -328 OFFCURVE",
"608 -328 CURVE SMOOTH",
"737 -328 OFFCURVE",
"762 -190 OFFCURVE",
"815 -190 CURVE SMOOTH",
"833 -190 OFFCURVE",
"844 -200 OFFCURVE",
"844 -217 CURVE SMOOTH",
"844 -228 OFFCURVE",
"840 -240 OFFCURVE",
"832 -251 CURVE",
"933 -295 LINE",
"954 -265 OFFCURVE",
"963 -224 OFFCURVE",
"963 -199 CURVE SMOOTH",
"963 -135 OFFCURVE",
"910 -82 OFFCURVE",
"837 -82 CURVE SMOOTH",
"719 -82 OFFCURVE",
"676 -219 OFFCURVE",
"624 -219 CURVE SMOOTH",
"602 -219 OFFCURVE",
"587 -201 OFFCURVE",
"587 -180 CURVE SMOOTH",
"587 -145 OFFCURVE",
"616 -103 OFFCURVE",
"762 -10 CURVE SMOOTH",
"874 61 OFFCURVE",
"904 166 OFFCURVE",
"904 292 CURVE SMOOTH",
"904 507 OFFCURVE",
"810 630 OFFCURVE",
"687 630 CURVE SMOOTH",
"568 630 OFFCURVE",
"547 550 OFFCURVE",
"488 550 CURVE SMOOTH",
"428 550 OFFCURVE",
"407 630 OFFCURVE",
"288 630 CURVE SMOOTH",
"160 630 OFFCURVE",
"71 512 OFFCURVE",
"71 322 CURVE SMOOTH",
"71 106 OFFCURVE",
"165 -25 OFFCURVE",
"322 -25 CURVE SMOOTH",
"409 -25 OFFCURVE",
"461 25 OFFCURVE",
"461 95 CURVE SMOOTH",
"461 168 OFFCURVE",
"407 214 OFFCURVE",
"332 214 CURVE SMOOTH",
"249 214 OFFCURVE",
"191 150 OFFCURVE",
"179 58 CURVE",
"249 58 LINE",
"255 100 OFFCURVE",
"282 143 OFFCURVE",
"330 143 CURVE SMOOTH",
"356 143 OFFCURVE",
"382 131 OFFCURVE",
"382 96 CURVE SMOOTH",
"382 69 OFFCURVE",
"363 51 OFFCURVE",
"332 51 CURVE SMOOTH",
"250 51 OFFCURVE",
"215 152 OFFCURVE",
"215 306 CURVE SMOOTH",
"215 442 OFFCURVE",
"260 508 OFFCURVE",
"320 508 CURVE SMOOTH",
"390 508 OFFCURVE",
"408 428 OFFCURVE",
"488 428 CURVE SMOOTH",
"567 428 OFFCURVE",
"585 508 OFFCURVE",
"655 508 CURVE SMOOTH",
"714 508 OFFCURVE",
"763 441 OFFCURVE",
"763 299 CURVE SMOOTH",
"763 165 OFFCURVE",
"726 86 OFFCURVE",
"678 86 CURVE SMOOTH",
"652 86 OFFCURVE",
"639 107 OFFCURVE",
"639 136 CURVE SMOOTH",
"639 182 OFFCURVE",
"677 228 OFFCURVE",
"843 255 CURVE SMOOTH",
"985 278 OFFCURVE",
"1036 309 OFFCURVE",
"1056 416 CURVE SMOOTH",
"1068 482 OFFCURVE",
"1094 516 OFFCURVE",
"1148 516 CURVE SMOOTH",
"1198 516 OFFCURVE",
"1230 484 OFFCURVE",
"1230 433 CURVE SMOOTH",
"1230 400 OFFCURVE",
"1218 373 OFFCURVE",
"1194 349 CURVE",
"1302 273 LINE",
"1352 325 OFFCURVE",
"1371 373 OFFCURVE",
"1371 432 CURVE SMOOTH"
);
},
{
closed = 1;
nodes = (
"637 37 LINE",
"468 37 LINE SMOOTH",
"339 37 OFFCURVE",
"304 13 OFFCURVE",
"275 -124 CURVE SMOOTH",
"255 -220 OFFCURVE",
"245 -245 OFFCURVE",
"163 -245 CURVE SMOOTH",
"142 -245 LINE",
"142 -328 LINE",
"199 -328 LINE SMOOTH",
"329 -328 OFFCURVE",
"364 -304 OFFCURVE",
"393 -167 CURVE SMOOTH",
"413 -71 OFFCURVE",
"423 -46 OFFCURVE",
"502 -46 CURVE SMOOTH",
"637 -46 LINE"
);
}
);
width = 1417;
userData = {
RMXScaler = {
verticalShift = -98;
};
};
},
{
layerId = "0A718E2F-231D-484E-9433-16A5230D2CE8";
paths = (
{
closed = 1;
nodes = (
"1418 567 OFFCURVE",
"1328 653 OFFCURVE",
"1192 653 CURVE SMOOTH",
"1077 653 OFFCURVE",
"992 608 OFFCURVE",
"967 490 CURVE SMOOTH",
"942 374 OFFCURVE",
"896 363 OFFCURVE",
"777 351 CURVE SMOOTH",
"622 335 OFFCURVE",
"518 252 OFFCURVE",
"518 142 CURVE SMOOTH",
"518 47 OFFCURVE",
"580 -6 OFFCURVE",
"686 -6 CURVE SMOOTH",
"706 -6 OFFCURVE",
"724 -4 OFFCURVE",
"743 -1 CURVE",
"704 73 LINE",
"496 -52 OFFCURVE",
"450 -137 OFFCURVE",
"450 -205 CURVE SMOOTH",
"450 -293 OFFCURVE",
"524 -346 OFFCURVE",
"608 -346 CURVE SMOOTH",
"742 -346 OFFCURVE",
"772 -215 OFFCURVE",
"817 -215 CURVE SMOOTH",
"833 -215 OFFCURVE",
"842 -223 OFFCURVE",
"842 -238 CURVE SMOOTH",
"842 -248 OFFCURVE",
"839 -258 OFFCURVE",
"832 -269 CURVE",
"953 -320 LINE",
"977 -288 OFFCURVE",
"985 -242 OFFCURVE",
"985 -215 CURVE SMOOTH",
"985 -144 OFFCURVE",
"927 -84 OFFCURVE",
"844 -84 CURVE SMOOTH",
"728 -84 OFFCURVE",
"670 -214 OFFCURVE",
"627 -214 CURVE SMOOTH",
"610 -214 OFFCURVE",
"597 -198 OFFCURVE",
"597 -180 CURVE SMOOTH",
"597 -148 OFFCURVE",
"625 -109 OFFCURVE",
"771 -20 CURVE SMOOTH",
"904 61 OFFCURVE",
"933 167 OFFCURVE",
"933 296 CURVE SMOOTH",
"933 524 OFFCURVE",
"829 653 OFFCURVE",
"699 653 CURVE SMOOTH",
"577 653 OFFCURVE",
"558 574 OFFCURVE",
"499 574 CURVE SMOOTH",
"440 574 OFFCURVE",
"421 653 OFFCURVE",
"299 653 CURVE SMOOTH",
"162 653 OFFCURVE",
"65 530 OFFCURVE",
"65 331 CURVE SMOOTH",
"65 107 OFFCURVE",
"157 -29 OFFCURVE",
"330 -29 CURVE SMOOTH",
"426 -29 OFFCURVE",
"483 26 OFFCURVE",
"483 104 CURVE SMOOTH",
"483 184 OFFCURVE",
"424 234 OFFCURVE",
"341 234 CURVE SMOOTH",
"251 234 OFFCURVE",
"187 164 OFFCURVE",
"176 64 CURVE",
"258 64 LINE",
"263 104 OFFCURVE",
"289 151 OFFCURVE",
"339 151 CURVE SMOOTH",
"363 151 OFFCURVE",
"389 140 OFFCURVE",
"389 104 CURVE SMOOTH",
"389 78 OFFCURVE",
"372 61 OFFCURVE",
"344 61 CURVE SMOOTH",
"261 61 OFFCURVE",
"247 166 OFFCURVE",
"247 305 CURVE SMOOTH",
"247 443 OFFCURVE",
"287 502 OFFCURVE",
"341 502 CURVE SMOOTH",
"404 502 OFFCURVE",
"426 422 OFFCURVE",
"499 422 CURVE SMOOTH",
"572 422 OFFCURVE",
"594 502 OFFCURVE",
"657 502 CURVE SMOOTH",
"711 502 OFFCURVE",
"756 443 OFFCURVE",
"756 305 CURVE SMOOTH",
"756 179 OFFCURVE",
"725 109 OFFCURVE",
"688 109 CURVE SMOOTH",
"668 109 OFFCURVE",
"657 125 OFFCURVE",
"657 147 CURVE SMOOTH",
"657 185 OFFCURVE",
"685 231 OFFCURVE",
"868 255 CURVE SMOOTH",
"1014 274 OFFCURVE",
"1068 310 OFFCURVE",
"1089 415 CURVE SMOOTH",
"1102 479 OFFCURVE",
"1122 511 OFFCURVE",
"1172 511 CURVE SMOOTH",
"1213 511 OFFCURVE",
"1240 484 OFFCURVE",
"1240 443 CURVE SMOOTH",
"1240 412 OFFCURVE",
"1229 390 OFFCURVE",
"1205 367 CURVE",
"1341 272 LINE",
"1398 329 OFFCURVE",
"1418 379 OFFCURVE",
"1418 441 CURVE SMOOTH"
);
},
{
closed = 1;
nodes = (
"635 51 LINE",
"438 51 LINE SMOOTH",
"297 51 OFFCURVE",
"257 26 OFFCURVE",
"228 -120 CURVE SMOOTH",
"209 -216 OFFCURVE",
"199 -244 OFFCURVE",
"118 -244 CURVE SMOOTH",
"97 -244 LINE",
"97 -346 LINE",
"164 -346 LINE SMOOTH",
"305 -346 OFFCURVE",
"345 -321 OFFCURVE",
"374 -175 CURVE SMOOTH",
"393 -79 OFFCURVE",
"403 -51 OFFCURVE",
"480 -51 CURVE SMOOTH",
"635 -51 LINE"
);
}
);
width = 1460;
userData = {
RMXScaler = {
verticalShift = -82;
};
};
},
{
layerId = "AB666A95-3AF9-4DE8-B258-097FFCFE8A59";
paths = (
{
closed = 1;
nodes = (
"1221 494 OFFCURVE",
"1160 556 OFFCURVE",
"1065 556 CURVE SMOOTH",
"982 556 OFFCURVE",
"922 509 OFFCURVE",
"908 415 CURVE SMOOTH",
"893 316 OFFCURVE",
"864 304 OFFCURVE",
"746 274 CURVE SMOOTH",
"622 243 OFFCURVE",
"553 175 OFFCURVE",
"553 87 CURVE SMOOTH",
"553 30 OFFCURVE",
"590 -10 OFFCURVE",
"641 -10 CURVE SMOOTH",
"653 -10 OFFCURVE",
"664 -9 OFFCURVE",
"674 -6 CURVE",
"672 9 LINE",
"548 -70 OFFCURVE",
"517 -114 OFFCURVE",
"517 -167 CURVE SMOOTH",
"517 -211 OFFCURVE",
"551 -248 OFFCURVE",
"600 -248 CURVE SMOOTH",
"710 -248 OFFCURVE",
"718 -82 OFFCURVE",
"799 -82 CURVE SMOOTH",
"826 -82 OFFCURVE",
"843 -100 OFFCURVE",
"843 -124 CURVE SMOOTH",
"843 -139 OFFCURVE",
"836 -157 OFFCURVE",
"825 -171 CURVE",
"843 -185 LINE",
"858 -166 OFFCURVE",
"867 -144 OFFCURVE",
"867 -124 CURVE SMOOTH",
"867 -89 OFFCURVE",
"838 -60 OFFCURVE",
"801 -60 CURVE SMOOTH",
"701 -60 OFFCURVE",
"692 -226 OFFCURVE",
"601 -226 CURVE SMOOTH",
"562 -226 OFFCURVE",
"541 -199 OFFCURVE",
"541 -165 CURVE SMOOTH",
"541 -100 OFFCURVE",
"594 -72 OFFCURVE",
"707 8 CURVE SMOOTH",
"780 60 OFFCURVE",
"809 162 OFFCURVE",
"809 280 CURVE SMOOTH",
"809 454 OFFCURVE",
"738 556 OFFCURVE",
"624 556 CURVE SMOOTH",
"527 556 OFFCURVE",
"512 475 OFFCURVE",
"450 475 CURVE SMOOTH",
"388 475 OFFCURVE",
"373 556 OFFCURVE",
"276 556 CURVE SMOOTH",
"161 556 OFFCURVE",
"90 457 OFFCURVE",
"90 294 CURVE SMOOTH",
"90 105 OFFCURVE",
"182 -10 OFFCURVE",
"304 -10 CURVE SMOOTH",
"354 -10 OFFCURVE",
"386 19 OFFCURVE",
"386 62 CURVE SMOOTH",
"386 105 OFFCURVE",
"354 133 OFFCURVE",
"304 133 CURVE SMOOTH",
"252 133 OFFCURVE",
"214 95 OFFCURVE",
"201 33 CURVE",
"224 33 LINE",
"234 82 OFFCURVE",
"264 112 OFFCURVE",
"304 112 CURVE SMOOTH",
"340 112 OFFCURVE",
"363 94 OFFCURVE",
"363 63 CURVE SMOOTH",
"363 32 OFFCURVE",
"339 12 OFFCURVE",
"303 12 CURVE SMOOTH",
"197 12 OFFCURVE",
"114 117 OFFCURVE",
"114 294 CURVE SMOOTH",
"114 444 OFFCURVE",
"176 534 OFFCURVE",
"278 534 CURVE SMOOTH",
"363 534 OFFCURVE",
"378 454 OFFCURVE",
"450 454 CURVE SMOOTH",
"522 454 OFFCURVE",
"537 534 OFFCURVE",
"622 534 CURVE SMOOTH",
"723 534 OFFCURVE",
"785 441 OFFCURVE",
"785 280 CURVE SMOOTH",
"785 116 OFFCURVE",
"729 12 OFFCURVE",
"640 12 CURVE SMOOTH",
"600 12 OFFCURVE",
"577 45 OFFCURVE",
"577 88 CURVE SMOOTH",
"577 165 OFFCURVE",
"637 225 OFFCURVE",
"754 254 CURVE SMOOTH",
"878 285 OFFCURVE",
"916 304 OFFCURVE",
"931 411 CURVE SMOOTH",
"943 494 OFFCURVE",
"995 534 OFFCURVE",
"1064 534 CURVE SMOOTH",
"1149 534 OFFCURVE",
"1197 483 OFFCURVE",
"1197 402 CURVE SMOOTH",
"1197 359 OFFCURVE",
"1183 319 OFFCURVE",
"1157 290 CURVE",
"1174 275 LINE",
"1206 310 OFFCURVE",
"1221 353 OFFCURVE",
"1221 402 CURVE SMOOTH"
);
},
{
closed = 1;
nodes = (
"611 12 LINE",
"566 12 LINE SMOOTH",
"473 12 OFFCURVE",
"449 -8 OFFCURVE",
"426 -117 CURVE SMOOTH",
"406 -212 OFFCURVE",
"392 -226 OFFCURVE",
"306 -226 CURVE SMOOTH",
"285 -226 LINE",
"285 -248 LINE",
"312 -248 LINE SMOOTH",
"405 -248 OFFCURVE",
"429 -228 OFFCURVE",
"452 -119 CURVE SMOOTH",
"472 -24 OFFCURVE",
"486 -10 OFFCURVE",
"572 -10 CURVE SMOOTH",
"641 -10 LINE"
);
}
);
width = 1281;
userData = {
RMXScaler = {
verticalShift = -151;
};
};
}
);
leftKerningGroup = gFinal;
leftMetricsKey = "=gFinal_cham";
note = uniAA12;
rightKerningGroup = dha;
rightMetricsKey = dha_cham;
unicode = AA12;
script = cham;
category = Letter;
subCategory = Spacing;
userData = {
RMXScaler = {
source = "nhja-cham";
};
};
},
{
glyphname = ta_cham;
production = uniAA13;
lastChange = "2017-04-21 12:56:16 +0000";
layers = (
{
layerId = "9FF96064-8718-4A86-A5C8-73C592101F67";
paths = (
{
closed = 1;
nodes = (
"812 523 OFFCURVE",
"739 594 OFFCURVE",
"630 594 CURVE SMOOTH",
"517 594 OFFCURVE",
"438 518 OFFCURVE",
"438 390 CURVE",
"490 390 LINE",
"491 518 OFFCURVE",
"415 594 OFFCURVE",
"304 594 CURVE SMOOTH",
"166 594 OFFCURVE",
"80 485 OFFCURVE",
"80 308 CURVE SMOOTH",
"80 107 OFFCURVE",
"175 -17 OFFCURVE",
"318 -17 CURVE SMOOTH",
"423 -17 OFFCURVE",
"488 47 OFFCURVE",
"488 141 CURVE SMOOTH",
"488 239 OFFCURVE",
"414 301 OFFCURVE",
"314 301 CURVE SMOOTH",
"237 301 OFFCURVE",
"174 265 OFFCURVE",
"130 203 CURVE",
"170 151 LINE",
"200 209 OFFCURVE",
"249 239 OFFCURVE",
"309 239 CURVE SMOOTH",
"369 239 OFFCURVE",
"412 206 OFFCURVE",
"412 140 CURVE SMOOTH",
"412 80 OFFCURVE",
"378 45 OFFCURVE",
"321 45 CURVE SMOOTH",
"222 45 OFFCURVE",
"166 139 OFFCURVE",
"166 310 CURVE SMOOTH",
"166 445 OFFCURVE",
"220 525 OFFCURVE",
"312 525 CURVE SMOOTH",
"380 525 OFFCURVE",
"429 476 OFFCURVE",
"427 379 CURVE",
"501 379 LINE",
"499 478 OFFCURVE",
"550 525 OFFCURVE",
"619 525 CURVE SMOOTH",
"687 525 OFFCURVE",
"728 484 OFFCURVE",
"728 418 CURVE SMOOTH",
"728 380 OFFCURVE",
"715 347 OFFCURVE",
"690 320 CURVE",
"753 274 LINE",
"795 318 OFFCURVE",
"812 363 OFFCURVE",
"812 417 CURVE SMOOTH"
);
}
);
width = 865;
userData = {
RMXScaler = {
verticalShift = -124;
};
};
},
{
layerId = "134B12F2-BF5D-48E3-8003-C7502B438C7E";
paths = (
{
closed = 1;
nodes = (
"867 550 OFFCURVE",
"783 630 OFFCURVE",
"660 630 CURVE SMOOTH",
"531 630 OFFCURVE",
"443 544 OFFCURVE",
"443 405 CURVE",
"529 405 LINE",
"529 544 OFFCURVE",
"447 630 OFFCURVE",
"320 630 CURVE SMOOTH",
"168 630 OFFCURVE",
"71 512 OFFCURVE",
"71 321 CURVE SMOOTH",
"71 107 OFFCURVE",
"179 -24 OFFCURVE",
"341 -24 CURVE SMOOTH",
"462 -24 OFFCURVE",
"534 48 OFFCURVE",
"534 149 CURVE SMOOTH",
"534 257 OFFCURVE",
"451 323 OFFCURVE",
"345 323 CURVE SMOOTH",
"261 323 OFFCURVE",
"193 281 OFFCURVE",
"147 210 CURVE",
"208 136 LINE",
"234 199 OFFCURVE",
"279 230 OFFCURVE",
"336 230 CURVE SMOOTH",
"380 230 OFFCURVE",
"419 207 OFFCURVE",
"419 147 CURVE SMOOTH",
"419 100 OFFCURVE",
"390 69 OFFCURVE",
"342 69 CURVE SMOOTH",
"261 69 OFFCURVE",
"215 157 OFFCURVE",
"215 325 CURVE SMOOTH",
"215 445 OFFCURVE",
"261 516 OFFCURVE",
"335 516 CURVE SMOOTH",
"390 516 OFFCURVE",
"430 475 OFFCURVE",
"425 386 CURVE",
"547 386 LINE",
"543 478 OFFCURVE",
"585 516 OFFCURVE",
"641 516 CURVE SMOOTH",
"692 516 OFFCURVE",
"726 484 OFFCURVE",
"726 433 CURVE SMOOTH",
"726 400 OFFCURVE",
"714 373 OFFCURVE",
"689 349 CURVE",
"797 273 LINE",
"848 325 OFFCURVE",
"867 373 OFFCURVE",
"867 432 CURVE SMOOTH"
);
}
);
width = 913;
userData = {
RMXScaler = {
verticalShift = -98;
};
};
},
{
layerId = "0A718E2F-231D-484E-9433-16A5230D2CE8";
paths = (
{
closed = 1;
nodes = (
"902 567 OFFCURVE",
"811 653 OFFCURVE",
"679 653 CURVE SMOOTH",
"540 653 OFFCURVE",
"447 560 OFFCURVE",
"447 414 CURVE",
"554 414 LINE",
"554 560 OFFCURVE",
"467 653 OFFCURVE",
"331 653 CURVE SMOOTH",
"169 653 OFFCURVE",
"65 529 OFFCURVE",
"65 330 CURVE SMOOTH",
"65 107 OFFCURVE",
"182 -29 OFFCURVE",
"355 -29 CURVE SMOOTH",
"487 -29 OFFCURVE",
"563 48 OFFCURVE",
"563 154 CURVE SMOOTH",
"563 268 OFFCURVE",
"475 337 OFFCURVE",
"365 337 CURVE SMOOTH",
"277 337 OFFCURVE",
"205 291 OFFCURVE",
"158 214 CURVE",
"233 126 LINE",
"256 192 OFFCURVE",
"298 225 OFFCURVE",
"354 225 CURVE SMOOTH",
"387 225 OFFCURVE",
"424 208 OFFCURVE",
"424 152 CURVE SMOOTH",
"424 112 OFFCURVE",
"398 85 OFFCURVE",
"356 85 CURVE SMOOTH",
"286 85 OFFCURVE",
"247 168 OFFCURVE",
"247 334 CURVE SMOOTH",
"247 445 OFFCURVE",
"287 511 OFFCURVE",
"349 511 CURVE SMOOTH",
"397 511 OFFCURVE",
"430 474 OFFCURVE",
"424 391 CURVE",
"577 391 LINE",
"571 478 OFFCURVE",
"607 511 OFFCURVE",
"655 511 CURVE SMOOTH",
"696 511 OFFCURVE",
"724 484 OFFCURVE",
"724 443 CURVE SMOOTH",
"724 412 OFFCURVE",
"713 390 OFFCURVE",
"689 367 CURVE",
"825 272 LINE",
"882 329 OFFCURVE",
"902 379 OFFCURVE",
"902 441 CURVE SMOOTH"
);
}
);
width = 944;
userData = {
RMXScaler = {
verticalShift = -82;
};
};
},
{
layerId = "AB666A95-3AF9-4DE8-B258-097FFCFE8A59";
paths = (
{
closed = 1;
nodes = (
"755 494 OFFCURVE",
"694 556 OFFCURVE",
"599 556 CURVE SMOOTH",
"503 556 OFFCURVE",
"434 491 OFFCURVE",
"434 374 CURVE",
"449 374 LINE",
"450 490 OFFCURVE",
"382 556 OFFCURVE",
"288 556 CURVE SMOOTH",
"166 556 OFFCURVE",
"90 456 OFFCURVE",
"90 294 CURVE SMOOTH",
"90 106 OFFCURVE",
"169 -10 OFFCURVE",
"292 -10 CURVE SMOOTH",
"374 -10 OFFCURVE",
"428 44 OFFCURVE",
"428 129 CURVE SMOOTH",
"428 215 OFFCURVE",
"367 272 OFFCURVE",
"272 272 CURVE SMOOTH",
"206 272 OFFCURVE",
"149 244 OFFCURVE",
"109 194 CURVE",
"119 170 LINE",
"156 223 OFFCURVE",
"209 251 OFFCURVE",
"272 251 CURVE SMOOTH",
"355 251 OFFCURVE",
"404 204 OFFCURVE",
"404 129 CURVE SMOOTH",
"404 55 OFFCURVE",
"362 12 OFFCURVE",
"292 12 CURVE SMOOTH",
"181 12 OFFCURVE",
"114 117 OFFCURVE",
"114 294 CURVE SMOOTH",
"114 445 OFFCURVE",
"178 534 OFFCURVE",
"289 534 CURVE SMOOTH",
"370 534 OFFCURVE",
"430 478 OFFCURVE",
"430 372 CURVE",
"453 372 LINE",
"453 479 OFFCURVE",
"515 534 OFFCURVE",
"597 534 CURVE SMOOTH",
"682 534 OFFCURVE",
"731 483 OFFCURVE",
"731 402 CURVE SMOOTH",
"731 359 OFFCURVE",
"717 319 OFFCURVE",
"691 290 CURVE",
"708 275 LINE",
"740 310 OFFCURVE",
"755 353 OFFCURVE",
"755 402 CURVE SMOOTH"
);
}
);
width = 815;
userData = {
RMXScaler = {
verticalShift = -151;
};
};
}
);
leftKerningGroup = gFinal;
leftMetricsKey = "=|pFinal_cham";
note = uniAA13;
rightKerningGroup = dha;
rightMetricsKey = dha_cham;
unicode = AA13;
script = cham;
category = Letter;
subCategory = Spacing;
userData = {
RMXScaler = {
source = "ta-cham";
};
};
},
{
glyphname = tha_cham;
production = uniAA14;
lastChange = "2017-04-21 12:56:16 +0000";
layers = (
{
layerId = "9FF96064-8718-4A86-A5C8-73C592101F67";
paths = (
{
closed = 1;
nodes = (
"1044 525 OFFCURVE",
"969 594 OFFCURVE",
"855 594 CURVE SMOOTH",
"741 594 OFFCURVE",
"668 533 OFFCURVE",
"668 442 CURVE SMOOTH",
"668 377 OFFCURVE",
"707 321 OFFCURVE",
"707 274 CURVE SMOOTH",
"707 223 OFFCURVE",
"666 189 OFFCURVE",
"617 189 CURVE SMOOTH",
"572 189 OFFCURVE",
"543 208 OFFCURVE",
"542 236 CURVE SMOOTH",
"541 258 OFFCURVE",
"558 270 OFFCURVE",
"579 270 CURVE SMOOTH",
"617 270 OFFCURVE",
"639 238 OFFCURVE",
"639 181 CURVE SMOOTH",
"639 95 OFFCURVE",
"588 50 OFFCURVE",
"508 50 CURVE SMOOTH",
"424 50 OFFCURVE",
"374 102 OFFCURVE",
"374 175 CURVE SMOOTH",
"374 252 OFFCURVE",
"439 320 OFFCURVE",
"439 422 CURVE SMOOTH",
"439 526 OFFCURVE",
"362 594 OFFCURVE",
"249 594 CURVE SMOOTH",
"132 594 OFFCURVE",
"53 525 OFFCURVE",
"53 418 CURVE SMOOTH",
"53 368 OFFCURVE",
"73 312 OFFCURVE",
"114 276 CURVE",
"176 325 LINE",
"154 348 OFFCURVE",
"137 384 OFFCURVE",
"137 420 CURVE SMOOTH",
"137 485 OFFCURVE",
"179 525 OFFCURVE",
"247 525 CURVE SMOOTH",
"314 525 OFFCURVE",
"353 483 OFFCURVE",
"353 415 CURVE SMOOTH",
"353 332 OFFCURVE",
"288 263 OFFCURVE",
"288 170 CURVE SMOOTH",
"288 59 OFFCURVE",
"369 -17 OFFCURVE",
"498 -17 CURVE SMOOTH",
"623 -17 OFFCURVE",
"700 55 OFFCURVE",
"700 177 CURVE SMOOTH",
"700 260 OFFCURVE",
"648 313 OFFCURVE",
"580 313 CURVE SMOOTH",
"530 313 OFFCURVE",
"491 284 OFFCURVE",
"492 236 CURVE SMOOTH",
"492 180 OFFCURVE",
"546 144 OFFCURVE",
"623 144 CURVE SMOOTH",
"708 144 OFFCURVE",
"778 196 OFFCURVE",
"778 277 CURVE SMOOTH",
"778 327 OFFCURVE",
"748 379 OFFCURVE",
"748 427 CURVE SMOOTH",
"748 488 OFFCURVE",
"789 525 OFFCURVE",
"855 525 CURVE SMOOTH",
"919 525 OFFCURVE",
"960 487 OFFCURVE",
"960 421 CURVE SMOOTH",
"960 383 OFFCURVE",
"943 348 OFFCURVE",
"916 321 CURVE",
"980 274 LINE",
"1023 319 OFFCURVE",
"1044 366 OFFCURVE",
"1044 421 CURVE SMOOTH"
);
}
);
width = 1097;
userData = {
RMXScaler = {
verticalShift = -124;
};
};
},
{
layerId = "134B12F2-BF5D-48E3-8003-C7502B438C7E";
paths = (
{
closed = 1;
nodes = (
"1153 551 OFFCURVE",
"1065 630 OFFCURVE",
"926 630 CURVE SMOOTH",
"790 630 OFFCURVE",
"704 563 OFFCURVE",
"704 465 CURVE SMOOTH",
"704 395 OFFCURVE",
"748 336 OFFCURVE",
"748 288 CURVE SMOOTH",
"748 247 OFFCURVE",
"702 216 OFFCURVE",
"663 216 CURVE SMOOTH",
"621 216 OFFCURVE",
"598 234 OFFCURVE",
"598 256 CURVE SMOOTH",
"598 274 OFFCURVE",
"612 284 OFFCURVE",
"628 284 CURVE SMOOTH",
"661 284 OFFCURVE",
"679 254 OFFCURVE",
"679 200 CURVE SMOOTH",
"679 121 OFFCURVE",
"634 86 OFFCURVE",
"564 86 CURVE SMOOTH",
"486 86 OFFCURVE",
"441 132 OFFCURVE",
"441 195 CURVE SMOOTH",
"441 264 OFFCURVE",
"507 334 OFFCURVE",
"507 442 CURVE SMOOTH",
"507 555 OFFCURVE",
"413 630 OFFCURVE",
"280 630 CURVE SMOOTH",
"141 630 OFFCURVE",
"46 549 OFFCURVE",
"46 428 CURVE SMOOTH",
"46 373 OFFCURVE",
"67 309 OFFCURVE",
"117 270 CURVE",
"222 350 LINE",
"204 368 OFFCURVE",
"187 400 OFFCURVE",
"187 432 CURVE SMOOTH",
"187 483 OFFCURVE",
"221 516 OFFCURVE",
"276 516 CURVE SMOOTH",
"331 516 OFFCURVE",
"362 481 OFFCURVE",
"362 429 CURVE SMOOTH",
"362 352 OFFCURVE",
"296 280 OFFCURVE",
"296 181 CURVE SMOOTH",
"296 59 OFFCURVE",
"389 -24 OFFCURVE",
"544 -24 CURVE SMOOTH",
"691 -24 OFFCURVE",
"778 54 OFFCURVE",
"778 193 CURVE SMOOTH",
"778 287 OFFCURVE",
"710 348 OFFCURVE",
"630 348 CURVE SMOOTH",
"568 348 OFFCURVE",
"522 315 OFFCURVE",
"522 255 CURVE SMOOTH",
"522 189 OFFCURVE",
"583 149 OFFCURVE",
"675 149 CURVE SMOOTH",
"771 149 OFFCURVE",
"866 204 OFFCURVE",
"866 295 CURVE SMOOTH",
"866 346 OFFCURVE",
"838 395 OFFCURVE",
"838 437 CURVE SMOOTH",
"838 486 OFFCURVE",
"872 516 OFFCURVE",
"926 516 CURVE SMOOTH",
"978 516 OFFCURVE",
"1011 488 OFFCURVE",
"1011 434 CURVE SMOOTH",
"1011 402 OFFCURVE",
"998 374 OFFCURVE",
"973 349 CURVE",
"1082 273 LINE",
"1133 328 OFFCURVE",
"1153 375 OFFCURVE",
"1153 434 CURVE SMOOTH"
);
}
);
width = 1199;
userData = {
RMXScaler = {
verticalShift = -98;
};
};
},
{
layerId = "0A718E2F-231D-484E-9433-16A5230D2CE8";
paths = (
{
closed = 1;
nodes = (
"1223 567 OFFCURVE",
"1127 653 OFFCURVE",
"973 653 CURVE SMOOTH",
"822 653 OFFCURVE",
"728 582 OFFCURVE",
"728 480 CURVE SMOOTH",
"728 406 OFFCURVE",
"775 345 OFFCURVE",
"775 297 CURVE SMOOTH",
"775 263 OFFCURVE",
"726 234 OFFCURVE",
"693 234 CURVE SMOOTH",
"653 234 OFFCURVE",
"635 249 OFFCURVE",
"635 268 CURVE SMOOTH",
"635 285 OFFCURVE",
"647 293 OFFCURVE",
"661 293 CURVE SMOOTH",
"690 293 OFFCURVE",
"706 265 OFFCURVE",
"706 212 CURVE SMOOTH",
"706 137 OFFCURVE",
"664 109 OFFCURVE",
"600 109 CURVE SMOOTH",
"526 109 OFFCURVE",
"484 151 OFFCURVE",
"484 208 CURVE SMOOTH",
"484 271 OFFCURVE",
"551 343 OFFCURVE",
"551 455 CURVE SMOOTH",
"551 573 OFFCURVE",
"446 653 OFFCURVE",
"300 653 CURVE SMOOTH",
"147 653 OFFCURVE",
"42 564 OFFCURVE",
"42 434 CURVE SMOOTH",
"42 377 OFFCURVE",
"64 307 OFFCURVE",
"120 266 CURVE",
"253 366 LINE",
"237 380 OFFCURVE",
"220 410 OFFCURVE",
"220 440 CURVE SMOOTH",
"220 481 OFFCURVE",
"249 511 OFFCURVE",
"295 511 CURVE SMOOTH",
"342 511 OFFCURVE",
"369 479 OFFCURVE",
"369 438 CURVE SMOOTH",
"369 364 OFFCURVE",
"302 291 OFFCURVE",
"302 188 CURVE SMOOTH",
"302 59 OFFCURVE",
"403 -29 OFFCURVE",
"574 -29 CURVE SMOOTH",
"735 -29 OFFCURVE",
"828 53 OFFCURVE",
"828 203 CURVE SMOOTH",
"828 305 OFFCURVE",
"751 371 OFFCURVE",
"663 371 CURVE SMOOTH",
"593 371 OFFCURVE",
"542 334 OFFCURVE",
"542 267 CURVE SMOOTH",
"542 195 OFFCURVE",
"607 152 OFFCURVE",
"709 152 CURVE SMOOTH",
"812 152 OFFCURVE",
"923 209 OFFCURVE",
"923 306 CURVE SMOOTH",
"923 358 OFFCURVE",
"896 405 OFFCURVE",
"896 443 CURVE SMOOTH",
"896 485 OFFCURVE",
"926 511 OFFCURVE",
"973 511 CURVE SMOOTH",
"1016 511 OFFCURVE",
"1045 488 OFFCURVE",
"1045 442 CURVE SMOOTH",
"1045 414 OFFCURVE",
"1034 390 OFFCURVE",
"1010 367 CURVE",
"1148 272 LINE",
"1204 334 OFFCURVE",
"1223 380 OFFCURVE",
"1223 443 CURVE SMOOTH"
);
}
);
width = 1265;
userData = {
RMXScaler = {
verticalShift = -82;
};
};
},
{
layerId = "AB666A95-3AF9-4DE8-B258-097FFCFE8A59";
paths = (
{
closed = 1;
nodes = (
"929 497 OFFCURVE",
"868 556 OFFCURVE",
"779 556 CURVE SMOOTH",
"689 556 OFFCURVE",
"629 501 OFFCURVE",
"629 417 CURVE SMOOTH",
"629 359 OFFCURVE",
"662 305 OFFCURVE",
"662 259 CURVE SMOOTH",
"662 198 OFFCURVE",
"628 160 OFFCURVE",
"567 160 CURVE SMOOTH",
"519 160 OFFCURVE",
"483 181 OFFCURVE",
"482 215 CURVE SMOOTH",
"481 241 OFFCURVE",
"500 255 OFFCURVE",
"526 255 CURVE SMOOTH",
"569 255 OFFCURVE",
"595 221 OFFCURVE",
"595 161 CURVE SMOOTH",
"595 68 OFFCURVE",
"539 12 OFFCURVE",
"448 12 CURVE SMOOTH",
"358 12 OFFCURVE",
"302 70 OFFCURVE",
"302 155 CURVE SMOOTH",
"302 240 OFFCURVE",
"366 305 OFFCURVE",
"366 400 CURVE SMOOTH",
"366 496 OFFCURVE",
"307 556 OFFCURVE",
"216 556 CURVE SMOOTH",
"121 556 OFFCURVE",
"60 499 OFFCURVE",
"60 407 CURVE SMOOTH",
"60 362 OFFCURVE",
"79 316 OFFCURVE",
"109 283 CURVE",
"126 298 LINE",
"101 326 OFFCURVE",
"84 367 OFFCURVE",
"84 407 CURVE SMOOTH",
"84 488 OFFCURVE",
"133 534 OFFCURVE",
"216 534 CURVE SMOOTH",
"295 534 OFFCURVE",
"342 485 OFFCURVE",
"342 400 CURVE SMOOTH",
"342 312 OFFCURVE",
"278 246 OFFCURVE",
"278 158 CURVE SMOOTH",
"278 59 OFFCURVE",
"346 -10 OFFCURVE",
"448 -10 CURVE SMOOTH",
"551 -10 OFFCURVE",
"618 57 OFFCURVE",
"618 161 CURVE SMOOTH",
"618 231 OFFCURVE",
"581 276 OFFCURVE",
"526 276 CURVE SMOOTH",
"488 276 OFFCURVE",
"458 252 OFFCURVE",
"459 216 CURVE SMOOTH",
"460 170 OFFCURVE",
"507 139 OFFCURVE",
"567 139 CURVE SMOOTH",
"640 139 OFFCURVE",
"685 187 OFFCURVE",
"685 259 CURVE SMOOTH",
"685 308 OFFCURVE",
"653 362 OFFCURVE",
"653 417 CURVE SMOOTH",
"653 490 OFFCURVE",
"701 534 OFFCURVE",
"779 534 CURVE SMOOTH",
"856 534 OFFCURVE",
"905 486 OFFCURVE",
"905 408 CURVE SMOOTH",
"905 363 OFFCURVE",
"885 321 OFFCURVE",
"856 292 CURVE",
"872 276 LINE",
"906 309 OFFCURVE",
"929 357 OFFCURVE",
"929 408 CURVE SMOOTH"
);
}
);
width = 989;
userData = {
RMXScaler = {
verticalShift = -151;
};
};
}
);
leftKerningGroup = dha;
leftMetricsKey = dha_cham;
note = uniAA14;
rightKerningGroup = dha;
rightMetricsKey = dha_cham;
unicode = AA14;
script = cham;
category = Letter;
subCategory = Spacing;
userData = {
RMXScaler = {
source = "tha-cham";
};
};
},
